<svg id="Layer_1" data-name="Layer 1" xmlns="http://www.w3.org/2000/svg" viewBox="0 0 500 500"><defs><style>.cls-1{fill:#231f20;}</style></defs><title>hypershapes icon</title><path class="cls-1" d="M319.62,205.76h-91a16.4,16.4,0,0,0-31.54,0H180.24a4.54,4.54,0,1,0,0,9.07h16.88a16.41,16.41,0,0,0,31.54,0h91a4.54,4.54,0,1,0,0-9.07Zm-106.73,14.9a10.38,10.38,0,1,1,9.31-5.83A10.36,10.36,0,0,1,212.89,220.66Z"/><path class="cls-1" d="M319.62,245.45H292.69a16.41,16.41,0,0,0-31.54,0H180.24a4.54,4.54,0,0,0,0,9.08h80.91a16.41,16.41,0,0,0,31.54,0h26.93a4.54,4.54,0,1,0,0-9.08Zm-42.7,14.9a10.37,10.37,0,1,1,9.31-5.82A10.4,10.4,0,0,1,276.92,260.35Z"/><path class="cls-1" d="M319.76,285.27l-51.7-.08a16.42,16.42,0,0,0-31.56,0H180.24a4.54,4.54,0,1,0,0,9.07H236.5a16.42,16.42,0,0,0,31.56,0l51.7.09a4.54,4.54,0,0,0,0-9.08Zm-58.18,9a10.35,10.35,0,0,1-18.62,0,10.32,10.32,0,0,1,0-9.07,10.35,10.35,0,0,1,18.62,0,10.32,10.32,0,0,1,0,9.07Z"/></svg>