<svg id="Layer_1" data-name="Layer 1" xmlns="http://www.w3.org/2000/svg" viewBox="0 0 500 500"><defs><style>.cls-1{fill:#231f20;}</style></defs><title>hypershapes icon</title><path class="cls-1" d="M320.39,237.65c0,.23-.05.46-.06.69,0-.05.11-.68,0-.22s-.13.79-.22,1.18a20.16,20.16,0,0,1-.64,2.27c-.07.2-.45,1.14-.28.76s-.3.6-.36.72a20.82,20.82,0,0,1-1.16,2c-.12.17-.7,1-.46.66s-.42.51-.51.61a20.76,20.76,0,0,1-1.62,1.63c-.28.26-.59.49-.87.75s.12-.1.16-.13l-.53.38a20.06,20.06,0,0,1-2,1.2c-.34.18-.71.32-1,.51s.13-.06.19-.08l-.62.24a19.55,19.55,0,0,1-2.26.67c-.38.09-.78.14-1.17.23s.17,0,.23,0l-.69.08a20.7,20.7,0,0,1-2.49.06l-1.29-.09c-.48,0,.09,0,.16,0l-.71-.12a18.55,18.55,0,0,1-2.44-.62c-.39-.13-.77-.28-1.16-.42s.09,0,.15.07l-.64-.3a22.41,22.41,0,0,1-2.13-1.21c-.22-.15-1.2-.85-.6-.39-.36-.28-.71-.59-1.06-.9a22.56,22.56,0,0,1-1.91-2s-.4-.49-.12-.13-.31-.44-.3-.43c-.23-.34-.46-.68-.67-1a21.22,21.22,0,0,1-1.34-2.65c-1.12-2.64-5.83-2.64-7,0a20.82,20.82,0,0,1-1.25,2.5q-.36.6-.75,1.17l-.4.56c.28-.36.27-.36,0,0a22.56,22.56,0,0,1-1.91,2c-.25.24-.52.46-.78.68s-.36.29,0,0c-.19.14-.37.27-.57.4a18.62,18.62,0,0,1-2.4,1.41l-.64.3c.43-.18.42-.18,0,0s-.89.32-1.34.46c-.81.24-1.62.41-2.45.57-.47.08-.47.08,0,0l-.73.07c-.49,0-1,0-1.48,0s-1,0-1.49,0l-.73-.07c.47.07.46.07,0,0a24.72,24.72,0,0,1-2.44-.57c-.46-.14-.9-.3-1.34-.46s-.44-.18,0,0l-.63-.3a18.73,18.73,0,0,1-2.41-1.41l-.57-.4c.36.28.35.28,0,0s-.53-.44-.79-.68a22.56,22.56,0,0,1-1.91-2c-.29-.36-.29-.36,0,0-.14-.19-.28-.37-.41-.56q-.39-.57-.75-1.17a22.42,22.42,0,0,1-1.25-2.5c-1.12-2.64-5.83-2.64-7,0a20.82,20.82,0,0,1-1.25,2.5q-.36.6-.75,1.17c-.13.19-.27.37-.41.56.28-.36.28-.36,0,0a24.21,24.21,0,0,1-1.92,2c-.26.24-.52.46-.79.68s-.36.29,0,0l-.57.4a19.44,19.44,0,0,1-2.41,1.41l-.64.3c.42-.18.42-.18,0,0s-.89.32-1.34.46c-.81.24-1.62.41-2.45.57-.47.08-.48.08,0,0l-.73.07c-.5,0-1,0-1.49,0s-1,0-1.48,0l-.73-.07c.47.07.47.07,0,0a24.72,24.72,0,0,1-2.44-.57c-.45-.14-.9-.3-1.34-.46s-.44-.18,0,0l-.64-.3a19.44,19.44,0,0,1-2.41-1.41l-.57-.4c.36.28.35.28,0,0s-.54-.44-.79-.68a24.21,24.21,0,0,1-1.92-2c-.29-.36-.29-.36,0,0-.14-.19-.28-.37-.41-.56q-.39-.57-.75-1.17a19.44,19.44,0,0,1-1.25-2.5c-1.12-2.63-5.83-2.64-7,0a21.26,21.26,0,0,1-2.4,4.23c.47-.65-.22.24-.36.4s-.54.6-.82.88-.58.57-.88.84l-.39.34s-.82.63-.41.34-.11.06-.15.09l-.58.4c-.34.22-.68.43-1,.63s-.61.34-.92.5-.43.19-.63.3c-.54.29.56-.19,0,0-.78.28-1.56.56-2.36.77q-.62.15-1.23.27l-.53.09c-.47.09.59,0-.19,0s-1.58.1-2.37.08c-.41,0-.82,0-1.22-.07l-.69-.07c.36,0,.48.07.05,0-.77-.16-1.54-.32-2.3-.55-.37-.12-.74-.24-1.11-.38l-.47-.18c.33.12.43.2,0,0-.7-.34-1.38-.69-2-1.09-.33-.2-.65-.41-1-.63l-.4-.28c-.81-.58.3.33-.09-.08s-1.15-1-1.68-1.55q-.34-.36-.66-.72c-.15-.17-.28-.35-.43-.51-.39-.4.34.52,0,0-.47-.74-1-1.44-1.41-2.21-.21-.39-.41-.78-.6-1.18,0-.11-.31-.76-.13-.28s-.07-.21-.1-.29a23,23,0,0,1-.74-2.58c0-.17-.07-.33-.1-.5,0,0-.16-1.05-.09-.48s0-.07,0-.14c0-.35-.05-.69-.07-1l-.55,2c1.9-2.92,3.21-6.3,4.73-9.43q2-4,3.91-8l11-22.52,4.1-8.42-3.47,2h94.09c4.31,0,8.69.23,13,0h.18l-3.88-3,7,19.46q2.93,8.14,5.84,16.29l4.19,11.72,3.88-5.1h-.18c-2.89,0-5.25,3.49-3.48,6.06l1,1.5a4.1,4.1,0,0,0,5.51,1.45c1.72-1.11,2.72-3.65,1.45-5.51l-1-1.5-3.47,6.06h.18c2.46,0,4.78-2.6,3.89-5.1l-5.61-15.67-8.6-24-2.8-7.82a4.17,4.17,0,0,0-3.89-3H212.47c-4.32,0-8.67-.13-13,0h-.18a4,4,0,0,0-3.48,2l-14.93,30.64q-3.4,7-6.79,14c-.44.91-.85,1.86-1.34,2.75-.19.36-.46.68-.66,1-1,1.78-.41,4.28,0,6.17a23.74,23.74,0,0,0,44.94,4.5h-7a23.71,23.71,0,0,0,36.53,9,22.76,22.76,0,0,0,6.93-9h-7A23.75,23.75,0,0,0,262,259.06a24,24,0,0,0,21.09-4.36,22.8,22.8,0,0,0,6.91-9h-7a23.75,23.75,0,0,0,45.42-8.08,4.06,4.06,0,0,0-4-4A4.15,4.15,0,0,0,320.39,237.65Z"/><path class="cls-1" d="M303.85,255.88v55.44l4-4H207.76c-4.59,0-9.25-.24-13.83,0h-.2l4,4V255.88a4,4,0,1,0-8,0v55.44a4.08,4.08,0,0,0,4,4H293.86c4.6,0,9.22.13,13.82,0a1.34,1.34,0,0,1,.2,0,4.09,4.09,0,0,0,4-4V255.88a4,4,0,0,0-8.06,0Z"/><path class="cls-1" d="M193.73,295.55H293.86c4.6,0,9.22.13,13.82,0h.2a4,4,0,1,0,0-8.06H207.76c-4.6,0-9.23-.14-13.83,0h-.2a4,4,0,0,0,0,8.06Z"/></svg>