<svg id="Layer_1" data-name="Layer 1" xmlns="http://www.w3.org/2000/svg" viewBox="0 0 500 500"><defs><style>.cls-1{stroke:#000;stroke-miterlimit:10;stroke-width:4px;}</style></defs><path class="cls-1" d="M440.12,194.6c0-1.13,0-2.27,0-3.4,0-10.86-5.73-16.6-16.53-16.61h-11.2c-19.14,0-38.93,0-58.39.06h-.07a9.9,9.9,0,0,1-7.81-3.35c-22.32-23.55-44.19-46.59-66.4-69.54a27,27,0,0,0-10.15-6.61c-6.28-2.18-12.47-.59-18.42,4.72l-.87.79-1-.67c-12.6-8.62-20.05-7.82-30.65,3.28l-2.37,2.49c-20.55,21.54-41.81,43.82-62.66,65.79a9,9,0,0,1-7,3.1h-.21c-10.94-.17-21.72-.1-29.9,0-2.79,0-4.66,1.69-4.64,4.16s1.8,4,4.74,4c3.44.06,7,0,10.34,0h14.61L140,185.15c-6,9-6.12,9.84-3.92,22.72l.3,1.75H119.71c-14.87,0-30.25,0-45.37-.06-3.73,0-6.17-2.63-6.24-6.65,0-2.83,0-5.7,0-8.47v-2.78c0-6.76,2-8.83,8.67-8.85h4.17c2.67,0,5.44,0,8.15,0s4.42-1.49,4.5-3.9-1.6-4.16-4.49-4.27c-1.48-.05-3,0-4.5,0-2,0-4,.07-6-.07-9.47-.7-15.59,3-18.7,11.44v20.42c2.52,6.7,6.43,10.27,12.27,11.24a32.81,32.81,0,0,0,7.13.2c3.19-.19,4.81,1.12,5.43,4.37,4.12,21.57,8.37,43.49,12.47,64.68,4.21,21.73,8.56,44.2,12.78,66.31,3.43,18,14.81,27.44,32.89,27.45q67,0,134,0c.38,0,.79,0,1.2.06a5.79,5.79,0,0,0,1.92-.07c.78-.59,3.15-2.39,3.65-4.16a2.49,2.49,0,0,0-.22-2,4,4,0,0,0-2.5-1.69,18.64,18.64,0,0,0-4.47-.35H276q-67,0-134,0c-13.09,0-21.33-6.88-23.83-19.89q-6.5-33.76-13-67.52-3.4-17.61-6.81-35.2c-1.3-6.69-2.57-13.38-3.87-20.15l-2.21-11.58H407.85l-.3,1.75q-.14.78-.24,1.5c-.16,1-.31,1.89-.48,2.79L402.78,245q-4.12,21.28-8.23,42.59a6.65,6.65,0,0,0,.34,4.34,3.52,3.52,0,0,0,2.64,1.77c1.76.34,4.22.22,5.18-4.79l2-10.37q3.19-16.65,6.41-33.3c1.14-5.9,2.31-11.8,3.49-17.77l1.91-9.6h3.93c1.85,0,3.6,0,5.34,0a14.47,14.47,0,0,0,14.31-14.35C440.16,200.55,440.14,197.52,440.12,194.6ZM250,125.05l47,49.3H203ZM153.4,209.64a10.63,10.63,0,0,1-4.77-1.18,10.08,10.08,0,0,1-5.61-10.9,13.21,13.21,0,0,1,3.16-6.27c28.61-30.14,57-59.89,81-85,3.58-3.75,7.79-4.73,12.19-2.85,3.72,1.59,6.2,5,7.17,9.78l.12.58-.31.51c-.47.74-.89,1.51-1.34,2.33a25,25,0,0,1-3.47,5.18c-15.65,16.54-31.63,33.28-47.09,49.47L182,184.38l-5.49,5.76c-5,5.22-10.09,10.61-15.2,15.86A11,11,0,0,1,153.4,209.64Zm16.2-.33,7.34-7.69c5.65-5.93,11-11.53,16.46-17.13a6.5,6.5,0,0,1,4.37-1.62c36.75-.07,70.9-.06,104.4,0a6.94,6.94,0,0,1,4.63,1.85c5.35,5.47,10.57,11,16.09,16.75l7.47,7.83Zm187.55-11.94c-.08,5.64-1.9,9.06-5.89,11.09a10.44,10.44,0,0,1-4.76,1.21,10.3,10.3,0,0,1-6.31-2.3,24.83,24.83,0,0,1-2.92-2.77l-3.6-3.77c-24.61-25.8-50.07-52.47-75.05-78.74a17.83,17.83,0,0,1-3.88-5.65,10.32,10.32,0,0,1,4.36-12.22,10.21,10.21,0,0,1,12.86,1.3c2.81,2.7,5.52,5.57,8.14,8.35l2.57,2.71,11.65,12.22c19.19,20.11,39,40.92,58.48,61.45a23.53,23.53,0,0,1,3.42,5.07c.27.48.49.91.7,1.23l.24.37Zm74.7,5.21c0,4.38-2.52,7-6.69,7-6.64,0-13.34,0-20,0l-29,0-10.09,0a2.28,2.28,0,0,1-1.18-.37l-1.08-.48.15-1.21c2.23-11.85,1.94-13.49-3.85-22l-1.39-2.05,2.46-.29,1-.13a15.48,15.48,0,0,1,2-.19q29.73,0,59.44,0c6,0,8.21,2.22,8.23,8.15Q431.9,196.78,431.85,202.58Z"/><path class="cls-1" d="M373.78,295.55c-11.11-4.66-22.85-5.63-35.87-3l-2.15.44,1.65-9.55c.92-5.32,1.81-10.47,2.73-15.6,1.68-9.39-3.45-17.1-12.48-18.76a15.75,15.75,0,0,0-2.73-.25,14.65,14.65,0,0,0-8.34,2.61,16.3,16.3,0,0,0-6.65,10.68q-1.59,8.87-3.09,17.74c-1.23,7.09-2.49,14.43-3.8,21.64-.45,2.41-.84,4.9-1.22,7.3-1.05,6.65-2.13,13.53-4.39,19.95A57.57,57.57,0,0,0,307.35,385,57,57,0,0,0,360,405.22a57.36,57.36,0,0,0,13.75-109.67Zm-61.08-1.33c1.19-6.79,2.34-13.38,3.49-20l.34-1.95c.5-2.87,1-5.83,1.6-8.74.88-4.45,4.28-7.05,8.26-6.32,4.14.76,6.51,4.34,5.76,8.71-1.49,8.69-3.13,17.84-5,28a5.91,5.91,0,0,1-2.16,3.65c-2.62,1.8-5.35,3.51-8.23,5.32L313.37,305l-2.86,1.82Zm38.88,103.39h0a49.13,49.13,0,1,1,0-98.25h.12a49.13,49.13,0,0,1-.12,98.25Z"/><path class="cls-1" d="M201.12,325.57c-.86-4.83-1.79-10.12-2.71-15.41-.89-5-1.76-10.09-2.64-15.14-1.88-10.83-3.82-22-5.81-33-1.43-7.87-7.62-13.11-15-13.11a15.39,15.39,0,0,0-2.84.26c-8.78,1.58-14,9.35-12.38,18.48.19,1.07.37,2.14.55,3.2s.39,2.28.59,3.42l2.88,16.41c2.48,14.14,5,28.77,7.63,43.15a15.28,15.28,0,0,0,16.42,12.75c8.13-.74,14-7.59,14.11-16.31Zm-9,10a6.75,6.75,0,0,1-4.52,2.73,7.82,7.82,0,0,1-1.26.1c-3.52,0-6.19-2.61-7-7-3-16.84-6-34-9-50.51l-2.64-15c-.05-.3-.08-.6-.1-.9l0-.47a7.14,7.14,0,0,1,6.48-7.39c3.74-.35,6.88,2.19,7.64,6.17,1.12,5.9,2.17,11.9,3.19,17.71l.38,2.17q4,22.83,8,45.65A8.75,8.75,0,0,1,192.16,335.55Z"/><path class="cls-1" d="M265.29,264.77c-.14-9.19-6.54-15.91-15.22-16h-.13a15,15,0,0,0-10.72,4.43,16.09,16.09,0,0,0-4.56,11.33c-.14,18.14-.1,36.59-.06,54.43l0,12.08a14.62,14.62,0,0,0,5.83,12.13c5,3.9,10.42,4.54,16,1.91,5.83-2.76,8.81-7.54,8.86-14.22.06-7.64.05-15.41,0-22.93,0-3.31,0-6.63,0-9.94s0-6.71,0-10.06C265.38,280.35,265.41,272.49,265.29,264.77Zm-8.19,64.68a15,15,0,0,1-.29,3.29,6.65,6.65,0,0,1-6.74,5.56H250a6.67,6.67,0,0,1-6.91-5.83,17.57,17.57,0,0,1-.2-3.29v-.33q0-12,0-24V299.3l0-1.5v-6.57q0-12,0-24.1v-.39a24,24,0,0,1,.12-3.15c.49-4,3.07-6.37,6.91-6.43s6.49,2.28,7.07,6.24a16.67,16.67,0,0,1,.14,2.46Q257.12,297.65,257.1,329.45Z"/><path class="cls-1" d="M377.54,333a1.58,1.58,0,0,1-.13.26l-8,8.62C361.07,350.81,352.49,360,344,369a3.74,3.74,0,0,1-2.82,1.23,4.38,4.38,0,0,1-3.18-1.71c-4.89-5.92-9.92-12.2-15.37-19.22a4.11,4.11,0,0,1,.56-5.91,4,4,0,0,1,2.44-.88,4.57,4.57,0,0,1,3.45,1.81c2.67,3.18,5.22,6.37,7.92,9.75l3.44,4.29,1.09,1.34,5.82-6.22c7.47-8,14.8-15.82,22.14-23.65l.47-.51a11.19,11.19,0,0,1,1.7-1.63,3.76,3.76,0,0,1,5.27.26C377.82,328.8,378.89,330.25,377.54,333Z"/></svg>