<svg id="Layer_1" data-name="Layer 1" xmlns="http://www.w3.org/2000/svg" viewBox="0 0 500 500"><defs><style>.cls-1{fill:#231f20;}</style></defs><title>hypershapes icon</title><path class="cls-1" d="M313.88,323.63H186.12a11.94,11.94,0,0,1-11.92-11.92V188.29a11.94,11.94,0,0,1,11.92-11.92H313.88a11.94,11.94,0,0,1,11.92,11.92V311.71A11.94,11.94,0,0,1,313.88,323.63ZM186.12,183.18a5.12,5.12,0,0,0-5.11,5.11V311.71a5.12,5.12,0,0,0,5.11,5.11H313.88a5.12,5.12,0,0,0,5.11-5.11V188.29a5.12,5.12,0,0,0-5.11-5.11Z"/><path class="cls-1" d="M244.73,297v-7.9c-8.29-.11-16.71-2.2-22-5.15a.89.89,0,0,1-.38-1.14l2.87-6.78a.9.9,0,0,1,1.25-.45A45.94,45.94,0,0,0,247,280.5c10.59,0,17.76-5.17,17.76-12.35,0-6.93-5.82-11.22-16.87-15-15.22-5-24.62-11-24.62-21.94,0-10.46,8.8-18.4,22.39-20.3V203a4.7,4.7,0,0,1,4.7-4.71h0A4.7,4.7,0,0,1,255,203v7.53a47.32,47.32,0,0,1,18.1,3.8,1.41,1.41,0,0,1,.73,1.87L271.29,222a1.41,1.41,0,0,1-1.87.71,40.33,40.33,0,0,0-17.52-3.81c-11.5,0-15.83,5.8-15.83,11,0,6.42,5.52,9.7,18.51,14.37,15.38,5.28,23.13,11.72,23.13,22.93,0,10.08-8.2,19.41-23.58,21.43V297a4.7,4.7,0,0,1-4.7,4.71h0A4.7,4.7,0,0,1,244.73,297Z"/></svg>