<svg id="Layer_1" data-name="Layer 1" xmlns="http://www.w3.org/2000/svg" viewBox="0 0 500 500"><defs><style>.cls-1{fill:#231f20;}</style></defs><title>hypershapes icon</title><path class="cls-1" d="M321.21,287.28v25.59a3.41,3.41,0,0,1-3.3,1.54H182c-2.53,0-3.25-.72-3.25-3.21V188.81c0-2.49.72-3.2,3.25-3.21q67.94,0,135.87,0a3.41,3.41,0,0,1,3.3,1.54V287.28Zm-4.52-9.88v-69H183.42V309.76H316.69v-1.51c0-6.54,0-13.07,0-19.61Zm-44.64-73.67h44.46V190.27H272.05l-4.69,0H183.42v13.47h88.63Z"/><path d="M317.91,316.43l-135.87,0c-3.64,0-5.26-1.61-5.26-5.22V188.81c0-3.61,1.62-5.22,5.26-5.22h19.41q58.26,0,116.46,0a5.5,5.5,0,0,1,5,2.52l.28.48V313.43l-.28.48A5.5,5.5,0,0,1,317.91,316.43Zm-137-4.11a10.25,10.25,0,0,0,1.09.06l135.87,0a2.35,2.35,0,0,0,1.29-.24V187.84a2.35,2.35,0,0,0-1.29-.24q-58.23,0-116.46,0H182a3.49,3.49,0,0,0-1.19.12s0,.31,0,1.07V311.19a3.58,3.58,0,0,0,.12,1.14Zm137.75-.54H181.4V206.38H318.7l0,82.25c-.05,5-.05,10,0,15Zm-133.27-4H314.67v-4.11c0-5,0-10,0-15l0-11.22v-67H185.43Zm133.09-102-137.11,0v-17.5l137.11,0Zm-46.47-4H314.5v-9.43l-129.06,0v9.45Z"/><path d="M278.43,239l-3.3,5.46a5.19,5.19,0,0,1-1,1.52c-.67.53-1.56,1.23-2.27,1.14a2.88,2.88,0,0,1-1.89-1.66c-1-2.78-1.78-5.64-2.63-8.48s-1.65-5.49-2.46-8.25c-.49-1.67,0-2.87,1.35-3.3s2.44.27,3,1.95c1.12,3.63,2.19,7.27,3.29,10.9.08.26.18.51.38,1.05,1.09-1.83,2.07-3.46,3.06-5.09,1.59-2.65,3.33-2.63,4.94,0l3.09,5.11c1.06-3.54,2-6.75,3-10,.22-.71.4-1.43.63-2.13.53-1.58,1.62-2.28,2.9-1.89s1.92,1.54,1.47,3.13c-.83,2.93-1.74,5.85-2.62,8.77-.78,2.62-1.58,5.23-2.35,7.85-.31,1.05-.8,1.88-2,2.06a2.45,2.45,0,0,1-2.57-1.5C281.17,243.53,279.85,241.37,278.43,239Z"/><path d="M217.31,239c-1.38,2.3-2.69,4.43-3.95,6.58-.6,1-1.31,1.82-2.62,1.65s-1.74-1.08-2.06-2.16c-1.62-5.46-3.26-10.9-4.87-16.36-.5-1.68,0-2.84,1.37-3.27s2.44.27,3,2c1.19,3.89,2.34,7.79,3.6,12,1.13-1.86,2.12-3.5,3.11-5.15,1.61-2.66,3.32-2.65,4.93,0l3.09,5.11c1.12-3.71,2.15-7.14,3.19-10.56.19-.62.34-1.26.58-1.86a2.2,2.2,0,0,1,2.84-1.53,2.24,2.24,0,0,1,1.44,2.9c-.81,2.85-1.69,5.68-2.54,8.51s-1.69,5.58-2.51,8.38a2.37,2.37,0,0,1-2,2,2.42,2.42,0,0,1-2.46-1.44C220.06,243.57,218.72,241.36,217.31,239Z"/><path d="M247.86,239l-3.27,5.46c-.29.48-.58,1-.86,1.43a2.3,2.3,0,0,1-2.37,1.35,2.27,2.27,0,0,1-2-1.85c-1.69-5.62-3.39-11.24-5.06-16.87a2.28,2.28,0,0,1,1.5-3.1c1.24-.36,2.35.3,2.82,1.8,1.1,3.53,2.14,7.08,3.21,10.62.13.43.28.85.51,1.52,1.15-1.93,2.19-3.67,3.24-5.4,1.36-2.23,3.22-2.22,4.58,0,1,1.7,2.05,3.4,3.21,5.34.22-.61.39-1,.51-1.4q1.53-5.06,3-10.1a6.86,6.86,0,0,1,.41-1.18,2.23,2.23,0,0,1,4.2,1.38c-.46,1.89-1,3.74-1.6,5.6-1.16,3.86-2.34,7.7-3.48,11.56-.32,1.05-.81,1.88-2,2.05a2.44,2.44,0,0,1-2.56-1.51C250.61,243.52,249.28,241.35,247.86,239Z"/><path d="M282,194.61a2.37,2.37,0,0,1,2.38,2.38,2.41,2.41,0,0,1-4.81,0A2.41,2.41,0,0,1,282,194.61Z"/><path d="M294.39,199.36A2.44,2.44,0,0,1,292,197a2.39,2.39,0,0,1,2.4-2.37,2.36,2.36,0,0,1,2.37,2.38A2.39,2.39,0,0,1,294.39,199.36Z"/><path d="M306.89,199.36a2.39,2.39,0,0,1-2.44-2.32,2.32,2.32,0,0,1,2.3-2.43,2.38,2.38,0,0,1,2.47,2.3A2.46,2.46,0,0,1,306.89,199.36Z"/><rect x="209.53" y="262.64" width="79.23" height="5.23" rx="2.62"/><rect x="209.53" y="278.14" width="79.23" height="5.23" rx="2.62"/></svg>