<svg id="Layer_1" data-name="Layer 1" xmlns="http://www.w3.org/2000/svg" viewBox="0 0 500 500"><defs><style>.cls-1{fill:#231f20;stroke:#231f20;stroke-miterlimit:10;stroke-width:1.89px;}</style></defs><title>hypershapes icon</title><path class="cls-1" d="M324.71,207.69a17.57,17.57,0,0,0-1.32-6.63,11.05,11.05,0,0,0-6.43-6c-5.31-2.1-12.58-1.54-18.87-1.54h-64c-15.09,0-30.39-.63-45.48,0a13.53,13.53,0,0,0-5.66,1.33A11.51,11.51,0,0,0,177,201.2c-3.21,7.61-1.53,19.28-1.53,26.82v60.3c0,6.85.07,14.25,7.75,17.33,4.12,1.67,9.43,1,13.77,1H312.35a9.91,9.91,0,0,0,1.53-.28c.14,0,.21,0,.28-.07,8-1.68,10.55-8,10.55-15.93V264.5C324.71,245.56,325.27,226.63,324.71,207.69ZM193.5,202.24H299.91c2.65,0,6.22-.49,9.22-.35-15.72,13.63-31.51,27.39-47.23,41.09-2.16,1.88-4.26,4.19-6.71,5.79-6,4.13-10.13.07-14.39-3.63q-15.72-13.72-31.58-27.46l-17.81-15.51A20.75,20.75,0,0,0,193.5,202.24Zm118.85,95.65H195.88c-3.92,0-10,1.47-11.67-3.7-1.12-3.49,0-9.29,0-13V223.27c0-4.82-1.05-11.11-.14-16q25.37,22.13,50.86,44.3c3.36,2.93,6.57,6.15,11.11,7.27,6.64,1.67,12.23-1.26,17.12-5.45,10.55-9,20.89-18.17,31.37-27.25,7.2-6.29,14.39-12.51,21.59-18.73.42,2.87-.14,6.29-.14,8.6V279.1C316,282.38,318.36,297.19,312.35,297.89Z"/></svg>