<svg id="Layer_1" data-name="Layer 1" xmlns="http://www.w3.org/2000/svg" viewBox="0 0 500 500"><defs><style>.cls-1{fill:#bfbfbf;}</style></defs><title>Empty State- Shipping Zone</title><path class="cls-1" d="M350.62,185.67a5.12,5.12,0,0,0-.54-.71,6.91,6.91,0,0,0-1.9-1.91c-.27-.19-.35-.5-.67-.66q-55.8-31.26-111.62-62.48a8.19,8.19,0,0,0-8.22,0Q170,154.34,112.31,188.78c-.27.16-.36.45-.6.64a6.91,6.91,0,0,0-2.29,2.36l-.09.13a7.68,7.68,0,0,0-1,3.9V311c0,6-.92,11,4,15.38,3.08,2.68,7.22,4.65,10.63,6.85l57.4,37.09,45.45,29.36c.24.16.56.09.81.22s.53.14.81.22a7.78,7.78,0,0,0,5.3-.08.42.42,0,0,0,.13,0,10.92,10.92,0,0,0,1.19-.33L314.17,351q-3.45-7.1-6.73-14.25c-.09-.19-.17-.4-.27-.59q-34.6,21-69.2,42.07V269.05q48.63-32.2,97.27-64.45v23.6a63.51,63.51,0,0,1,16.32-.78v-38A7.91,7.91,0,0,0,350.62,185.67ZM231.9,136.37q21.49,12,43,24L180.17,225q-24-14.58-47.93-29.12ZM221.65,377.64l-97.05-62.7V210.32l97.05,59Zm8-122.6-37.21-22.6,95.18-64.89L327.75,190Q278.7,222.54,229.63,255Z"/><path class="cls-1" d="M385.76,281.47c-.07,9.51-3.33,19-6.68,27.92a330.91,330.91,0,0,1-14.21,31.71c-4.63,9.22-9.53,18.32-14.39,27.44-.87,1.63-1.74,3.25-2.59,4.88-.2.38-.75,2-1.14,2.2s-.39-.52-.68-1.09c-1.78-3.52-3.62-7-5.45-10.51-10.26-19.59-20.75-39.3-28-60-3-8.37-5.8-17.31-4.88-26.2,1.14-11,8.26-21.06,18.54-26.78a42.71,42.71,0,0,1,39.47-.69c12.35,6.33,19.9,18.26,20,31.13,0,4,6.95,4.06,6.91,0a41,41,0,0,0-17.12-32.63,50.07,50.07,0,0,0-39.26-8.26c-13.2,2.72-24.83,11.08-30.82,22.14-5.57,10.28-5.62,21.19-2.86,32.14,2.87,11.34,7.55,22.31,12.44,33,5.11,11.21,10.69,22.23,16.41,33.2,2.27,4.35,4.57,8.7,6.83,13.06.92,1.78,1.67,3.91,3,5.48a7.29,7.29,0,0,0,8.64,1.74c2.39-1.19,3.26-3.46,4.37-5.57q1.51-2.87,3.05-5.72c2.55-4.77,5.1-9.54,7.61-14.32,5.94-11.33,11.66-22.77,16.68-34.47,4.6-10.73,8.88-21.83,10.53-33.31a49.13,49.13,0,0,0,.53-6.52C392.7,277.41,385.79,277.41,385.76,281.47Z"/><path class="cls-1" d="M382.26,281.47c-.08,6.5-1.67,12.81-3.69,19s-4.43,12.34-7,18.35c-5.42,12.52-11.67,24.66-18.06,36.7q-2.66,5-5.33,10c-.88,1.65-1.77,3.3-2.64,5-.41.78-.79,1.55-1.13,2.37-.07.16-.13.32-.19.48.16-.4.17-.42,0-.06-.33.57-.07.36.79-.62l1.77-.48h-.16l2.48,1c1.13,1.39.46.59.1-.19-.13-.29-.27-.56-.41-.84-.34-.66-.67-1.32-1-2L345.59,366q-2-3.86-4-7.71c-2.68-5.12-5.36-10.24-8-15.39-5.15-10.14-10.1-20.4-14.3-31-2.08-5.25-4-10.57-5.67-16s-2.81-10.84-2.51-16.46c0-.67.1-1.33.17-2-.06.54.1-.66.14-.86a32.43,32.43,0,0,1,1.86-6.44c.26-.63-.34.72.15-.34.1-.22.2-.44.31-.66.26-.56.54-1.1.83-1.64a32.88,32.88,0,0,1,8.18-9.88,36.88,36.88,0,0,1,11.9-6.42,37.94,37.94,0,0,1,33.58,4.67c.41.28.82.57,1.22.87.57.41.3.22.18.12l.72.59c.89.73,1.75,1.51,2.57,2.33s1.42,1.48,2.09,2.26a20.58,20.58,0,0,1,1.73,2.28,36.28,36.28,0,0,1,3.1,5.55c.46,1-.12-.32.12.3.09.21.18.43.26.65.19.49.36,1,.53,1.49.34,1.06.63,2.14.87,3.23a27.42,27.42,0,0,1,.66,5.74,6.58,6.58,0,0,0,3.13,5.68,7.74,7.74,0,0,0,5.73.81,6.58,6.58,0,0,0,4.38-3.43c1.06-2.19.67-4.87.39-7.2a44.94,44.94,0,0,0-12.21-25.86,50.65,50.65,0,0,0-26.6-14.19,53.26,53.26,0,0,0-30.2,2.71,49.55,49.55,0,0,0-22.24,17.58c-6.35,9.2-8.27,20.37-6.77,31.31,1.55,11.35,6,22.3,10.51,32.76,4.65,10.8,9.8,21.39,15.14,31.86,2.66,5.24,5.38,10.44,8.11,15.64,1.34,2.56,2.74,5.09,4,7.7s2.28,4.95,4.51,6.68c4.3,3.34,11,3,14.5-1.35a39.19,39.19,0,0,0,3.83-6.62c1.39-2.62,2.8-5.23,4.2-7.85,5.59-10.45,11.11-20.95,16.19-31.66,5-10.54,9.83-21.3,13.3-32.45a94.79,94.79,0,0,0,3.68-16.81c.31-2.59.85-5.69-.37-8.11a6.64,6.64,0,0,0-4.46-3.36c-4.31-1-8.55,1.79-8.74,6.34a3.5,3.5,0,0,0,7,0c0-.86-.13.8,0,0,0,.07-.38.76-.1.26s-.43.48-.1.15-.65.62-.16.11c.1-.1.7-.28.14-.09s.09,0,.17,0c.63-.15-.31.05-.3,0s1.11,0,.38,0,.06,0,.15.05c.37.33-.15-.07-.26-.14.17.11.36.21.53.31,0,0-.7-.53-.26-.16-.53-.45-.32-.46-.14-.13s-.4-.82-.09-.13c-.3-.67,0-.46-.06,0s0,1.09-.06,1.64a74,74,0,0,1-3.58,17.76c-3.71,12.12-9.08,23.77-14.62,35.15-5.73,11.81-12,23.35-18.14,34.93-.68,1.27-1.36,2.54-2,3.82-.27.53-.54,1.06-.84,1.57q-.23.39-.48.75c-.14.2-.13.19,0,0a6,6,0,0,1-.49.52s-.5.38-.16.14c.08-.05-1,.53-.58.36.24-.11-1.41.34-.71.24a9.45,9.45,0,0,1-1.06,0c-.11,0-.68-.08-.12,0a9,9,0,0,1-1-.26c-.62-.18.15.17-.43-.21-.2-.12-.4-.23-.59-.36.52.38-.31-.33-.33-.36a5.71,5.71,0,0,1-.72-1.09c-.73-1.27-1.27-2.63-1.93-3.93-1.48-2.93-3-5.81-4.55-8.71-6.12-11.67-12.14-23.39-17.67-35.35-5.27-11.4-10.4-23-13.32-35.3a46.94,46.94,0,0,1-1.16-16.61,35.53,35.53,0,0,1,6-15.36,28,28,0,0,1,1.88-2.5c.83-1,1.71-1.95,2.63-2.86s1.7-1.63,2.6-2.4a30.71,30.71,0,0,1,2.87-2.2,43.26,43.26,0,0,1,13.27-6.32c20.17-5.75,44,3.1,52.49,22.93.28.64-.28-.75.15.38l.28.7c.22.59.42,1.18.61,1.78a39.62,39.62,0,0,1,1.07,4c.12.55.22,1.11.32,1.66.05.31.1.62.14.93-.07-.5,0,.12,0,.19.14,1.35,0,2.79.26,4.13.09.56,0-.07.06-.23-.32.71.44-.69,0-.05-.15.25-.31.27.19-.22-.48.47.58-.24.17-.1a4.91,4.91,0,0,0-.44.25c.68-.41.47-.23.16-.11-.67.23.2,0,.2,0a3.31,3.31,0,0,1-.63,0s.87.24.2,0c-.3-.1-.54-.3.15.12-.11-.07-.25-.11-.36-.19-.61-.43.64.52.08,0,.06,0,.46.71.18.22-.37-.66.32.77,0,0,0,.12,0,.85,0,.24a9.49,9.49,0,0,0,0-1.07,38.6,38.6,0,0,0-12.7-26.81c-16.95-15.3-44.85-14.89-61.12,1.25a37.49,37.49,0,0,0-11.24,29.52c.52,6.55,2.38,12.85,4.51,19s4.52,12.2,7.08,18.18c5,11.69,10.79,23.05,16.66,34.33,3,5.78,6.07,11.53,9.06,17.32.37.73.75,1.46,1.12,2.2.15.29.31.58.45.88-.31-.67.26.71.39.92a3.78,3.78,0,0,0,5.89.8,8.9,8.9,0,0,0,1.8-3.36c-.39,1.07-.15.36,0,.12.23-.4.43-.82.64-1.22l1.08-2c6.21-11.66,12.49-23.29,18.26-35.18S382.21,312.52,386,300a66.58,66.58,0,0,0,3.22-18.55,3.5,3.5,0,0,0-7,0Z"/><path class="cls-1" d="M364.75,288.77A18,18,0,1,1,350.05,271a18.21,18.21,0,0,1,14.7,17.73c.05,2.88,4.52,2.89,4.48,0a22.51,22.51,0,1,0-18,22c10.47-2.05,17.82-11.54,18-22C369.27,285.89,364.8,285.89,364.75,288.77Z"/><path class="cls-1" d="M361.25,288.77c0,.59-.05,1.18-.11,1.77.06-.56,0,0,0,.12-.05.29-.1.58-.16.86-.12.52-.25,1-.4,1.53-.09.28-.18.55-.28.83l-.18.49c.14-.3.12-.26,0,.12a18.6,18.6,0,0,1-1.53,2.72l-.4.57c.39-.53-.3.36-.31.37-.38.44-.77.86-1.19,1.26L356,300c-.1.09-.67.56-.24.22a11.49,11.49,0,0,1-1.3.89,11.67,11.67,0,0,1-2.71,1.32,13.56,13.56,0,0,1-6.46.78l-.72-.07c.58.08-.18-.05-.31-.08-.54-.1-1.06-.23-1.58-.38a14.18,14.18,0,0,1-1.7-.58l-.16-.07-1-.49a13.88,13.88,0,0,1-4.78-4.08,14.12,14.12,0,0,1-2.6-6.1,13.62,13.62,0,0,1-.21-3,10.35,10.35,0,0,1,.43-3.18,14.31,14.31,0,0,1,8-9.57c.11-.05.81-.37.32-.16.22-.1.45-.18.68-.26a15.63,15.63,0,0,1,1.73-.53,9.74,9.74,0,0,1,3-.42,11.9,11.9,0,0,1,2.74.19,17.26,17.26,0,0,1,3.36,1c-.54-.22.13.08.26.14s.51.25.76.39c.44.24.88.51,1.3.79.24.15.47.32.7.48-.44-.32,0,0,.08.07a19.34,19.34,0,0,1,1.49,1.37c.31.32.6.66.89,1,.71.79-.32-.52.28.35l.38.55q.47.7.87,1.44c.11.2.21.4.31.6,0,0,.46,1,.2.39a17.92,17.92,0,0,1,1,3.1c.06.28.11.56.16.84,0,.11.08.69,0,.11.07.62.07,1.25.12,1.88a5.73,5.73,0,0,0,5.34,5.5,5.66,5.66,0,0,0,5.82-3.75c.76-2.35.12-5.39-.42-7.73a26.43,26.43,0,0,0-6.87-12.43,25.92,25.92,0,0,0-27.7-5.95,25.93,25.93,0,0,0,.48,48.62,25.84,25.84,0,0,0,27.43-6.31,26.82,26.82,0,0,0,6.74-12.63c.51-2.36,1.15-5.44.17-7.74a5.76,5.76,0,0,0-11,2.29,3.5,3.5,0,0,0,7,0c-.07,1,.18-.1-.09.41a2.07,2.07,0,0,1-.56.72l-.19.14c.32-.18.23-.16-.28.08.22,0,.65-.12-.32,0a1.48,1.48,0,0,1,.42,0c-1.21-.12,0,.2-.55-.09-.1,0-.8-.62-.53-.34s-.5-1-.37-.61.09-.89-.06,0a5.62,5.62,0,0,0,0,.71c0,.46-.07.93-.13,1.4.08-.62,0,.12-.06.27s-.09.46-.13.69c-.13.62-.29,1.23-.47,1.84-.13.44-.27.88-.43,1.31l-.24.65c-.39,1,.15-.32-.12.27a23.79,23.79,0,0,1-1.55,2.85c-.24.39-.51.76-.76,1.13-.62.9.22-.25-.18.24l-.54.66a23.29,23.29,0,0,1-2.16,2.17l-.65.56c-.45.36.36-.26-.1.08s-.84.59-1.27.87a21.12,21.12,0,0,1-2.89,1.55c-.59.25.75-.25-.29.1l-.66.24c-.45.15-.9.29-1.36.41a17.94,17.94,0,0,1-3,.55,23.21,23.21,0,0,1-3.12,0l-.91-.07c-.08,0-.69-.08-.15,0-.6-.08-1.19-.2-1.78-.33a25.94,25.94,0,0,1-3.11-1c-.06,0-.62-.25-.17-.06-.22-.09-.44-.19-.65-.3-.55-.25-1.08-.53-1.6-.83a17.52,17.52,0,0,1-4.78-3.89,12.66,12.66,0,0,1-1.59-2.08c-.31-.48-.6-1-.87-1.48-.15-.28-.3-.56-.44-.85,0-.08-.44-1-.26-.56a20.56,20.56,0,0,1-1-3.06c-.13-.55-.24-1.1-.33-1.66,0-.06-.08-.68,0-.18,0-.38-.07-.75-.09-1.12a22.29,22.29,0,0,1,0-3.37c0-.25,0-.5.07-.75,0,.17-.1.54,0-.18s.23-1.22.38-1.83a18.55,18.55,0,0,1,6.88-10.5c-.38.28.67-.46.76-.52.45-.3.91-.58,1.38-.85s1-.52,1.45-.75c.21-.1.43-.21.65-.3-.5.22.52-.19.51-.18a24.17,24.17,0,0,1,3.12-.9,11.5,11.5,0,0,1,2.64-.34,18.09,18.09,0,0,1,11.41,3.12,11,11,0,0,1,2,1.56,25.3,25.3,0,0,1,2.27,2.36c.05.06.41.51.09.09.14.18.27.37.4.56.3.42.59.84.86,1.28a22.73,22.73,0,0,1,1.5,2.9,8.87,8.87,0,0,0,.33.94q.25.74.45,1.5c.12.45.23.9.32,1.36.06.29.1.58.15.86s0-.33,0,.3,0,1.21.13,1.78c.06.38-.19.52.09-.06-.28.57.09-.16.12-.21a1.63,1.63,0,0,1,.88-.69c-.47.12.94,0,.21,0s.63.12.21,0,.77.43.18,0a2.3,2.3,0,0,1,.67.65c.31.44.22.54.1.21.23.66.06.4.06.07a19.77,19.77,0,0,0-.5-4.05,21.48,21.48,0,0,0-42.44,6.05,21.67,21.67,0,0,0,6.32,13.7,22.14,22.14,0,0,0,13.28,6.05c9.89,1,19-5.38,22.18-14.6a22.43,22.43,0,0,0,1.17-6.8,3.5,3.5,0,0,0-7,0Z"/></svg>