<?xml version="1.0" standalone="no"?>
<!DOCTYPE svg PUBLIC "-//W3C//DTD SVG 20010904//EN"
 "http://www.w3.org/TR/2001/REC-SVG-20010904/DTD/svg10.dtd">
<svg version="1.0" xmlns="http://www.w3.org/2000/svg"
 width="225.000000pt" height="225.000000pt" viewBox="0 0 225.000000 225.000000"
 preserveAspectRatio="xMidYMid meet">

<g transform="translate(0.000000,225.000000) scale(0.100000,-0.100000)"
fill="#000000" stroke="none">
<path d="M226 2080 c-75 -29 -123 -67 -165 -132 -115 -171 -51 -403 137 -495
50 -25 67 -28 142 -26 47 1 98 3 113 5 28 3 38 -11 252 -352 220 -350 223
-355 205 -375 -10 -11 -31 -47 -46 -80 -22 -47 -28 -75 -28 -130 -1 -99 24
-163 90 -234 75 -82 132 -106 249 -106 78 0 97 4 146 28 63 31 126 93 160 159
34 66 38 194 8 273 -27 71 -100 150 -173 184 -65 30 -164 37 -236 16 -30 -9
-61 -17 -68 -18 -8 -1 -107 146 -233 347 l-220 349 24 26 c39 42 75 103 87
149 l11 42 444 0 444 0 15 -52 c58 -193 289 -292 472 -203 69 34 147 119 171
187 28 83 24 190 -10 260 -76 155 -246 232 -410 184 -102 -30 -193 -121 -223
-222 l-15 -54 -444 0 -444 0 -15 54 c-52 179 -266 284 -440 216z m223 -100
c87 -44 135 -123 135 -220 0 -139 -104 -242 -245 -241 -215 1 -320 260 -168
413 77 77 185 96 278 48z m1530 14 c67 -19 141 -90 159 -150 49 -167 -60 -325
-227 -325 -141 -1 -245 102 -245 241 0 117 75 213 189 241 47 11 68 10 124 -7z
m-690 -1288 c42 -22 106 -99 119 -144 34 -112 -14 -230 -115 -284 -68 -37
-121 -43 -188 -23 -152 44 -222 227 -139 361 65 107 212 147 323 90z"/>
<path d="M304 1850 c-47 -19 -69 -93 -43 -142 14 -26 67 -48 102 -41 36 7 77
57 77 94 0 59 -81 113 -136 89z"/>
<path d="M1874 1851 c-32 -14 -64 -60 -64 -92 0 -35 42 -85 77 -92 35 -7 88
15 102 41 18 35 13 89 -11 116 -25 29 -72 40 -104 27z"/>
<path d="M1133 575 c-38 -16 -53 -42 -53 -90 0 -93 133 -127 175 -44 22 42 18
75 -12 108 -34 36 -68 44 -110 26z"/>
</g>
</svg>
