<svg xmlns="http://www.w3.org/2000/svg" xmlns:xlink="http://www.w3.org/1999/xlink" version="1.1" x="0px" y="0px" viewBox="0 0 100 125" style="enable-background:new 0 0 100 100;" xml:space="preserve">
	<path d="M80.9,20.9c2.4-0.2,3.7-0.5,3.7-0.8c0-0.9-15.1-1.7-33.9-1.7c0.2-0.7,0.3-1.6,0.3-2.6c0-2.5-0.8-4.4-1.7-4.4s-1.7,2-1.7,4.4  c0,1,0.1,1.9,0.3,2.6C29,18.5,14,19.2,14,20.2c0,0.3,1.3,0.5,3.7,0.8L5,57.5c14.9,22.2,27.8,0,27.8,0L18.7,21  c5.9,0.5,16.6,0.8,29.1,0.9c-1,5.9-1.6,17.2-1.6,30.1c0,10.1,0.4,19.2,1,25.5c-0.7,0.9-1.1,2.3-1.1,3.9c0,0.2,0,0.4,0,0.7  C37.5,82.2,31,83.6,31,85.2c0,1.9,8.2,3.4,18.3,3.4s18.3-1.5,18.3-3.4c0-1.7-6.5-3-15.1-3.3c0-0.2,0-0.4,0-0.7  c0-1.5-0.4-2.9-1.1-3.9c0.6-6.3,1-15.4,1-25.5c0-13-0.6-24.2-1.6-30.1c12.4,0,23.2-0.4,29.1-0.9L67.2,57.5c14.9,22.2,27.8,0,27.8,0  L80.9,20.9z M6.4,57.6l11.9-34.5l13.3,34.5H6.4z M68.6,57.6l11.9-34.5l13.3,34.5H68.6z" />
</svg>
