<svg id="Layer_1" data-name="Layer 1" xmlns="http://www.w3.org/2000/svg" viewBox="0 0 500 500"><defs><style>.cls-1{fill:#231f20;}</style></defs><title>Location Settings</title><path class="cls-1" d="M296.06,212.31c-.08,12.28-3.91,24.52-7.86,36-4.77,13.94-10.58,27.52-16.71,40.91-5.44,11.9-11.21,23.65-16.93,35.42-1,2.09-2,4.18-3,6.29-.23.49-.88,2.63-1.35,2.84s-.45-.67-.79-1.41c-2.1-4.54-4.26-9.05-6.42-13.56-12.07-25.27-24.4-50.71-33-77.43-3.45-10.8-6.82-22.33-5.73-33.8a46,46,0,0,1,91.79,4.71c.05,5.23,8.17,5.25,8.13,0a54.13,54.13,0,0,0-102.57-24.18c-6.54,13.27-6.61,27.34-3.36,41.46,3.38,14.64,8.88,28.79,14.63,42.63,6,14.47,12.58,28.69,19.3,42.84,2.67,5.62,5.37,11.23,8,16.86,1.08,2.29,2,5,3.5,7.06a8.05,8.05,0,0,0,10.16,2.25c2.81-1.54,3.84-4.46,5.15-7.19,1.18-2.46,2.38-4.92,3.58-7.38,3-6.15,6-12.3,8.95-18.47,7-14.62,13.72-29.38,19.62-44.47,5.41-13.85,10.44-28.18,12.38-43a67.88,67.88,0,0,0,.63-8.43C304.22,207.08,296.09,207.08,296.06,212.31Z"/><path class="cls-1" d="M275.62,214.1c-.18,10.63-6.72,20.49-16.9,24.06a25.58,25.58,0,1,1,16.9-24.06c.06,4.08,6.41,4.1,6.35,0a31.92,31.92,0,1,0-25.5,31.26c14.84-2.91,25.26-16.37,25.5-31.26C282,210,275.68,210,275.62,214.1Z"/></svg>