<svg id="Layer_1" data-name="Layer 1" xmlns="http://www.w3.org/2000/svg" viewBox="0 0 500 500"><defs><style>.cls-1{fill:#231f20;}</style></defs><title>Proovely Notifications</title><path d="M321.62,199.37V281a3.64,3.64,0,0,0,0,.66c.08.39,2.71-2.65,2.69-2.65a6.48,6.48,0,0,0-1.46,0h-102c-.53,0-1.07,0-1.6,0a6,6,0,0,0-4.13,2l-10.18,10.18c-3.09,3.09-6.38,6.07-9.32,9.31-.08.09-.18.16-.26.26h0l2.67-.7,2,2.64s0-.1,0-.14a11.36,11.36,0,0,0,0-2V285.05c0-.42,0-.85,0-1.27a4.89,4.89,0,0,0-4.94-4.75c-4.73-.16-9.49,0-14.23,0a44.85,44.85,0,0,0-5.68,0c-1.37.18,2.64,2.13,2.48,2.75a.4.4,0,0,1,0-.11,3.86,3.86,0,0,0,0-.68v-80.4c0-.31,0-.61,0-.91-.1-1.78,1.5,3-2.75,2.44a6.42,6.42,0,0,0,.76,0H323.71c2,0-1.64.16-1.95-1.75.32,2,2.81,3.12,4.61,2.62,2.13-.58,2.94-2.61,2.62-4.61-.58-3.61-3.95-3.76-6.72-3.76H175.41a5.28,5.28,0,0,0-3.77,1.3,5.53,5.53,0,0,0-1.5,4.38v80.79c0,2.41,1.14,4.8,3.75,5.3a27,27,0,0,0,5,.14h15.52c2.57,0-2.14-.53-1.91-2.67a17.57,17.57,0,0,0,0,1.92V301.5c0,.42,0,.85,0,1.27a4.81,4.81,0,0,0,8.11,3.36c2.7-2.45,5.19-5.19,7.76-7.76l11.24-11.23c.41-.41.85-.79,1.22-1.23.78-.9-2.33.54-1.68.62a13,13,0,0,0,1.53,0h89.07c4.85,0,9.76.23,14.61,0a5,5,0,0,0,4.75-5.27V199.37a3.75,3.75,0,0,0-7.5,0Z"/><path class="cls-1" d="M223.46,234.64a13.14,13.14,0,0,1-1,2.1,10.51,10.51,0,0,1-1.63,2,11,11,0,0,1-15.44,0,9.81,9.81,0,0,1-1.63-2,9.94,9.94,0,0,1-1-2.1,10.64,10.64,0,0,1-.64-3.71,11,11,0,0,1,21.68-2.79A11.14,11.14,0,0,1,223.46,234.64Z"/><path class="cls-1" d="M234.39,259.8v.3a3.13,3.13,0,0,1-3.13,3.21H194.89a3.13,3.13,0,0,1-3.13-3.21v-.3a18.22,18.22,0,0,1,12.91-17,12,12,0,0,0,16.81,0A18.21,18.21,0,0,1,234.39,259.8Z"/><path d="M254.44,228.63h52.34c3,0,3-4.68,0-4.68H254.44c-3,0-3,4.68,0,4.68Z"/><path d="M254.44,244h52.34c3,0,3-4.69,0-4.69H254.44c-3,0-3,4.69,0,4.69Z"/><path d="M254.44,259.27h52.34c3,0,3-4.69,0-4.69H254.44c-3,0-3,4.69,0,4.69Z"/></svg>