<svg id="Layer_1" data-name="Layer 1" xmlns="http://www.w3.org/2000/svg" viewBox="0 0 500 500"><path d="M393.3,377.77c-.11-3.35-.34-6.71-.69-10a113.7,113.7,0,0,0-3.75-19.25,96.68,96.68,0,0,0-18.73-35.26c-9.54-11.37-17.45-24.53-20-39.33a139.53,139.53,0,0,1-1.58-22.83c-.06-8.24.05-16.47.08-24.7.06-14,.39-28.19-2.33-42a92.6,92.6,0,0,0-33.22-55.59,116.19,116.19,0,0,0-14.61-10.11c-6.26-3.7-12.88-6.26-19.55-9.09a2.54,2.54,0,0,1-1.15-2.83c2.79-8.83,4.44-18.81.72-27.65-7-16.5-28.45-23.06-43.77-14.38-6.63,3.75-12.12,9.77-14.27,17.16-2.41,8.26-.82,17,1.69,25.06A2.55,2.55,0,0,1,220.4,110c-2.89,1.21-5.86,2.18-8.73,3.42A98.12,98.12,0,0,0,152.22,192a157.55,157.55,0,0,0-.84,19.79q0,12.54,0,25.07c0,14.73.52,29.57-3.48,43.9A80.41,80.41,0,0,1,140,299.51c-3.67,6.32-8.54,11.62-12.87,17.46A113.84,113.84,0,0,0,115,336.76a86.75,86.75,0,0,0-6.47,21.31,146.25,146.25,0,0,0-2,22.3c-.11,4.27-.43,9.83,3.86,12.29a13.79,13.79,0,0,0,6.69,1.43c4.09.05,8.19,0,12.29,0h75.35a2.56,2.56,0,0,1,2.5,2.5c1.13,9.39,3.38,19.34,9.58,26.78a37.49,37.49,0,0,0,10.35,8.57c5.42,3.05,11.47,4.73,17.21,7.06h5.55a30.12,30.12,0,0,0,5.54-.05,63.08,63.08,0,0,0,7.45-2.12A41.81,41.81,0,0,0,283.17,423a43.71,43.71,0,0,0,6.18-11.14c2-5.21,2.69-10.42,3.46-15.92a2.51,2.51,0,0,1,2.41-1.83h61.09l25.07,0c2.76,0,5.49.05,7.95-1.4a8.24,8.24,0,0,0,3.81-5.49C393.82,384.22,393.41,380.8,393.3,377.77ZM237,87.43a14.07,14.07,0,0,1,12.43-9.19l.34,0h.38a13.68,13.68,0,0,1,6.9,25.37A13.69,13.69,0,0,1,237,87.43Zm31.83,325.33a24.79,24.79,0,0,1-43.7-15.93,2.53,2.53,0,0,1,2.5-2.5h44.59a2.36,2.36,0,0,1,1.65.61l0,0a2.25,2.25,0,0,1,.82,1.86A25.17,25.17,0,0,1,268.84,412.76Zm106.82-37.24-.23.27a2.14,2.14,0,0,1-1.06.6,2.41,2.41,0,0,1-.67.09H126.8a2.52,2.52,0,0,1-2.5-2.5c.65-5.52,1.07-11.1,2.23-16.55a72.94,72.94,0,0,1,13.08-28.09c3.17-4.28,6.65-8.32,9.8-12.62a108.64,108.64,0,0,0,8.82-13.93c5.14-9.85,8.05-21,9.44-31.94,1.52-12,1.2-24.15,1.21-36.2q0-9.24,0-18.46c0-5.49-.18-11,.2-16.47a85,85,0,0,1,5.32-24.67A80.3,80.3,0,0,1,204.71,137a80.06,80.06,0,0,1,96.54,4.6,79.37,79.37,0,0,1,27.39,43.2c2.65,11.4,2.42,23.22,2.5,34.85.09,12.31.07,24.63.41,36.93a169.28,169.28,0,0,0,1,17A89.36,89.36,0,0,0,349.11,315c6.13,8.47,13.41,16,18.22,25.41,5.25,10.22,6.54,21.77,8.79,32.9A2.77,2.77,0,0,1,375.66,375.52Z"/><path d="M188,94.23c-2.1,1.89-4.84,3.18-7.19,4.75s-4.8,3.31-7.12,5.08A127.12,127.12,0,0,0,124.08,198c-.09,1.73-.15,3.48-.18,5.22a12.51,12.51,0,0,1-.56,4,8.63,8.63,0,0,1-4.2,4.75,8.82,8.82,0,0,1-11.7-3.84c-1.37-2.58-.89-5.54-.87-8.35v0c1.36-21.35,6.27-42.62,16.07-61.74a140.6,140.6,0,0,1,40.13-47.51q6.82-5.19,14.13-9.69a10.6,10.6,0,0,1,6.87-1.92,8.5,8.5,0,0,1,5.7,3.3C192.44,86.16,191.57,91,188,94.23Z"/><path d="M393.46,200.09c-.1,2.83.23,5.79-1.22,8.36a8.81,8.81,0,0,1-4.6,4,8.67,8.67,0,0,1-10.55-4c-1.18-2.16-1.1-4.47-1.17-6.86q-.15-5.09-.67-10.14A125.48,125.48,0,0,0,337.81,114a129.13,129.13,0,0,0-12.3-10.48q-3.39-2.56-6.95-4.89c-2.13-1.4-4.58-2.57-6.49-4.26a10.26,10.26,0,0,1-3.31-5.21,7.81,7.81,0,0,1,.55-5.2,9.8,9.8,0,0,1,4.87-4.59,8.64,8.64,0,0,1,7.16.54,71.79,71.79,0,0,1,7.2,4.4c2.31,1.52,4.59,3.1,6.82,4.74A141,141,0,0,1,347.6,99.17a138.56,138.56,0,0,1,20.82,24.21,145.74,145.74,0,0,1,24.38,67C393.12,193.62,393.33,196.85,393.46,200.09Z"/></svg>