<svg id="Layer_1" data-name="Layer 1" xmlns="http://www.w3.org/2000/svg" viewBox="0 0 500 500"><defs><style>.cls-1{fill:#231f20;stroke:#231f20;stroke-miterlimit:10;stroke-width:1.01px;}</style></defs><title>hypershapes icon</title><path class="cls-1" d="M304.52,279H241.84a22.38,22.38,0,0,1-21.78-17.62l-14.73-69H185.75a3.48,3.48,0,1,1,0-6.95h22.39a3.47,3.47,0,0,1,3.4,2.75L226.86,260a15.4,15.4,0,0,0,15,12.12h62.68a3.48,3.48,0,0,1,0,6.95Z"/><path class="cls-1" d="M300.57,256.64h-79a3.47,3.47,0,0,1-3.4-2.77l-9-43.63a3.43,3.43,0,0,1,.71-2.89,3.48,3.48,0,0,1,2.69-1.29H314.25a3.49,3.49,0,0,1,3.39,4.24l-8.87,39.77A8.35,8.35,0,0,1,300.57,256.64Zm-76.19-6.95h76.19a1.44,1.44,0,0,0,1.41-1.13L309.91,213h-93.1Z"/><path class="cls-1" d="M236.25,314.56a18,18,0,1,1,18-17.95A18,18,0,0,1,236.25,314.56Zm0-29a11,11,0,1,0,11,11A11,11,0,0,0,236.25,285.6Z"/><path class="cls-1" d="M295.2,314.56a18,18,0,1,1,18-17.95A18,18,0,0,1,295.2,314.56Zm0-29a11,11,0,1,0,11,11A11,11,0,0,0,295.2,285.6Z"/></svg>