<svg id="Layer_1" data-name="Layer 1" xmlns="http://www.w3.org/2000/svg" viewBox="0 0 500 500"><defs><style>.cls-1{fill:#231f20;}</style></defs><title>hypershapes icon</title><path class="cls-1" d="M329.06,291.38V319.8a3.78,3.78,0,0,1-3.67,1.71q-75.42,0-150.84,0c-2.81,0-3.61-.79-3.61-3.56V182.07c0-2.77.8-3.56,3.61-3.56q75.42,0,150.84,0c1.55,0,2.83.32,3.67,1.71V291.38Zm-5-10.95V203.81h-148V316.35H324v-1.68c0-7.26,0-14.51,0-21.77Zm-49.56-81.8h49.36V183.69H274.48l-5.2,0h-93.2v15h98.4Z"/><path class="cls-1" d="M285.52,188.5a2.64,2.64,0,0,1,2.64,2.65,2.67,2.67,0,0,1-5.34-.05A2.68,2.68,0,0,1,285.52,188.5Z"/><path class="cls-1" d="M299.28,193.78a2.71,2.71,0,0,1-2.65-2.66,2.64,2.64,0,0,1,2.66-2.62,2.58,2.58,0,0,1,2.63,2.63A2.65,2.65,0,0,1,299.28,193.78Z"/><path class="cls-1" d="M313.16,193.78a2.66,2.66,0,0,1-2.71-2.58,2.58,2.58,0,0,1,2.56-2.7,2.65,2.65,0,0,1,2.74,2.55A2.74,2.74,0,0,1,313.16,193.78Z"/><path class="cls-1" d="M272,299h-43.4a4.34,4.34,0,0,1-3.48-1.27,4,4,0,0,1,1.14-6.21,5.75,5.75,0,0,1,2.7-.41H270.8a7.44,7.44,0,0,1,2.5.22A3.94,3.94,0,0,1,272,299c-3.21.08-3.22,5.08,0,5a8.94,8.94,0,0,0,3.25-17.26c-2.57-1-5.88-.63-8.6-.63h-30.2c-2.77,0-5.55,0-8.32,0a9.14,9.14,0,0,0-7.89,4.53,9,9,0,0,0,1.8,11.06c2.94,2.56,6.39,2.3,10,2.3H245.9c8.53,0,17.07.12,25.6,0H272C275.21,304,275.22,299,272,299Z"/><path class="cls-1" d="M277.68,257.1V228.57a1.75,1.75,0,0,0-.21-.85,1,1,0,0,0-.12-.16,1.64,1.64,0,0,0-.43-.44c-.07,0-.09-.11-.16-.15l-25.4-14.22a1.91,1.91,0,0,0-1.88,0l-26.25,15.68c-.06,0-.08.1-.14.14a1.58,1.58,0,0,0-.52.54l0,0a1.75,1.75,0,0,0-.24.89v26.23c0,1.36-.21,2.51.92,3.49a21.79,21.79,0,0,0,2.42,1.57l13.06,8.44,10.35,6.68c.05,0,.12,0,.18.05l.19.05a1.77,1.77,0,0,0,1.2,0h0a1.19,1.19,0,0,0,.27-.07l23.17-14.09a20.45,20.45,0,0,0,2.66-1.61C277.93,259.76,277.68,258.48,277.68,257.1Zm-27.23-40.6,9.78,5.47-21.56,14.7L227.77,230Zm-2.33,54.73v.18L226,257.14V233.33l22.1,13.42Zm1.81-27.72-8.47-5.15,21.67-14.77,9.14,5.12Zm24,14.58-22.14,13.46V246.7L274,232Z"/></svg>