<svg id="Layer_1" data-name="Layer 1" xmlns="http://www.w3.org/2000/svg" viewBox="0 0 500 500"><defs><style>.cls-1{fill:#231f20;}</style></defs><path class="cls-1" d="M244.82,351.26l8.31,16.84,5.45,11c1,2,1.76,4.34,3.53,5.71s4.28,1.39,6.49,1.72l12.18,1.77,18.59,2.7-2.65-10-13.45,13.11-8.81,8.59c-1.69,1.64-4.11,3.42-4.76,5.79-.61,2.2.37,5.39.76,7.61l2.08,12.14,3.17,18.51,8.82-6.78-16.63-8.74L257,425.52c-2-1.07-4.62-2.91-7-2.91s-5,1.84-7,2.91l-10.9,5.73L215.47,440l8.82,6.78,3.17-18.51,2.08-12.14c.39-2.23,1.37-5.4.76-7.61s-3.08-4.15-4.76-5.79l-8.81-8.59L203.28,381l-2.65,10,18.59-2.7,12.18-1.77c2.21-.32,4.66-.31,6.49-1.72s2.56-3.75,3.53-5.71l5.45-11,8.31-16.84c3.41-6.9-6.94-13-10.36-6.05l-15.75,31.91,3.59-2.76-35.22,5.12c-4.59.66-5.59,7.16-2.65,10l25.49,24.84-1.55-5.83-6,35.07c-.88,5.13,3.92,9.35,8.81,6.77L253,433.8H247l31.5,16.55c4.91,2.59,9.69-1.65,8.81-6.77l-6-35.07-1.55,5.83,25.49-24.84c2.94-2.86,1.94-9.36-2.65-10l-35.22-5.12,3.59,2.76-15.75-31.91C251.76,338.28,241.41,344.35,244.82,351.26Z"/><path class="cls-1" d="M379.36,351.26l8.32,16.84,5.45,11c1,2,1.75,4.34,3.53,5.71s4.27,1.39,6.48,1.72l12.19,1.77,18.59,2.7-2.65-10-13.45,13.11L409,402.72c-1.68,1.64-4.11,3.42-4.76,5.79-.61,2.2.38,5.39.76,7.61l2.08,12.14,3.18,18.51,8.81-6.78-16.62-8.74-10.9-5.73c-2.05-1.07-4.63-2.91-7-2.91s-5,1.84-7,2.91l-10.9,5.73L350,440l8.81,6.78L362,428.26l2.08-12.14c.38-2.23,1.37-5.4.76-7.61s-3.08-4.15-4.76-5.79l-8.82-8.59L337.82,381l-2.64,10,18.58-2.7L366,386.58c2.2-.32,4.65-.31,6.48-1.72s2.57-3.75,3.54-5.71l5.44-11,8.32-16.84c3.4-6.9-6.94-13-10.37-6.05l-15.74,31.91,3.58-2.76L332,379.48c-4.59.66-5.59,7.16-2.65,10l25.48,24.84-1.54-5.83-6,35.07c-.88,5.13,3.93,9.35,8.82,6.77l31.49-16.55h-6.05L413,450.35c4.91,2.59,9.69-1.65,8.81-6.77l-6-35.07-1.54,5.83,25.48-24.84c2.94-2.86,1.95-9.36-2.64-10l-35.22-5.12,3.59,2.76-15.75-31.91C386.31,338.28,376,344.35,379.36,351.26Z"/><path class="cls-1" d="M110.27,351.26l8.32,16.84,5.44,11c1,2,1.76,4.34,3.54,5.71s4.27,1.39,6.48,1.72l12.19,1.77,18.58,2.7-2.64-10-13.45,13.11-8.82,8.59c-1.68,1.64-4.11,3.42-4.76,5.79-.61,2.2.38,5.39.76,7.61L138,428.26l3.18,18.51L150,440l-16.62-8.74-10.9-5.73c-2-1.07-4.63-2.91-7-2.91s-5,1.84-7,2.91l-10.9,5.73L80.93,440l8.81,6.78,3.18-18.51L95,416.12c.38-2.23,1.37-5.4.76-7.61s-3.08-4.15-4.76-5.79l-8.82-8.59L68.73,381l-2.65,10,18.59-2.7,12.19-1.77c2.2-.32,4.65-.31,6.48-1.72s2.57-3.75,3.53-5.71l5.45-11,8.32-16.84c3.4-6.9-7-13-10.37-6.05L94.52,377.12l3.59-2.76-35.22,5.12c-4.59.66-5.58,7.16-2.64,10l25.48,24.84-1.54-5.83-6,35.07c-.88,5.13,3.92,9.35,8.81,6.77l31.5-16.55h-6l31.49,16.55c4.91,2.59,9.7-1.65,8.82-6.77l-6-35.07-1.54,5.83,25.48-24.84c2.94-2.86,1.94-9.36-2.65-10l-35.21-5.12,3.58,2.76-15.74-31.91C117.22,338.28,106.86,344.35,110.27,351.26Z"/><path class="cls-1" d="M366.94,243.24V122.73a7.64,7.64,0,0,0-.89-3.61,6.92,6.92,0,0,0-.52-.69,6.78,6.78,0,0,0-1.83-1.83c-.26-.19-.35-.48-.64-.64L255.73,55.88a8,8,0,0,0-7.92,0l-110.9,66.23c-.26.15-.35.43-.58.61a6.71,6.71,0,0,0-2.21,2.28s-.06.07-.08.11a7.51,7.51,0,0,0-1,3.77V239.66c0,5.77-.88,10.63,3.88,14.79,3,2.57,6.93,4.47,10.21,6.59l55.2,35.66L246,324.93c.22.14.53.1.77.21a6.73,6.73,0,0,0,.77.21,7.51,7.51,0,0,0,5.1-.07l.13,0a6.81,6.81,0,0,0,1.14-.31l97.88-59.5c3.59-2.19,8-4.13,11.24-6.84C368,254.47,366.94,249.07,366.94,243.24ZM251.9,71.72l41.32,23.12-91.07,62.08-46.08-28ZM242,302.91v.79l-93.33-60.29V142.82L242,199.51Zm7.67-117.09-35.78-21.74,91.53-62.39,38.6,21.61Zm101.55,61.59-93.53,56.86v-105l93.53-62Z"/></svg>