<svg id="Layer_1" data-name="Layer 1" xmlns="http://www.w3.org/2000/svg" viewBox="0 0 500 500"><defs><style>.cls-1{fill:#231f20;stroke:#fff;stroke-miterlimit:10;stroke-width:2.01px;}</style></defs><title>hypershapes icon</title><path class="cls-1" d="M267.23,206.38H191.4c-4,0-6.63-2.68-6.21-6.34a5.49,5.49,0,0,1,4.43-4.77,10.61,10.61,0,0,1,1.95-.15H272c4.32,0,6.49,2.2,6.49,6.54V205h1.65c6,0,12,0,18,0a6.05,6.05,0,0,1,6,3.68q6.56,13.18,13.23,26.29a34.9,34.9,0,0,0,3.22,5c2.21,3,4.53,5.91,6.83,8.83a6.35,6.35,0,0,1,1.45,4.11c0,10.47,0,20.94,0,31.41,0,3.64-2.3,5.9-5.95,5.91-4.1,0-8.19,0-12.29,0a1.33,1.33,0,0,0-1.48,1.06,20.35,20.35,0,0,1-38.41,0,1.34,1.34,0,0,0-1.51-1q-13,0-26,0a1.25,1.25,0,0,0-1.4,1,20.37,20.37,0,0,1-19.17,13.68c-8.64.05-16-5.16-19.3-13.68a1.25,1.25,0,0,0-1.4-1c-3.63,0-7.26,0-10.89,0-3.43,0-5.89-2.32-5.93-5.52s2.44-5.66,5.92-5.68,7.16,0,10.75,0c.72,0,1.13-.11,1.42-.92,3.23-8.79,10.65-14.13,19.45-14a20.33,20.33,0,0,1,19.4,14.34c0,.18.14.34.25.61h1.22c8.47,0,16.94,0,25.4,0a1.47,1.47,0,0,0,1.69-1.16,20.37,20.37,0,0,1,38.56,0c.12.34.25.69.4,1.09h7.95c0-.46.06-.9.06-1.34,0-7.31,0-14.61,0-21.92a3.64,3.64,0,0,0-.67-2c-1.74-2.36-3.6-4.63-5.35-7a2.19,2.19,0,0,0-2-1q-17.94,0-35.88,0c-4.35,0-6.48-2.13-6.48-6.53V206.38Zm11.29,28.08h25.86c-.12-.33-.18-.54-.27-.74-2.8-5.56-5.58-11.14-8.43-16.67a2,2,0,0,0-1.51-.81c-3.81-.06-7.63,0-11.44,0h-4.21Zm-55.94,59.16a9.14,9.14,0,1,0-9.14-9.11A9.16,9.16,0,0,0,222.58,293.62Zm67.28,0a9.14,9.14,0,1,0-9.12-9.15A9.18,9.18,0,0,0,289.86,293.62Z"/><path class="cls-1" d="M205.92,215.35h20.49c3.54,0,6,2.27,6,5.52s-2.43,5.68-6,5.68q-20.7,0-41.41,0a5.6,5.6,0,0,1-1.65-11,8.4,8.4,0,0,1,2.07-.18C192.25,215.34,199.08,215.35,205.92,215.35Z"/><path class="cls-1" d="M197.82,245.92c-7,0-14,0-20.94,0a5.52,5.52,0,0,1-5.38-3.7,5.26,5.26,0,0,1,1.62-6.05,7.12,7.12,0,0,1,3.8-1.41c13.91-.1,27.82-.08,41.73-.05a5.61,5.61,0,1,1,0,11.21C211.68,245.94,204.75,245.92,197.82,245.92Z"/><path class="cls-1" d="M196.16,265.32c-3.67,0-7.34,0-11,0a5.62,5.62,0,1,1,0-11.22q11,0,22,0a5.62,5.62,0,1,1,0,11.22C203.51,265.33,199.83,265.32,196.16,265.32Z"/></svg>