<svg id="Layer_1" data-name="Layer 1" xmlns="http://www.w3.org/2000/svg" viewBox="0 0 500 500"><defs><style>.cls-1{fill:#231f20;}</style></defs><title>hypershapes icon</title><path class="cls-1" d="M325.47,298.53H178.61a23.8,23.8,0,0,0-4,0h-.1c.62-.37,1.66,1,1.79,1.41s0,.61,0,.21c.05-.68,0-1.38,0-2.07v-97.7a4.7,4.7,0,0,0,0-.65s0-.08,0-.11c.24.65-1.23,2.35-1.86,1.85.11.09.66,0,.8,0H324.09a6.74,6.74,0,0,0,1.27,0h.1c-.63.21-2.34-1.17-1.85-1.86a.88.88,0,0,0,0,.28c-.11,2,0,4.1,0,6.13v93.6a4.42,4.42,0,0,0,0,.63s0,.1,0,.12c-.48-.79,1.2-1.79,1.86-1.84a4.1,4.1,0,0,0-4,4c.09,2.05,1.78,4.19,4,4a6.41,6.41,0,0,0,6.2-6.56c0-.78,0-1.55,0-2.33V218.81c0-6.3.11-12.62,0-18.92a6.38,6.38,0,0,0-6.2-6.48H175.23a11.53,11.53,0,0,0-1.55.1,6.31,6.31,0,0,0-5.35,6.49c0,2.21,0,4.41,0,6.62V298c0,.7,0,1.41,0,2.11a6.36,6.36,0,0,0,6.21,6.44c1.07,0,2.16,0,3.23,0h147.7a4,4,0,0,0,0-8.06Z"/><path class="cls-1" d="M327.64,240.28h-149c-2,0-4-.1-6,0h-.26l4,4V215.55l-4,4h149c2,0,4,.1,6,0h.26l-4-4V244.3a4,4,0,0,0,8.06,0V215.55a4.09,4.09,0,0,0-4-4H191.42c-6.26,0-12.54-.17-18.8,0h-.26a4.08,4.08,0,0,0-4,4V244.3a4.09,4.09,0,0,0,4,4H308.58c6.26,0,12.54.17,18.8,0h.26a4,4,0,1,0,0-8.05Z"/><path class="cls-1" d="M222.7,278.8h-42a.54.54,0,0,1-.58-.5V268.06a.54.54,0,0,1,.58-.5h42a.54.54,0,0,1,.58.5V278.3A.54.54,0,0,1,222.7,278.8Z"/><path class="cls-1" d="M282,278.8H240a.53.53,0,0,1-.57-.5V268.06a.53.53,0,0,1,.57-.5h42a.54.54,0,0,1,.57.5V278.3A.54.54,0,0,1,282,278.8Z"/></svg>