<svg id="Layer_1" data-name="Layer 1" xmlns="http://www.w3.org/2000/svg" viewBox="0 0 500 500"><defs><style>.cls-1{stroke:#fff;stroke-miterlimit:10;stroke-width:3.5px;}</style></defs><title>hypershapes icon</title><path class="cls-1" d="M191.66,210.71q0-11.76,7.64-19.09t20-7.34q12.56,0,20.2,7.24t7.64,19.63v6.32q0,11.85-7.64,19.05t-20,7.2q-12.48,0-20.14-7.25c-5.13-4.81-7.69-11.34-7.69-19.53Zm16.85,6.76a11.87,11.87,0,0,0,3,8.47,10.46,10.46,0,0,0,8,3.21,9.93,9.93,0,0,0,7.81-3.25,12.55,12.55,0,0,0,2.9-8.69v-6.5a12.3,12.3,0,0,0-2.9-8.52,11.26,11.26,0,0,0-15.8,0q-3,3.19-3,8.9Zm16,86.92-12.38-6.67,62.43-99.92,12.38,6.68Zm28.28-21.77q0-11.85,7.72-19.11t20-7.23q12.48,0,20.16,7.16t7.67,19.7v6.33q0,11.76-7.55,19t-20.1,7.25q-12.65,0-20.29-7.29t-7.63-19.32Zm16.85,6.85a11.75,11.75,0,0,0,3.16,8.25,10.33,10.33,0,0,0,7.91,3.42q10.69,0,10.71-11.85v-6.67a11.88,11.88,0,0,0-3-8.47,11.33,11.33,0,0,0-15.8,0c-2,2.13-3,5-3,8.73Z"/></svg>