<svg id="Layer_1" data-name="Layer 1" xmlns="http://www.w3.org/2000/svg" viewBox="0 0 500 500"><defs><style>.cls-1{fill:#231f20;}</style></defs><title>User settings</title><path class="cls-1" d="M250,228.43a35.3,35.3,0,1,1,35.3-35.31A35.35,35.35,0,0,1,250,228.43Zm0-59a23.74,23.74,0,1,0,23.74,23.73A23.77,23.77,0,0,0,250,169.39Z"/><polygon class="cls-1" points="277.36 342.17 266.43 342.17 266.43 302.91 284.26 302.91 284.26 246.39 215.74 246.39 215.74 302.91 233.58 302.91 233.58 342.17 222.65 342.17 222.65 311.92 204.81 311.92 204.81 237.38 295.19 237.38 295.19 311.92 277.36 311.92 277.36 342.17"/></svg>