<svg id="Layer_1" data-name="Layer 1" xmlns="http://www.w3.org/2000/svg" viewBox="0 0 280 280"><defs><style>.cls-1{fill:#808285;stroke:#808285;stroke-miterlimit:10;stroke-width:2px;}</style></defs><title>Artboard 49 copy 19</title><path class="cls-1" d="M137.07,265c-3.07-1.23-6.43-2-9.15-3.77a20.66,20.66,0,0,1-9.77-20c.66-8.25,5.06-14.23,12.47-18,.64-.32,1.3-.62,2-1V205.21a66.28,66.28,0,0,1-33.53-13.94c-3.79,3.81-7.61,7.56-11.28,11.44-.38.4-.11,1.64.15,2.38,4.21,11.92-1.81,24.41-13.68,28.27a21.93,21.93,0,0,1-24.39-33.93A21.39,21.39,0,0,1,74.47,192c2,.73,3,.3,4.33-1.08,3.19-3.35,6.52-6.57,9.91-10a66.18,66.18,0,0,1-13.89-33.46H57.69c-5.32,12.66-17.08,16.1-26,13.86a22,22,0,0,1,.2-42.72c9.13-2.16,20.61,1.56,25.77,13.94H74.82A66,66,0,0,1,88.71,99.11c-3.77-3.78-7.5-7.59-11.36-11.27-.4-.38-1.63-.17-2.36.1C64.91,91.59,54.36,88,48.83,79a22,22,0,0,1,30.63-30A21.41,21.41,0,0,1,88,74.55c-.71,1.94-.26,2.89,1,4.13C92.4,82,95.66,85.36,99,88.76a66.28,66.28,0,0,1,33.66-14c0-3.48-.22-7,.06-10.4.34-4.3-.46-7.06-4.87-9.53C119.23,50.05,116,39.31,119.18,30a21.95,21.95,0,0,1,42.3,2.5,21.6,21.6,0,0,1-11.72,24c-1.9.91-2.58,1.86-2.5,4,.19,4.71.06,9.42.06,14.37a66,66,0,0,1,33.59,13.93c3.74-3.74,7.52-7.43,11.13-11.27.43-.45.26-1.77,0-2.56a21.84,21.84,0,0,1,39.29-18.66,22.06,22.06,0,0,1-1.79,25.13,21.15,21.15,0,0,1-24,6.7,3.4,3.4,0,0,0-4.33,1c-3.2,3.35-6.57,6.54-10,9.93a66.09,66.09,0,0,1,13.92,33.52h16.38c2.67-3.35,4.67-6.84,7.55-9.3,12.39-10.6,31.45-4.14,35.32,11.75.17.71.38,1.4.58,2.1v5.86c-.2.7-.41,1.39-.58,2.1a22,22,0,0,1-29.79,15.24,22.22,22.22,0,0,1-12.22-12.79H205.82c-1.81,6.1-3.09,12.1-5.4,17.67s-5.65,10.68-8.71,16.3c3,3,6.43,6.24,9.68,9.65a3.09,3.09,0,0,0,3.93.93A21.42,21.42,0,0,1,230,199.26a21.94,21.94,0,0,1-24.52,34A21.69,21.69,0,0,1,192,205.07c.26-.74.52-2,.14-2.37-3.69-3.87-7.51-7.6-11.32-11.39a66.09,66.09,0,0,1-33.48,13.9v17.11l2.21,1.07a21.81,21.81,0,0,1,12.33,21,22,22,0,0,1-14.58,19.3c-1.44.51-2.94.86-4.41,1.29ZM108.6,180.32c7.23-11.77,17.39-18.38,31.21-18.3s24.27,6.3,31.93,18.34c3-3.22,6-6.35,9-9.42a2.07,2.07,0,0,0,0-3.35c-3.83-3.72-7.55-7.57-11.57-11.06-2.1-1.82-4.76-3-7.17-4.47,12.14-14.79,7.7-32.08-2.39-41.15a29.35,29.35,0,0,0-38.43-.6c-10.07,8.51-15.8,26.11-2.88,42-8.69,3.43-14.85,9.72-20.09,17.35,1.72,2,3.31,3.9,5.07,5.7S106.67,178.57,108.6,180.32Z"/><path class="cls-1" d="M108.6,180.32c-1.93-1.75-3.75-3.25-5.39-4.92s-3.35-3.75-5.07-5.7c5.24-7.63,11.4-13.92,20.09-17.35-12.92-15.93-7.19-33.53,2.88-42a29.35,29.35,0,0,1,38.43.6c10.09,9.07,14.53,26.36,2.39,41.15,2.41,1.47,5.07,2.65,7.17,4.47,4,3.49,7.74,7.34,11.57,11.06a2.07,2.07,0,0,1,0,3.35c-3,3.07-5.91,6.2-9,9.42-7.66-12-18.15-18.26-31.93-18.34S115.83,168.55,108.6,180.32Z"/></svg>