<svg id="Layer_1" data-name="Layer 1" xmlns="http://www.w3.org/2000/svg" viewBox="0 0 280 280"><defs><style>.cls-1{fill:#808285;stroke:#808285;stroke-miterlimit:10;stroke-width:2px;}</style></defs><title>Artboard 49 copy 17</title><path class="cls-1" d="M15,210.76c1-4,2.32-7.77,5.23-10.82a19.56,19.56,0,0,1,14.33-6.28c2.42,0,4.84,0,7.59,0,0-2.88,0-5.54,0-8.21.22-17.08,8-29.44,23.33-37C71,145.78,76.94,145,83,145h51.07V111.06c-1,0-2,0-2.93,0-7.07-.11-14.16,0-21.21-.4-8.68-.55-16.37-8.47-16.76-17.21-.34-7.55-.2-15.12-.2-22.69,0-9.35-.16-18.72.17-28.06a18.71,18.71,0,0,1,18-17.89c10.4-.33,20.82-.16,31.23-.17,9.69,0,19.37-.2,29,.12C182,25.11,190,33,190.17,43.69c.27,16.1.3,32.22,0,48.32-.22,11.23-8.85,18.92-20.55,19-5.94.06-11.88,0-17.82,0H149V145h3c15.21,0,30.43-.14,45.64,0,17,.2,29.5,7.92,37,23.31a37,37,0,0,1,3.5,16.56c0,2.83,0,5.66,0,8.78,2.3,0,4.39,0,6.48,0,11.93.11,20.27,8.38,20.31,20.3,0,8.21.29,16.46-.4,24.62a18.35,18.35,0,0,1-17.87,16.58c-10.73.29-21.48.31-32.21,0a18.71,18.71,0,0,1-18.2-17.93c-.39-8.44-.38-16.93,0-25.37.43-9.95,8.37-17.55,18.36-18.13,2.82-.16,5.67,0,8.48,0,2.34-15.69-2.91-29.09-19-33.4a23,23,0,0,0-5.8-.67c-15.78,0-31.57,0-47.35,0-.55,0-1.11.08-1.82.13v33.9c2.26,0,4.44,0,6.61,0,11.24.1,19.45,7.11,20.16,18.31a204.87,204.87,0,0,1-.23,26.8c-.59,8.68-8.61,16.11-17.31,16.35-11.05.31-22.13.32-33.18,0a18.65,18.65,0,0,1-17.71-17.35c-.4-8.85-.41-17.74,0-26.59.44-9.41,8.53-16.87,18.21-17.45,2.74-.17,5.5,0,8.42,0V159.77c-.67-.06-1.3-.16-1.93-.16-16.59,0-33.19-.06-49.79,0-12.66,0-22.95,8.23-25,20.33-.73,4.33-.12,8.89-.12,13.69H63c12.6,0,20.82,8.2,20.87,20.73,0,6.91,0,13.83,0,20.74-.1,11.49-7.82,19.79-19.17,20.11-10.16.29-20.34.25-30.5,0-9.69-.24-16.63-6.3-18.78-15.75-.11-.46-.27-.91-.41-1.37Z"/><rect class="cls-1" x="92.89" y="24.58" width="97.78" height="86.71" rx="10"/></svg>