<svg id="Layer_1" data-name="Layer 1" xmlns="http://www.w3.org/2000/svg" viewBox="0 0 500 500"><defs><style>.cls-1{fill:#808285;}</style></defs><title>hypershapes icon</title><path class="cls-1" d="M244.88,291.58v-7c-7.33-.1-14.79-2-19.47-4.56a.8.8,0,0,1-.33-1l2.54-6a.8.8,0,0,1,1.11-.39A40.66,40.66,0,0,0,246.87,277c9.37,0,15.72-4.57,15.72-10.93,0-6.14-5.16-9.93-14.94-13.28-13.47-4.47-21.8-9.71-21.8-19.41,0-9.27,7.79-16.29,19.82-18v-7a4.17,4.17,0,0,1,4.17-4.17h0a4.17,4.17,0,0,1,4.16,4.17v6.66a42,42,0,0,1,16,3.37,1.26,1.26,0,0,1,.65,1.66l-2.28,5.08a1.24,1.24,0,0,1-1.65.62,35.75,35.75,0,0,0-15.52-3.37c-10.17,0-14,5.13-14,9.71,0,5.69,4.88,8.59,16.38,12.72,13.61,4.68,20.48,10.38,20.48,20.31,0,8.92-7.26,17.18-20.88,19v7.43a4.17,4.17,0,0,1-4.16,4.17h0A4.17,4.17,0,0,1,244.88,291.58Z"/><path class="cls-1" d="M312.34,203.17c-1.94-2.62-6.37-.07-4.42,2.58,16.56,22.44,19.29,53,6.21,77.73a72.91,72.91,0,0,1-100.72,29.4l2.71-.52,4-.76a9.49,9.49,0,0,0,2.23-.51,2.55,2.55,0,0,0,1.43-2.59,1.41,1.41,0,0,0,0-.28,1.72,1.72,0,0,0-.07-.21,2.59,2.59,0,0,0-2.84-1.74l-.52.1-2.79.53-8.39,1.59-2.67.51a2.63,2.63,0,0,0-2.23,3.22c.41,1.77.94,3.52,1.41,5.27.7,2.62,1.39,5.24,2.09,7.85a6.26,6.26,0,0,0,.67,2,2.55,2.55,0,0,0,4.58-2.1c-.46-2-1.07-4-1.6-6l-.49-1.85A78,78,0,0,0,312.34,203.17Z"/><path class="cls-1" d="M244.18,176.77a73.73,73.73,0,0,1,43.33,10.49l-2.76.44-4.05.65a9.69,9.69,0,0,0-2.08.4,2.53,2.53,0,0,0-1.6,2.61,1.37,1.37,0,0,0,0,.28.86.86,0,0,0,.07.21,2.55,2.55,0,0,0,2.67,1.81c.22,0,.44-.06.66-.1l2.76-.44,8.47-1.36,2.67-.43a2.62,2.62,0,0,0,2.3-3.18c-.37-1.78-.84-3.55-1.26-5.32q-.92-3.92-1.85-7.84a6.07,6.07,0,0,0-.65-2.05,2.56,2.56,0,0,0-4.6,2.05c.42,2,1,4.07,1.44,6.11l.42,1.77A78,78,0,0,0,186.78,295.92c1.93,2.61,6.37.07,4.41-2.58-16.76-22.69-19.34-53.63-5.83-78.51A73.47,73.47,0,0,1,244.18,176.77Z"/></svg>