<svg id="Layer_1" data-name="Layer 1" xmlns="http://www.w3.org/2000/svg" viewBox="0 0 500 500"><defs><style>.cls-1{fill:#231f20;}</style></defs><title>hypershapes icon</title><path class="cls-1" d="M269,217.36l24.44-24.44c4.44-4.44,8.82-8.5,15.71-8,10.79.81,17.58,12.77,12.77,22.47-1.6,3.21-4.52,5.67-7,8.17l-12.73,12.73-30.39,30.4c-2.49,2.48-4.91,5.06-7.47,7.47-9.17,8.61-24.93,3.93-26.57-9.09-.83-6.61-11.32-6.69-10.48,0,1.69,13.39,12,24.16,26,24.16,8.1,0,14.7-3.89,20.24-9.43l31.22-31.23,15.89-15.88c3.11-3.11,6.62-6.16,9.08-9.83a26.06,26.06,0,0,0-38.73-34.14c-5.26,4.44-9.92,9.77-14.78,14.63L261.53,210c-4.77,4.77,2.64,12.19,7.42,7.41Z"/><path class="cls-1" d="M230.34,283.31l-24.28,24.28c-4.68,4.68-9.67,8.55-16.82,7.21a15.74,15.74,0,0,1-10.5-23.34c1.69-2.81,4.46-5.12,6.77-7.43l12.66-12.66L228.5,241c2.41-2.42,4.77-4.92,7.26-7.26,9.22-8.71,25-3.78,26.56,9.26.78,6.62,11.28,6.7,10.48,0-1.59-13.46-12-24.32-26-24.32-8,0-14.62,3.81-20.12,9.31L196,258.75l-16.1,16.1c-3,3-6.23,5.83-8.73,9.2a26,26,0,0,0,36.41,36.41c5.76-4.27,10.61-10.14,15.66-15.19l14.55-14.54c4.78-4.78-2.64-12.2-7.41-7.42Z"/></svg>