<svg id="Layer_1" data-name="Layer 1" xmlns="http://www.w3.org/2000/svg" viewBox="0 0 280 280"><defs><style>.cls-1{fill:#808285;stroke:#808285;stroke-miterlimit:10;stroke-width:2px;}</style></defs><title>Artboard 49 copy 31</title><path class="cls-1" d="M245.76,47.29H34.24A19.24,19.24,0,0,0,15,66.53V213.47a19.24,19.24,0,0,0,19.24,19.24H245.76A19.24,19.24,0,0,0,265,213.47V66.53A19.24,19.24,0,0,0,245.76,47.29ZM134.28,174a9.62,9.62,0,0,1-9.62,9.62H52.05A9.62,9.62,0,0,1,42.43,174V101.34a9.62,9.62,0,0,1,9.62-9.62h72.61a9.61,9.61,0,0,1,9.62,9.62Zm99-.45a7.34,7.34,0,0,1-7.34,7.34H162.09a7.34,7.34,0,0,1-7.34-7.34h0a7.34,7.34,0,0,1,7.34-7.34H226a7.34,7.34,0,0,1,7.34,7.34ZM226,145H162.09a7.34,7.34,0,0,1,0-14.68H226A7.34,7.34,0,1,1,226,145Zm7.34-43.19a7.34,7.34,0,0,1-7.34,7.34H162.09a7.34,7.34,0,0,1-7.34-7.34h0a7.34,7.34,0,0,1,7.34-7.34H226a7.34,7.34,0,0,1,7.34,7.34Z"/></svg>