<?xml version="1.0" encoding="utf-8"?>
<!-- Generator: Adobe Illustrator 25.0.0, SVG Export Plug-In . SVG Version: 6.00 Build 0)  -->
<svg version="1.1" id="Layer_1" xmlns="http://www.w3.org/2000/svg" xmlns:xlink="http://www.w3.org/1999/xlink" x="0px" y="0px"
	 viewBox="0 0 504.2 141.6" style="enable-background:new 0 0 504.2 141.6;" xml:space="preserve">
<style type="text/css">
	.st0{fill:#0048FB;}
</style>
<path d="M131.6,31.4c-20.9,0-37,17.4-37.2,38.1c0.2,20.7,16.3,37.9,37.2,38.1c10.8,0,19.8-3.2,27.3-10.1c3.5-3.2,2-7.8,0-9.9
	c-2-2.4-8.2-2.9-11.4,0.5c-3.8,2.9-10.4,4.3-15.9,3.8c-5.3-0.5-11.4-3.2-14.6-6.9c-2.7-2.6-4.4-6.6-5.2-10.1h48.5
	c4.3,0,7.5-2.4,7.9-6.1c0.1-0.4,0.2-0.9,0.1-1.4v-0.8C167.1,46.1,151.4,31.4,131.6,31.4z M111,62c2.1-9.6,10.7-16.4,20.6-16.2
	c13.3,0.2,21,10.1,22.6,16.2H111z"/>
<path d="M369.9,26.9c-3.9-1.7-8.4,0.2-10.1,4c-0.1,0.1-0.1,0.2-0.1,0.4l-21,47.7l-9.4-22.1c-1.8-4.1-6.5-6.2-10.2-4.4
	c-4.3,1.8-6.2,6.2-4.4,10.4l16.6,39.8c0.1,0.5,0.3,0.9,0.6,1.1c0,0.2,0,0.2,0.2,0.2c0.3,0.3,0.6,0.7,0.8,1.1
	c0.1,0.2,0.1,0.2,0.3,0.2c0.3,0.3,0.6,0.6,0.9,0.9c0.1,0,0.2,0.1,0.2,0.1c0,0,0,0,0,0c0.4,0.3,0.9,0.5,1.4,0.8h0.3v0.2
	c0.4,0,0.8,0.1,1.2,0.3h0.3c0.4,0.1,0.9,0.2,1.4,0.2c0.5,0,1,0,1.5-0.2h0.3c0.4-0.2,0.8-0.3,1.2-0.3v-0.2h0.3
	c0.4-0.2,0.8-0.4,1.1-0.8c0-0.1,0.1-0.2,0.2-0.2l0,0c0.3-0.3,0.6-0.6,0.9-0.9c0.1,0,0.1-0.1,0.1-0.2c0.3-0.3,0.6-0.8,0.9-1.1
	c0.1,0,0.1-0.1,0.1-0.2c0.3-0.3,0.5-0.7,0.6-1.1l28.4-65.4C376.1,33.2,374.1,28.8,369.9,26.9z"/>
<circle class="st0" cx="313.1" cy="37.6" r="9.1"/>
<path d="M201,81.1V8.4c0-4.7-3.8-8.5-8.5-8.5c-4.7,0-8.5,3.8-8.5,8.5v73.1l0,0c0.1,8.8,3.8,17.1,10.2,23.1c3.5,3.1,8.8,2.9,11.9-0.6
	c3.1-3.4,2.9-8.6-0.4-11.8C202.7,89.3,201,85.3,201,81.1z"/>
<path d="M37.6,13c-0.3,0-0.6,0-0.9,0H8.5C3.8,13,0,16.8,0,21.5S3.8,30,8.5,30h27.2c16.6,0.3,29.8,14,29.5,30.6
	c-0.3,16.2-13.4,29.3-29.5,29.5H17V49.7c0-4.7-3.8-8.5-8.5-8.5S0,45,0,49.7v48.9c0,4.7,3.8,8.5,8.5,8.5h27.2c26,0,47.1-21,47.1-47
	C82.8,34.8,62.9,14.1,37.6,13L37.6,13z"/>
<path d="M282,31.4c-4.7,0-8.5,3.8-8.5,8.5v32.4c0,9.7-7.9,17.6-17.6,17.6c-9.7,0-17.6-7.9-17.6-17.6c0,0,0,0,0-0.1s0,0,0,0V39.8
	c0-4.7-3.8-8.5-8.5-8.5s-8.5,3.8-8.5,8.5v32.4c0,19.1,15.4,34.6,34.5,34.6c6.2,0,12.3-1.7,17.7-4.9v2.5c0,11.1-9,20.2-20.2,20.2
	c-6.1,0-11.9-2.8-15.7-7.6c-0.3-0.4-0.6-0.7-0.8-1.1c-2.7-3.8-8-4.7-11.8-2c-3.8,2.7-4.7,7.9-2.1,11.7c0.5,0.7,1,1.4,1.5,2.1
	c12.8,16,36.2,18.6,52.2,5.8c8.8-7,13.9-17.7,13.9-28.9V39.8C290.5,35.1,286.7,31.4,282,31.4z"/>
<path d="M443.5,31.6c-3.9,0-7.3,2.8-8.2,6.6c-5.7-4.3-12.7-6.6-19.9-6.6c-10.4,0-19.1,4.4-25.9,11.4c-6.6,7.1-10.3,16.5-10.4,26.3
	c-0.1,9.8,3.6,19.3,10.4,26.5c6.8,7.1,15.5,11.4,25.9,11.4c7.2,0,14.1-2.3,19.9-6.6c1,4.6,5.4,7.5,10,6.5c3.9-0.8,6.7-4.3,6.7-8.3
	V40C451.9,35.3,448.1,31.6,443.5,31.6z M435.1,69.4c0,12.1-8.9,22-19.8,22s-19.8-9.8-19.8-22s8.9-22,19.8-22S435.1,57.3,435.1,69.4z
	"/>
<path d="M485,38.8c-10.7,0.1-19.5-8.5-19.5-19.2C465.4,8.8,474,0.1,484.7,0s19.5,8.5,19.5,19.2c0,0.1,0,0.2,0,0.2
	c0.1,10.5-8.3,19.2-18.8,19.3C485.3,38.8,485.1,38.8,485,38.8z M485,3.1c-9,0-16.2,7.3-16.2,16.2S476,35.6,485,35.6
	c8.8,0.1,16-7,16.1-15.9c0-0.1,0-0.2,0-0.4C501.1,10.4,493.9,3.2,485,3.1z M490.7,28.6c-0.9,0-1.8-0.6-2.1-1.5l-3.6-6.2
	c-0.1-0.2-0.4-0.4-0.7-0.4h-1.7c-0.4,0-0.8,0.3-0.8,0.8c0,0,0,0,0,0v5c0.1,1.1-0.8,2-1.9,2.1c-1.1,0.1-2-0.8-2.1-1.9
	c0-0.1,0-0.2,0-0.2V11.9c-0.1-0.9,0.6-1.8,1.5-1.9c0.1,0,0.3,0,0.4,0h5.9c2.7,0,7.2,0.7,7.2,5.2c0,2.3-1.1,3.9-3.4,4.7
	c-0.2,0.1-0.4,0.3-0.5,0.5c-0.1,0.2,0,0.5,0.1,0.7l3,4.7c0.4,0.5,0.4,1.2,0.2,1.8c-0.3,0.5-0.8,0.8-1.3,0.9L490.7,28.6z M482.6,12.6
	c-0.4,0-0.8,0.3-0.8,0.8v4.2c0,0.4,0.3,0.8,0.8,0.8h2.6c3.4,0,3.7-2.1,3.7-3s-0.4-2.9-3.7-2.9L482.6,12.6z"/>
</svg>
