<svg id="Layer_1" data-name="Layer 1" xmlns="http://www.w3.org/2000/svg" viewBox="0 0 280 280"><defs><style>.cls-1{fill:#808285;stroke:#808285;stroke-miterlimit:10;stroke-width:2px;}</style></defs><title>Artboard 49 copy 21</title><path class="cls-1" d="M15,213.72V99a6.22,6.22,0,0,1,1.09.48q50.73,33.81,101.45,67.65c14.74,9.84,30,9.91,44.69.14q50.13-33.39,100.24-66.82c.71-.48,1.45-.92,2.48-1.58v2q0,54.68,0,109.34a24.86,24.86,0,0,1-.73,6c-2.7,10.72-11.77,17.42-23.52,17.42q-49.92,0-99.82,0-50.77,0-101.53,0c-6.63,0-12.46-1.95-17.32-6.56C18.13,223.44,16.2,218.77,15,213.72Z"/><path class="cls-1" d="M15,66.29c.4-1.39.75-2.8,1.21-4.18C19.41,52.64,28,46.53,38.35,46.38c4.79-.07,9.59,0,14.39,0q93.85,0,187.69,0c7.28,0,13.6,2.17,18.55,7.66,9.33,10.36,7.65,25.84-3.87,33.68C239.92,98,224.56,108.11,209.27,118.3l-54.58,36.4c-10.47,7-18.93,7-29.39,0-32.06-21.37-64.07-42.84-96.24-64C22.2,86.13,16.69,81,15,72.64Z"/></svg>