<svg id="Layer_1" data-name="Layer 1" xmlns="http://www.w3.org/2000/svg" viewBox="0 0 500 500"><defs><style>.cls-1{fill:#bfbfbf;stroke:#bfbfbf;stroke-miterlimit:10;stroke-width:3px;}</style></defs><title>Empty State</title><path class="cls-1" d="M264.11,317.14l17.65,23.18a12,12,0,0,0,9.48,4.7h68.84a8.52,8.52,0,0,0,6.78-13.68l-17.64-23.18a12,12,0,0,0-9.49-4.7H270.89a8.52,8.52,0,0,0-6.78,13.68Zm75.62-3.46a1.7,1.7,0,0,1,1.35.67l15.56,20.45h-65.4a1.71,1.71,0,0,1-1.35-.67l-15.56-20.45Z"/><path class="cls-1" d="M148.56,257H88.14a12.93,12.93,0,0,0-10,21.07l69.22,85.1a12.86,12.86,0,0,0,10,4.77H419a5.13,5.13,0,0,0,5.11-5.09V171.36a12.91,12.91,0,0,0-12.9-12.91H327.09l-37.22-.28c-.45,0-.82,0-1.14,0-1.63-1.61-5-4.2-5.34-4.6-1.76-1.61-3.49-3.19-5.22-4.8v0l-13-13a12.9,12.9,0,0,0-9.12-3.79H153.46a4.81,4.81,0,0,0-4.8,4.81v69.71Zm8.83,100.73a2.71,2.71,0,0,1-2.11-1L86.06,271.64a2.7,2.7,0,0,1,2.08-4.4H333.37a2.64,2.64,0,0,1,2.08,1l72.8,89.5Zm113-202.34c.67.61,1.32,1.21,2,1.83,1.66,1.53,3.29,3,4.92,4.55,3.62,3.31,5.94,6.28,11,6.55,10.14.54,19.88.47,30.07.32H411.2a2.7,2.7,0,0,1,2.69,2.7V348.48L343.38,261.8a12.79,12.79,0,0,0-10-4.78H158.77V146.09a3.82,3.82,0,0,1,3.82-3.82H252.7a8.71,8.71,0,0,1,5.88,2.29Z"/></svg>