<svg id="Layer_1" data-name="Layer 1" xmlns="http://www.w3.org/2000/svg" viewBox="0 0 500 500"><defs><style>.cls-1{fill:#fff;}.cls-2{fill:#ea1914;}</style></defs><title>status pop up </title><path class="cls-1" d="M250.06,12.9C119.29,12.9,12.89,119.28,12.89,250.05S119.29,487.1,250.06,487.1s237.05-106.34,237.05-237S380.77,12.9,250.06,12.9Z"/><path class="cls-2" d="M325.36,299.09,282.27,256c28-27.89,56.62-55.3,83.81-83.95,7.9-8.32,11.34-19.31,4.54-29.7-8.29-12.65-24.46-13.75-35.24-4-14.7,13.32-28.23,28.2-42.26,42.21L250,223.67c-27.86-28-55.24-56.61-83.85-83.82-7.4-7-16.88-10.93-26.79-6.17-14.75,7.1-17.55,25.11-6.9,36.88,13.3,14.7,28.2,28.23,42.21,42.26L217.74,256c-28,27.86-56.63,55.23-83.82,83.85-7.9,8.32-11.33,19.31-4.53,29.7,8.28,12.64,24.46,13.76,35.24,4,14.68-13.31,28.2-28.2,42.21-42.21l43.09-43.09c28,28.07,55.4,56.86,84.2,84.06,7.52,7.09,17.22,10.68,27,5.71,14.34-7.26,17-25,6.53-36.55C354.37,326.68,339.41,313.14,325.36,299.09Z"/></svg>