<svg id="Layer_1" data-name="Layer 1" xmlns="http://www.w3.org/2000/svg" viewBox="0 0 280 280"><defs><style>.cls-1{fill:#808285;stroke:#808285;stroke-miterlimit:10;stroke-width:2px;}</style></defs><title>Artboard 49 copy 20</title><path class="cls-1" d="M265,32.08c-7.77,13.32-15.58,26.62-23.28,40a3.57,3.57,0,0,1-3.61,2.07q-98.16-.07-196.31,0a3.57,3.57,0,0,1-3.62-2.06c-7.1-12.33-14.31-24.59-21.47-36.89-4-6.84-.76-12.38,7.19-12.38q115.62,0,231.23-.07c4.54,0,7.89,1.24,9.87,5.44Z"/><path class="cls-1" d="M48.16,88.87H231.89c-.4.8-.67,1.44-1,2-6.2,10.87-12.44,21.72-18.58,32.63a3.19,3.19,0,0,1-3.23,1.87q-69.09-.08-138.17-.09a3.7,3.7,0,0,1-2.78-1.17c-6.67-11.45-13.22-23-19.78-34.48A2.86,2.86,0,0,1,48.16,88.87Z"/><path class="cls-1" d="M103.32,191.36h73.27V194q0,27.21,0,54.43c0,6.2-2.7,8.88-8.93,8.88H112.24c-6.22,0-8.92-2.69-8.92-8.89q0-27.21,0-54.43Z"/><path class="cls-1" d="M77.32,140.16H202.6c-.42.83-.7,1.47-1,2.08-6.2,10.87-12.44,21.72-18.58,32.62a3.17,3.17,0,0,1-3.24,1.84q-39.79-.07-79.57,0c-1.25,0-2.22,0-3-1.41C90.83,164,84.38,152.81,78,141.59,77.74,141.2,77.59,140.76,77.32,140.16Z"/></svg>