<svg id="Layer_1" data-name="Layer 1" xmlns="http://www.w3.org/2000/svg" viewBox="0 0 280 280"><defs><style>.cls-1{fill:#808285;stroke:#808285;stroke-miterlimit:10;stroke-width:2px;}</style></defs><title>Artboard 49 copy 23</title><path class="cls-1" d="M219.72,123.13c-12.08,13-29.49,11.89-40.06.18-5.3,5.77-11.75,9.19-19.74,9.22s-14.53-3.31-20-9.3c-5.39,5.93-11.88,9.31-19.89,9.29s-14.39-3.27-19.82-9.27c-5.34,5.78-11.77,9.25-19.77,9.28s-14.54-3.29-20-9.29a27.38,27.38,0,0,1-15.07,8.87c-17.24,3.59-33.47-12.44-29.88-29.6a13.08,13.08,0,0,1,1.2-2.94Q33.35,66.18,50,32.78a3.83,3.83,0,0,1,4-2.49q85.93.11,171.86,0a3.83,3.83,0,0,1,4,2.53c10.66,21.5,21.18,43.07,32.23,64.37,5.08,9.8,3.06,18.25-3.27,26.09A25.31,25.31,0,0,1,221.18,125,19.45,19.45,0,0,1,219.72,123.13Z"/><path class="cls-1" d="M242.14,148.35v2.11q0,45.75,0,91.52c0,5.9-1.85,7.73-7.82,7.73H174V166.45c0-5.81-1.81-7.61-7.63-7.61H113.69c-6.06,0-7.81,1.72-7.81,7.69q0,39.78,0,79.55v3.63H45.22c-5.55,0-7.48-2-7.48-7.54V147.79c4.35-.84,8.55-1.48,12.65-2.51,3.25-.83,6.39-3,9.55-3,3,0,5.91,2.42,9,3.42C79.14,149.07,89,148,98.43,142.8a3.22,3.22,0,0,1,3.57,0c12,6.45,24.06,6.46,36.07,0a3.49,3.49,0,0,1,3.82,0c11.91,6.37,23.91,6.36,35.83,0a3.45,3.45,0,0,1,3.81-.07c12,6.46,24.07,6.41,36.07,0a4.54,4.54,0,0,1,3.92-.24C228.19,144.58,234.93,146.36,242.14,148.35Z"/></svg>