<svg id="Layer_1" data-name="Layer 1" xmlns="http://www.w3.org/2000/svg" viewBox="0 0 500 500"><defs><style>.cls-1{fill:#808285;}</style></defs><title>hypershapes icon</title><path class="cls-1" d="M323.73,214.72a3.63,3.63,0,0,0,.72-1.52v-.14a2.6,2.6,0,0,0,0-1.3c0-.15,0-.22-.07-.29a1.73,1.73,0,0,0-.29-.8v-.07c0-.07-.07-.07-.07-.14-5.35-10.41-10.62-20.88-16-31.22a3.51,3.51,0,0,0-3.11-1.8H195a3.6,3.6,0,0,0-3.17,1.8c-5.28,10.41-10.63,20.88-16,31.36a3.73,3.73,0,0,0,2.24,5.35,25.73,25.73,0,0,0,18.39,29.88v69.51H183.7v7.22H316.3v-7.22H303.54V246.43c11.9-2.12,20.48-12.87,21-24.7,0-.22.08-.44.08-.65v-.36A23.82,23.82,0,0,0,323.73,214.72ZM190.06,198.53h.07c2.32-4.62,4.63-9.24,7-13.87H302.78c2.09,4.19,4.19,8.31,6.35,12.43,2,3.9,4,7.8,6,11.7H184.86C186.59,205.4,188.33,202,190.06,198.53ZM270,220.86a18.86,18.86,0,0,1-33.59,11.78A18.92,18.92,0,0,1,232.84,216h36.41A18.4,18.4,0,0,1,270,220.86Zm-81.06,11.78A19.17,19.17,0,0,1,185.36,216h36.42a18.4,18.4,0,0,1,.72,4.84,18.86,18.86,0,0,1-33.59,11.78Zm43.26,82.47V278.94a3.42,3.42,0,0,1,3.42-3.42h28.82a3.42,3.42,0,0,1,3.42,3.42v36.17Zm64.14.23H275.06v-36.4a10.66,10.66,0,0,0-10.65-10.64H235.59a10.66,10.66,0,0,0-10.65,10.64v36.4H203.69V246.82a26.72,26.72,0,0,0,4.87-.38,25.8,25.8,0,0,0,18.78-15,20.08,20.08,0,0,0,1.3,2.68A26.35,26.35,0,0,0,256,246.44a25.64,25.64,0,0,0,18.71-14.89c.44.87.87,1.74,1.37,2.61a26.14,26.14,0,0,0,20.2,12.55Zm8.78-76.78a19.19,19.19,0,0,1-21.32-5.92A19.42,19.42,0,0,1,280.23,216h36.35a16,16,0,0,1,.79,4.84A19,19,0,0,1,305.09,238.56Z"/></svg>