<svg id="Layer_1" data-name="Layer 1" xmlns="http://www.w3.org/2000/svg" viewBox="0 0 280 280"><defs><style>.cls-1{fill:#808285;stroke:#808285;stroke-miterlimit:10;stroke-width:2px;}</style></defs><title>Artboard 49 copy 29</title><path class="cls-1" d="M163.57,15c5.69,0,11.32,0,17,0,6.19,0,9.46,3.28,9.47,9.48q0,15.48,0,31c0,6.24-3.25,9.54-9.4,9.55Q140,65,99.41,65C93.25,65,90,61.7,90,55.46q0-15.48,0-31C90,18.3,93.27,15,99.46,15c5.63,0,11.26,0,16.93,0"/><path class="cls-1" d="M206.66,31.7c6,0,11.54-.16,17.08,0,9.14.32,15.74,7,16.21,16.09,0,.7,0,1.39,0,2.09q0,98.42,0,196.83c0,7.29-2.52,13.16-9.28,16.38a19.89,19.89,0,0,1-8.27,1.8q-82.53.15-165.06.06C47,265,40,258,40,247.65Q40,148.32,40,49c0-10.14,7.1-17.18,17.2-17.31,5.27-.08,10.55,0,16.11,0,0,3.39,0,6.58,0,9.76.06,5.9-.32,11.85.32,17.68C75.12,72.36,85,81.49,98.3,81.59q41.65.33,83.32,0c14.43-.11,24.84-11,25-25.51.09-7.2,0-14.41,0-21.61ZM128,174.19c-5.87-6-10.68-11-15.63-15.95-5.74-5.69-13.08-6-18.25-.93s-5,12.64.87,18.52q11.31,11.43,22.74,22.75c6.42,6.37,13.28,6.42,19.65.07Q161.25,174.86,185,151c5.83-5.85,6.09-13.36.78-18.52s-12.51-4.7-18.26,1q-18.41,18.3-36.71,36.72A32.39,32.39,0,0,0,128,174.19Zm-2.92-6"/></svg>