<svg id="Layer_1" data-name="Layer 1" xmlns="http://www.w3.org/2000/svg" viewBox="0 0 280 280"><defs><style>.cls-1{fill:#808285;stroke:#808285;stroke-miterlimit:10;stroke-width:2px;}</style></defs><title>Artboard 49 copy 25</title><path class="cls-1" d="M145.37,15c5,1.08,10.1,1.75,14.94,3.3,28.68,9.21,47.83,37.47,45.5,66.8-2.49,31.21-24.92,55.91-55.25,60.84a65.87,65.87,0,0,1-76.1-58.42C70.79,51.63,97,19.24,132.75,15.43a15.91,15.91,0,0,0,1.88-.43Z"/><path class="cls-1" d="M140,265H39c-6.17,0-8.9-2.79-8.82-9a96.34,96.34,0,0,1,80.73-93.42,87.47,87.47,0,0,1,12.63-1.05q15.86-.23,31.72-.05a95.81,95.81,0,0,1,91.14,70.43,98.4,98.4,0,0,1,3.46,24.31c.09,5.85-2.74,8.75-8.55,8.75Z"/></svg>