<svg xmlns="http://www.w3.org/2000/svg" width="18px" height="18px" viewBox="0 0 24 24" fill="#b1b2b3">
	<path d="M15.6326549,3.42857143 L17.3642014,3.4301293 C19.3182468,3.49117191 20.8914409,5.33865993 20.9976136,7.65870028 L21.0054681,8.03850432 C21.0453134,9.24135819 21.6372262,10.2837801 22.4582444,10.920116 L22.6946081,11.0913381 L22.7384528,11.1267495 L22.7964007,11.179404 L22.8730087,11.2616096 L22.9503561,11.3645533 L23.0218032,11.4878389 L23.0604482,11.5735777 L23.0866581,11.6452997 L23.1060239,11.7120195 L23.1323359,11.8438772 L23.1418853,11.9494312 L23.1428571,12.0153646 L23.1323733,12.1561255 L23.1037399,12.2975239 L23.0875987,12.3518709 L23.0415185,12.4709052 L23.0150824,12.5256341 C22.9815629,12.590567 22.9416182,12.652685 22.8954427,12.7109669 L22.8094036,12.8076134 L22.7536777,12.8601054 L22.6807336,12.9194155 L22.5470725,13.0132739 C21.7380007,13.6000564 21.1322369,14.574502 21.0215115,15.7147122 L21.0054681,15.9614993 L21.0020291,16.2104139 C20.9520412,18.5093835 19.4630488,20.3749804 17.5686742,20.556881 L17.3642014,20.5698707 L17.2643445,20.5714286 L15.6326549,20.5714286 L15.5646816,20.5694774 C14.9574137,20.5345171 14.4758125,20.0341433 14.4758125,19.4220069 C14.4758125,18.856958 14.8861709,18.3871386 15.4269357,18.2907051 L15.5646816,18.2745365 L15.6326549,18.2725853 L17.2643445,18.2725853 L17.3215973,18.2705347 C17.9308983,18.2270692 18.5659792,17.4961705 18.6736888,16.4155724 L18.6880352,16.1948902 L18.6918065,15.925996 C18.7321186,14.391939 19.3324433,13.022075 20.2488402,12.0000839 C19.3629899,11.0120059 18.7724914,9.69900307 18.6976954,8.22685922 L18.6880352,7.80511337 C18.6519317,6.64173486 18.0132012,5.82779251 17.3823815,5.73606011 L17.2643445,5.7274147 L15.6326549,5.7274147 L15.5646816,5.72546348 C14.9574137,5.69050328 14.4758125,5.19012939 14.4758125,4.57799306 C14.4758125,3.98852845 14.9224002,3.50270089 15.4977427,3.43630443 L15.6326549,3.42857143 Z M8.36637325,3.42857143 C9.00527965,3.42857143 9.52321562,3.94318502 9.52321562,4.57799306 C9.52321562,5.19012939 9.04161444,5.69050328 8.43434652,5.72546348 L8.36637325,5.7274147 L6.73468362,5.7274147 C6.06802227,5.7274147 5.34935298,6.5690237 5.31099296,7.80511337 L5.30938678,7.90902441 C5.30938678,9.50977346 4.69931331,10.9414289 3.75018793,12.0000839 C4.66658485,13.022075 5.26690959,14.391939 5.30722165,15.925996 L5.31099296,16.1948902 C5.34825692,17.395662 6.02750978,18.2241715 6.67743084,18.2705347 L6.73468362,18.2725853 L8.36637325,18.2725853 L8.43434652,18.2745365 C9.04161444,18.3094967 9.52321562,18.8098706 9.52321562,19.4220069 C9.52321562,20.0341433 9.04161444,20.5345171 8.43434652,20.5694774 L8.36637325,20.5714286 L6.73468362,20.5714286 L6.63482679,20.5698707 C4.64417145,20.5076845 3.04877221,18.5914895 2.99699901,16.2104139 L2.9935601,15.9614993 C2.95229171,14.7156863 2.31881825,13.6419694 1.45195561,13.0132739 L1.31829457,12.9194155 L1.24535046,12.8601054 L1.17749747,12.795385 C1.0989611,12.7140992 1.03422497,12.6230335 0.983945767,12.5256341 L0.957509648,12.4709052 L0.911429485,12.3518709 L0.911429485,12.3518709 L0.889197148,12.2727771 L0.866654831,12.1561255 L0.866654831,12.1561255 L0.859189615,12.0838946 L0.857142857,11.9494312 L0.866692249,11.8438772 L0.866692249,11.8438772 L0.893004233,11.7120195 L0.912370088,11.6452997 L0.938579999,11.5735777 L0.984132229,11.4743394 C1.02282602,11.3991346 1.07024882,11.3276912 1.12601941,11.2616096 L1.20262741,11.179404 L1.26057533,11.1267495 L1.30442009,11.0913381 L1.36146234,11.0501685 C2.27442626,10.431879 2.95086867,9.32727633 2.9935601,8.03850432 L2.99570203,7.90902441 C2.99570203,5.47290198 4.61099403,3.49335201 6.6348268,3.4301293 L8.36637325,3.42857143 Z M11.9995141,10.7755102 C12.683325,10.7755102 13.2376633,11.323733 13.2376633,12 C13.2376633,12.676267 12.683325,13.2244898 11.9995141,13.2244898 C11.3157031,13.2244898 10.7613649,12.676267 10.7613649,12 C10.7613649,11.323733 11.3157031,10.7755102 11.9995141,10.7755102 Z M15.7139618,10.7755102 C16.3977727,10.7755102 16.952111,11.323733 16.952111,12 C16.952111,12.676267 16.3977727,13.2244898 15.7139618,13.2244898 C15.0301508,13.2244898 14.4758125,12.676267 14.4758125,12 C14.4758125,11.323733 15.0301508,10.7755102 15.7139618,10.7755102 Z M8.28506639,10.7755102 C8.96887733,10.7755102 9.52321562,11.323733 9.52321562,12 C9.52321562,12.676267 8.96887733,13.2244898 8.28506639,13.2244898 C7.60125546,13.2244898 7.04691716,12.676267 7.04691716,12 C7.04691716,11.323733 7.60125546,10.7755102 8.28506639,10.7755102 Z" id="Shape"/>
</svg>