<svg id="Layer_1" data-name="Layer 1" xmlns="http://www.w3.org/2000/svg" viewBox="0 0 280 280"><defs><style>.cls-1{fill:#a8ddfc;}.cls-2{fill:#009df6;}</style></defs><title>Artboard 49 copy 38</title><path class="cls-1" d="M34.51,134c13.65-1.74,17.07-3.34,24.36-11.39a12.54,12.54,0,0,1,1.2,1.09,27.31,27.31,0,0,0,21.74,10c4.18,0,8.41.17,12.5-.44,7.43-1.11,13.33-5.09,18-11.26,7.29,8.61,16.57,11.85,27.62,11.85s20.42-3.06,27.76-11.8l1.73,2c5.38,6,12,9.46,20.14,9.63a87.73,87.73,0,0,0,13.67-.36c7.31-1,13.17-4.89,17.84-10.89,6.35,7.83,14.38,11.65,24.5,11.36.06,1.23.16,2.26.16,3.28q0,56.4,0,112.78c0,6.39-2,8.36-8.35,8.36H127.8c-.06-1.35-.16-2.48-.16-3.6q0-43.56,0-87.13c0-6.9-1.91-8.8-8.81-8.81H73.35c-5.81,0-7.95,2.11-7.95,7.86q0,43.86,0,87.72V258c-.86.09-1.59.24-2.33.24-7.09,0-14.19.05-21.28,0-5.09,0-7.42-2.27-7.42-7.22q0-57.42,0-114.82C34.35,135.48,34.45,134.81,34.51,134Zm180.15,55.91c0-8,0-15.93,0-23.89,0-5-2.32-7.36-7.27-7.37q-20.68,0-41.37,0c-5,0-7.31,2.32-7.32,7.32q0,23.73,0,47.48c0,4.95,2.34,7.39,7.27,7.41q20.68.06,41.36,0c5,0,7.31-2.43,7.33-7.36C214.68,205.66,214.66,197.79,214.66,189.93Z"/><path class="cls-2" d="M139.15,121.36a19.06,19.06,0,0,1-15-4.89c-4.46-4.16-6.67-9.35-6-15.41,2.75-25.66,5.65-51.3,8.45-77,.18-1.69.74-2.34,2.5-2.32,7.28.08,14.56.07,21.85,0,1.54,0,2.25.44,2.42,2.08q2.88,26.61,5.86,53.23c.82,7.42,1.67,14.85,2.43,22.28,1.34,13-6.7,22-19.8,22Z"/><path class="cls-2" d="M165.69,21.83c8.31,0,16.35-.06,24.39.1.64,0,1.56,1.46,1.82,2.39q6.21,22,12.27,44,4.47,16.11,8.92,32.22c3.2,11.63-3.85,20.82-16,20.85-2,0-4.07,0-6.11,0-8.5-.09-14.93-5.59-15.89-14-2.47-21.49-4.78-43-7.16-64.49-.66-6-1.35-12-2-17.93C165.85,24,165.79,23.07,165.69,21.83Z"/><path class="cls-2" d="M88.87,21.93h25.49c-.41,3.95-.78,7.76-1.2,11.56q-4.09,36.87-8.23,73.75c-1,8.42-7.35,14-15.79,14.11-2.23,0-4.47,0-6.7,0C71,121.28,63.78,112,66.82,100.89c4.62-16.82,9.33-33.61,14-50.42l7.26-26C88.31,23.6,88.6,22.79,88.87,21.93Z"/><path class="cls-2" d="M75.86,21.82c-3.24,11.72-6.34,22.92-9.44,34.11Q59.19,82,52,108c-2.57,9.29-7.83,13.32-17.5,13.31a37.46,37.46,0,0,1-5.81-.2c-11-1.72-16.58-12-12.08-22.3,6.38-14.56,12.9-29.06,19.36-43.58C39.54,47.12,43.26,39,46.75,30.8c2.64-6.19,7.14-9.14,13.84-9C65.53,21.9,70.47,21.82,75.86,21.82Z"/><path class="cls-2" d="M204.45,22.27c6.68,0,13.27-.43,19.77.15,4.59.41,7.19,4.12,9,8.25q11,25,22.18,50c2.64,5.94,5.31,11.86,7.91,17.81,5.15,11.81-2,22.78-15,22.9-1.65,0-3.3,0-5,0a15.26,15.26,0,0,1-14.6-10.93c-8.15-29-16.15-58.08-24.2-87.13A9,9,0,0,1,204.45,22.27Z"/></svg>