<svg id="Layer_1" data-name="Layer 1" xmlns="http://www.w3.org/2000/svg" viewBox="0 0 280 280"><defs><style>.cls-1{fill:#808285;stroke:#808285;stroke-miterlimit:10;stroke-width:2px;}</style></defs><title>Artboard 49 copy 28</title><path class="cls-1" d="M120.09,30.23c0,19.29,0,38,0,56.74a35.31,35.31,0,0,0,.57,7.91c2.32,9.81,11.55,15.94,21.95,14.84a19.29,19.29,0,0,0,17.15-18.66c.26-18.26.11-36.53.13-54.8v-6c1.81-.1,3.3-.26,4.8-.26q34.18,0,68.39,0c10.82,0,16.76,5.92,16.76,16.82q0,93.21,0,186.44c0,10.83-6,16.7-16.93,16.71q-93,0-186,0c-10.88,0-16.81-5.95-16.81-16.82q0-93.22,0-186.44C30.14,35.88,36.12,30,47,30q34.19,0,68.39,0C116.78,30,118.16,30.14,120.09,30.23Z"/></svg>