<svg id="Layer_1" data-name="Layer 1" xmlns="http://www.w3.org/2000/svg" viewBox="0 0 500 500"><defs><style>.cls-1{fill:#808285;}</style></defs><title>hypershapes icon</title><path class="cls-1" d="M249.92,320.94c-11.26,0-25.18,2-36.26,0-18.88-3.43-16.47-24.36-11.87-37.86a51.15,51.15,0,0,1,97,.9c1.85,5.77,3.1,13,2.55,19.08q1.45,11.54-11.22,17.87h-5.36c-10.77,1.88-23.9,0-34.8,0-5.19,0-5.2,8.07,0,8.07,10.71,0,21.42,0,32.12,0,6.57,0,12.92.53,18.61-3.15,10.9-7.07,9.64-22.47,8.17-33.76-3.74-28.77-29-51.27-58-51.5A59.72,59.72,0,0,0,191.87,289c-2.13,10.94-3.82,27.58,5.8,35.6,3.9,3.25,8.33,3.91,13.2,4.44,12.61,1.36,26.36,0,39,0C255.12,329,255.13,320.94,249.92,320.94Z"/><path class="cls-1" d="M224,204.4c1.87-33.39,52.27-33.51,52.16.18s-50.43,33.23-52.16-.18c-.27-5.17-8.34-5.2-8.07,0,.95,18.51,14.73,34.21,34.06,34.25,18.5,0,34.29-15.49,34.25-34.07a34.48,34.48,0,0,0-32.43-34.15c-20-1-34.81,14.77-35.88,34C215.64,209.59,223.71,209.57,224,204.4Z"/></svg>