<svg id="Layer_1" data-name="Layer 1" xmlns="http://www.w3.org/2000/svg" viewBox="0 0 500 500"><defs><style>.cls-1,.cls-2{fill:#808285;}.cls-2{stroke:#808285;stroke-miterlimit:10;stroke-width:2.53px;}.cls-3{fill:#fff;}</style></defs><title>hypershapes icon</title><path class="cls-1" d="M271.13,287.4H268.3c-5.67,1-12.6,0-18.34,0-5.93,0-13.28,1.06-19.12,0-9.94-1.81-8.68-12.84-6.25-20A27,27,0,0,1,277,278Q277.81,284.07,271.13,287.4Z"/><path class="cls-1" d="M281,272.21a31.22,31.22,0,0,0-61.65-1.65c-1.12,5.77-2,14.54,3.06,18.76,2.05,1.72,4.39,2.07,7,2.34,6.65.72,13.9,0,20.59,0,5.64,0,11.29,0,16.93,0,3.46,0,6.81.28,9.81-1.67C282.45,286.28,281.78,278.17,281,272.21Zm-9.88,15.19H268.3c-5.67,1-12.6,0-18.34,0-5.93,0-13.28,1.06-19.12,0-9.94-1.81-8.68-12.84-6.25-20A27,27,0,0,1,277,278Q277.81,284.07,271.13,287.4Z"/><path class="cls-1" d="M263.79,226.08c-.05,17.76-26.58,17.51-27.49-.1C237.28,208.38,263.85,208.32,263.79,226.08Z"/><path class="cls-1" d="M251,208.07c-10.32-.5-18,7.47-18.87,17.32h0a2.25,2.25,0,0,0,0,.59,2,2,0,0,0,0,.56v0C232.84,236.07,240,244,250,244a18,18,0,0,0,.95-36ZM236.3,226c1-17.6,27.55-17.66,27.49.1S237.21,243.59,236.3,226Z"/><path class="cls-2" d="M181.44,211.86v67.37c0,3.11-.1,6.24,0,9.34v.13a1.73,1.73,0,0,0,.85,1.48L189,294l16,9.24,19.3,11.14L240.86,324c2.62,1.52,5.21,3.14,7.89,4.56,1.11.59,1.88,0,2.79-.52l4.15-2.4,15-8.68,19.18-11.08,17.26-10,9.48-5.48.45-.25a1.72,1.72,0,0,0,.84-1.48V221.33c0-3.11.11-6.23,0-9.34v-.13a1.7,1.7,0,0,0-.84-1.47l-6.67-3.85-16-9.23-19.31-11.15-16.6-9.59c-2.63-1.51-5.22-3.14-7.9-4.56-1.11-.59-1.88,0-2.78.53l-4.16,2.4-15,8.67-19.19,11.08-17.26,10-9.48,5.47-.44.26a1.71,1.71,0,0,0,1.72,3l6.65-3.84,15.83-9.15,19.28-11.13,16.6-9.58,5.49-3.17c.85-.49,1.76-.94,2.58-1.49l.11-.06h-1.72l6.63,3.82,15.9,9.19L290.54,199l16.64,9.6,5.49,3.18c.86.49,1.7,1.06,2.59,1.49l.12.07-.85-1.48v73.72c0,1-.07,2,0,3v.13l.85-1.47-6.65,3.84-15.84,9.14-19.28,11.13L257,320.93l-5.48,3.16c-.86.49-1.77.94-2.59,1.49a.41.41,0,0,1-.11.07h1.72l-6.62-3.83L228,312.64l-19.17-11.07L192.21,292l-5.5-3.17c-.85-.5-1.7-1.07-2.59-1.5l-.11-.06.84,1.47V221.33c0-3.11.11-6.23,0-9.34v-.13A1.71,1.71,0,0,0,181.44,211.86Z"/><circle class="cls-3" cx="249.69" cy="174.98" r="9.46"/><path class="cls-1" d="M256.6,175c0,.44,0,.87-.09,1.31l.09-.68a9.86,9.86,0,0,1-.64,2.32l.26-.61a9.28,9.28,0,0,1-.84,1.59l-.26.37c-.25.35.45-.56.06-.08-.19.23-.4.45-.61.66a7.57,7.57,0,0,1-.66.61c-.48.4.43-.3.08-.06l-.37.26a9.28,9.28,0,0,1-1.59.84l.61-.25a10.35,10.35,0,0,1-2.32.63l.68-.09a10.36,10.36,0,0,1-2.61,0l.68.09a10.43,10.43,0,0,1-2.33-.63l.61.25a10.08,10.08,0,0,1-1.59-.84l-.36-.26c-.35-.24.55.46.07.06a7.57,7.57,0,0,1-.66-.61q-.31-.31-.6-.66c-.4-.48.3.43.06.08-.09-.12-.18-.24-.26-.37a10.08,10.08,0,0,1-.85-1.59l.26.61a9.39,9.39,0,0,1-.63-2.32l.09.68a9.51,9.51,0,0,1,0-2.61l-.09.68a9.46,9.46,0,0,1,.63-2.33l-.26.61a11,11,0,0,1,.85-1.59l.26-.36c.24-.35-.46.56-.06.07q.28-.34.6-.66t.66-.6c.48-.4-.42.3-.07.06l.36-.26a11,11,0,0,1,1.59-.85l-.61.26a9.46,9.46,0,0,1,2.33-.63l-.68.09a10.36,10.36,0,0,1,2.61,0l-.68-.09a9.39,9.39,0,0,1,2.32.63l-.61-.26a10.08,10.08,0,0,1,1.59.85c.13.08.25.17.37.26.35.24-.56-.46-.08-.06q.34.28.66.6c.21.21.42.43.61.66.39.49-.31-.42-.06-.07l.26.36a10.08,10.08,0,0,1,.84,1.59L256,172a9.94,9.94,0,0,1,.64,2.33l-.09-.68c.05.43.08.87.09,1.3a2.58,2.58,0,0,0,2.56,2.56,2.6,2.6,0,0,0,2.56-2.56,12,12,0,0,0-2.11-6.79,12.55,12.55,0,0,0-5.92-4.54,12,12,0,0,0-13.14,3.54,12.42,12.42,0,0,0-2.85,7,12,12,0,0,0,6.81,11.61,12.46,12.46,0,0,0,7.68.92,12,12,0,0,0,9.33-9.66,14.64,14.64,0,0,0,.2-2.1,2.56,2.56,0,0,0-5.12,0Z"/><circle class="cls-3" cx="316.24" cy="211.86" r="9.46"/><path class="cls-1" d="M323.14,211.86a9.61,9.61,0,0,1-.09,1.31l.09-.69a9.34,9.34,0,0,1-.63,2.33l.26-.61a10.08,10.08,0,0,1-.85,1.59c-.08.13-.17.25-.26.37-.24.35.46-.56.06-.08q-.29.34-.6.66t-.66.6c-.48.4.42-.3.07-.05l-.36.25a9.37,9.37,0,0,1-1.59.85l.61-.26a9.94,9.94,0,0,1-2.33.64l.68-.09a10.36,10.36,0,0,1-2.61,0l.68.09a9.86,9.86,0,0,1-2.32-.64l.61.26a8.67,8.67,0,0,1-1.59-.85l-.37-.25c-.35-.25.56.45.08.05q-.34-.28-.66-.6c-.21-.21-.42-.43-.61-.66-.39-.48.31.43.06.08l-.26-.37a9.28,9.28,0,0,1-.84-1.59l.25.61a10.29,10.29,0,0,1-.63-2.33l.09.69a10.36,10.36,0,0,1,0-2.61l-.09.68a10.43,10.43,0,0,1,.63-2.33l-.25.61a10.08,10.08,0,0,1,.84-1.59l.26-.36c.25-.35-.45.55-.06.07.19-.23.4-.45.61-.66s.43-.41.66-.6c.48-.4-.43.3-.08.06.12-.09.24-.18.37-.26a10.08,10.08,0,0,1,1.59-.85l-.61.26a9.39,9.39,0,0,1,2.32-.63l-.68.09a9.51,9.51,0,0,1,2.61,0l-.68-.09a9.46,9.46,0,0,1,2.33.63l-.61-.26a11,11,0,0,1,1.59.85l.36.26c.35.24-.55-.46-.07-.06q.35.28.66.6t.6.66c.4.48-.3-.42-.06-.07l.26.36a11,11,0,0,1,.85,1.59l-.26-.61a9.46,9.46,0,0,1,.63,2.33l-.09-.68a9.36,9.36,0,0,1,.09,1.3,2.56,2.56,0,1,0,5.12,0,11.86,11.86,0,0,0-2.11-6.79,12.55,12.55,0,0,0-5.92-4.54,12,12,0,0,0-13.13,3.53,12.48,12.48,0,0,0-2.85,7,11.79,11.79,0,0,0,1.67,6.95,11.91,11.91,0,0,0,5.13,4.66,12.56,12.56,0,0,0,7.69.92,12,12,0,0,0,9.32-9.66,13.45,13.45,0,0,0,.2-2.1,2.58,2.58,0,0,0-2.56-2.56A2.61,2.61,0,0,0,323.14,211.86Z"/><circle class="cls-3" cx="316.24" cy="288.71" r="9.46"/><path class="cls-1" d="M323.14,288.71a9.47,9.47,0,0,1-.09,1.3l.09-.68a9.46,9.46,0,0,1-.63,2.33l.26-.61a11,11,0,0,1-.85,1.59l-.26.36c-.24.35.46-.56.06-.07q-.29.35-.6.66t-.66.6c-.48.4.42-.3.07-.06l-.36.26a11,11,0,0,1-1.59.85l.61-.26a9.46,9.46,0,0,1-2.33.63l.68-.09a10.36,10.36,0,0,1-2.61,0l.68.09a9.39,9.39,0,0,1-2.32-.63l.61.26a10.08,10.08,0,0,1-1.59-.85c-.13-.08-.25-.17-.37-.26-.35-.24.56.46.08.06q-.34-.29-.66-.6c-.21-.21-.42-.43-.61-.66-.39-.49.31.42.06.07l-.26-.36a10.08,10.08,0,0,1-.84-1.59l.25.61a10.43,10.43,0,0,1-.63-2.33l.09.68a10.36,10.36,0,0,1,0-2.61l-.09.68a10.35,10.35,0,0,1,.63-2.32l-.25.61a9.28,9.28,0,0,1,.84-1.59l.26-.37c.25-.35-.45.56-.06.08.19-.23.4-.45.61-.66a7.57,7.57,0,0,1,.66-.61c.48-.4-.43.3-.08.06l.37-.26a9.28,9.28,0,0,1,1.59-.84l-.61.25a10.35,10.35,0,0,1,2.32-.63l-.68.09a10.36,10.36,0,0,1,2.61,0l-.68-.09a10.43,10.43,0,0,1,2.33.63l-.61-.25a10.08,10.08,0,0,1,1.59.84l.36.26c.35.24-.55-.46-.07-.06a7.57,7.57,0,0,1,.66.61q.31.32.6.66c.4.48-.3-.43-.06-.08.09.12.18.24.26.37a10.08,10.08,0,0,1,.85,1.59l-.26-.61a9.39,9.39,0,0,1,.63,2.32l-.09-.68a9.61,9.61,0,0,1,.09,1.31,2.56,2.56,0,0,0,5.12,0,11.83,11.83,0,0,0-2.11-6.79,12.57,12.57,0,0,0-5.92-4.55,12,12,0,0,0-13.13,3.54,12.45,12.45,0,0,0-2.85,7,12,12,0,0,0,6.8,11.62,12.56,12.56,0,0,0,7.69.91,12,12,0,0,0,9.32-9.65,13.57,13.57,0,0,0,.2-2.1,2.58,2.58,0,0,0-2.56-2.56A2.6,2.6,0,0,0,323.14,288.71Z"/><circle class="cls-3" cx="183.77" cy="211.86" r="9.46"/><path class="cls-1" d="M190.67,211.86a9.61,9.61,0,0,1-.09,1.31l.09-.69a9.79,9.79,0,0,1-.63,2.33l.26-.61a10.08,10.08,0,0,1-.85,1.59c-.08.13-.17.25-.26.37-.24.35.46-.56.06-.08q-.28.34-.6.66c-.21.21-.44.41-.66.6-.49.4.42-.3.07-.05l-.37.25a8.67,8.67,0,0,1-1.59.85l.62-.26a9.94,9.94,0,0,1-2.33.64l.68-.09a10.36,10.36,0,0,1-2.61,0l.68.09a9.94,9.94,0,0,1-2.33-.64l.62.26a8.67,8.67,0,0,1-1.59-.85l-.37-.25c-.35-.25.56.45.08.05-.23-.19-.45-.39-.67-.6s-.41-.43-.6-.66c-.4-.48.3.43.06.08l-.26-.37a10.08,10.08,0,0,1-.85-1.59l.26.61a10.29,10.29,0,0,1-.63-2.33l.09.69a10.36,10.36,0,0,1,0-2.61l-.09.68a10.43,10.43,0,0,1,.63-2.33l-.26.61a11,11,0,0,1,.85-1.59l.26-.36c.24-.35-.46.55-.06.07q.28-.34.6-.66c.22-.21.44-.41.67-.6.48-.4-.43.3-.08.06.12-.09.24-.18.37-.26a10.08,10.08,0,0,1,1.59-.85l-.62.26a9.46,9.46,0,0,1,2.33-.63l-.68.09a9.51,9.51,0,0,1,2.61,0l-.68-.09a9.46,9.46,0,0,1,2.33.63l-.62-.26a10.08,10.08,0,0,1,1.59.85c.13.08.25.17.37.26.35.24-.56-.46-.07-.06.22.19.45.39.66.6s.41.43.6.66c.4.48-.3-.42-.06-.07l.26.36a11,11,0,0,1,.85,1.59l-.26-.61a9.92,9.92,0,0,1,.63,2.33l-.09-.68a9.36,9.36,0,0,1,.09,1.3,2.56,2.56,0,1,0,5.12,0,12,12,0,0,0-2.11-6.79,12.55,12.55,0,0,0-5.92-4.54,12,12,0,0,0-13.13,3.53,12.56,12.56,0,0,0-2.86,7,12,12,0,0,0,6.81,11.61,12.56,12.56,0,0,0,7.69.92,12,12,0,0,0,9.32-9.66,14.78,14.78,0,0,0,.2-2.1,2.56,2.56,0,0,0-5.12,0Z"/><circle class="cls-3" cx="183.77" cy="288.71" r="9.46"/><path class="cls-1" d="M190.67,288.71a9.47,9.47,0,0,1-.09,1.3l.09-.68a9.92,9.92,0,0,1-.63,2.33l.26-.61a11,11,0,0,1-.85,1.59l-.26.36c-.24.35.46-.56.06-.07q-.28.35-.6.66c-.21.21-.44.41-.66.6-.49.4.42-.3.07-.06-.12.09-.24.18-.37.26a10.08,10.08,0,0,1-1.59.85l.62-.26a9.46,9.46,0,0,1-2.33.63l.68-.09a10.36,10.36,0,0,1-2.61,0l.68.09a9.46,9.46,0,0,1-2.33-.63l.62.26a10.08,10.08,0,0,1-1.59-.85c-.13-.08-.25-.17-.37-.26-.35-.24.56.46.08.06-.23-.19-.45-.39-.67-.6s-.41-.43-.6-.66c-.4-.49.3.42.06.07l-.26-.36a11,11,0,0,1-.85-1.59l.26.61a10.43,10.43,0,0,1-.63-2.33l.09.68a10.36,10.36,0,0,1,0-2.61l-.09.68a10.35,10.35,0,0,1,.63-2.32l-.26.61a10.08,10.08,0,0,1,.85-1.59l.26-.37c.24-.35-.46.56-.06.08q.28-.35.6-.66c.22-.22.44-.42.67-.61.48-.4-.43.3-.08.06l.37-.26a9.28,9.28,0,0,1,1.59-.84l-.62.25a10.43,10.43,0,0,1,2.33-.63l-.68.09a10.36,10.36,0,0,1,2.61,0l-.68-.09a10.43,10.43,0,0,1,2.33.63l-.62-.25a9.28,9.28,0,0,1,1.59.84l.37.26c.35.24-.56-.46-.07-.06.22.19.45.39.66.61s.41.43.6.66c.4.48-.3-.43-.06-.08.09.12.18.24.26.37a10.08,10.08,0,0,1,.85,1.59l-.26-.61a9.84,9.84,0,0,1,.63,2.32l-.09-.68a9.61,9.61,0,0,1,.09,1.31,2.56,2.56,0,1,0,5.12,0,12,12,0,0,0-2.11-6.79,12.57,12.57,0,0,0-5.92-4.55,12,12,0,0,0-13.13,3.54,12.53,12.53,0,0,0-2.86,7,12,12,0,0,0,6.81,11.62,12.55,12.55,0,0,0,7.69.91,12,12,0,0,0,9.32-9.65,14.92,14.92,0,0,0,.2-2.1,2.56,2.56,0,1,0-5.12,0Z"/><circle class="cls-3" cx="249.69" cy="325.05" r="9.46"/><path class="cls-1" d="M256.6,325.05c0,.44,0,.87-.09,1.3l.09-.68A9.94,9.94,0,0,1,256,328l.26-.61a9.66,9.66,0,0,1-.84,1.59c-.09.12-.18.24-.26.37-.25.34.45-.56.06-.08-.19.23-.4.45-.61.66s-.43.41-.66.6c-.48.4.43-.3.08,0l-.37.25a8.67,8.67,0,0,1-1.59.85l.61-.26a9.39,9.39,0,0,1-2.32.63l.68-.09a9.51,9.51,0,0,1-2.61,0l.68.09a9.46,9.46,0,0,1-2.33-.63l.61.26a9.37,9.37,0,0,1-1.59-.85l-.36-.25c-.35-.25.55.45.07,0q-.34-.28-.66-.6t-.6-.66c-.4-.48.3.42.06.08L244,329a10.54,10.54,0,0,1-.85-1.59l.26.61a9.46,9.46,0,0,1-.63-2.33l.09.68a9.43,9.43,0,0,1,0-2.6l-.09.68a9.46,9.46,0,0,1,.63-2.33l-.26.61a10.54,10.54,0,0,1,.85-1.59l.26-.37c.24-.34-.46.56-.06.08q.28-.34.6-.66t.66-.6c.48-.4-.42.3-.07.05l.36-.25a9.37,9.37,0,0,1,1.59-.85l-.61.26a9.94,9.94,0,0,1,2.33-.64l-.68.1a9.51,9.51,0,0,1,2.61,0l-.68-.1a9.86,9.86,0,0,1,2.32.64l-.61-.26a8.67,8.67,0,0,1,1.59.85l.37.25c.35.25-.56-.45-.08-.05q.34.29.66.6c.21.21.42.43.61.66.39.48-.31-.42-.06-.08.08.13.17.25.26.37a9.66,9.66,0,0,1,.84,1.59l-.26-.61a9.94,9.94,0,0,1,.64,2.33l-.09-.68c.05.43.08.86.09,1.3a2.58,2.58,0,0,0,2.56,2.56,2.61,2.61,0,0,0,2.56-2.56,12,12,0,0,0-2.11-6.79,12.57,12.57,0,0,0-5.92-4.55,12,12,0,0,0-13.14,3.54,12.45,12.45,0,0,0-2.85,7,12,12,0,0,0,6.81,11.62,12.53,12.53,0,0,0,7.68.92,12,12,0,0,0,9.33-9.66,14.78,14.78,0,0,0,.2-2.1,2.56,2.56,0,0,0-5.12,0Z"/></svg>