<?xml version="1.0" encoding="utf-8"?>
<!-- Generator: Adobe Illustrator 24.0.1, SVG Export Plug-In . SVG Version: 6.00 Build 0)  -->
<svg version="1.1" id="Layer_1" xmlns="http://www.w3.org/2000/svg" xmlns:xlink="http://www.w3.org/1999/xlink" x="0px" y="0px"
	 viewBox="0 0 280 280" style="enable-background:new 0 0 280 280;" xml:space="preserve">
<title>Artboard 49 copy 35</title>
<path d="M129.6,13.5c4.3,0.9,8.7,1.5,12.8,2.8c24.6,7.9,41.1,32.2,39.1,57.3c-2.1,26.8-21.4,48-47.4,52.2
	c-30.8,5.1-59.9-15.8-65-46.6s15.8-59.9,46.6-65c1-0.2,2-0.3,3.1-0.4c0.5-0.1,1.1-0.2,1.6-0.4L129.6,13.5z"/>
<path d="M118.3,217.6c-3.2-31.9,15.1-62.1,44.8-74.1c-8.1-2.7-16.6-4.2-25.1-4.3c-9.1-0.1-18.2-0.1-27.2,0c-3.6,0-7.2,0.3-10.8,0.9
	c-39.4,6.5-68.6,40.2-69.3,80.2c-0.1,5.3,2.3,7.7,7.6,7.7h81.9C119.3,224.6,118.7,221.1,118.3,217.6z"/>
<path d="M210.1,156.2c-4.1-1.3-8.5-1.9-12.8-2.8h-9.2c-0.5,0.2-1.1,0.3-1.6,0.4c-31,3.4-53.5,31.3-50.1,62.3s31.3,53.5,62.3,50.1
	c1-0.1,2-0.2,3-0.4c26-4.2,45.3-25.4,47.4-52.2C251.1,188.4,234.7,164.1,210.1,156.2z M231.1,210c-0.1,3.9-3.3,7-7.2,7h-24.2v24.2
	c0,3.9-3.1,7.2-7,7.2c0,0,0,0,0,0l0,0c-3.9-0.1-7-3.3-7-7.2V217h-24.3c-3.9,0-7.1-3.1-7.2-7l0,0c0.1-3.9,3.3-7,7.2-7h24.2v-24.3
	c0-3.9,3.1-7.1,7-7.2l0,0c3.9,0,7.1,3.3,7.1,7.2v24.2H224c3.9,0,7.1,3.1,7.2,7L231.1,210z"/>
</svg>
