<svg id="Layer_1" data-name="Layer 1" xmlns="http://www.w3.org/2000/svg" viewBox="0 0 280 280"><title>Artboard 49 copy 45</title><path d="M140.14,257.12c-64.3.19-117-52.36-117.27-116.9C22.63,76,75.24,23.09,139.68,22.88S257,75.2,257.13,139.76,204.85,256.93,140.14,257.12ZM165.43,130H92.22a23.1,23.1,0,0,0-3.72.24,9.71,9.71,0,0,0-8,8.59c-.56,6.32,3.82,11.06,10.36,11.06q35.82,0,71.66,0h3c-.84.92-1.32,1.48-1.84,2q-10.16,10.16-20.3,20.31a14.3,14.3,0,0,0-2.46,3.08,9.89,9.89,0,0,0,2.72,12.56c4.07,3.13,9.45,2.73,13.34-1.14q19.77-19.68,39.46-39.43c4.45-4.48,4.33-10.29-.26-14.89Q176.82,113,157.38,93.64a13.31,13.31,0,0,0-3.32-2.52,9.93,9.93,0,0,0-11.41,15.94c6.81,6.94,13.73,13.78,20.6,20.66C163.84,128.31,164.4,128.92,165.43,130Z"/></svg>