<?xml version="1.0" encoding="utf-8"?>
<!-- Generator: Adobe Illustrator 24.0.1, SVG Export Plug-In . SVG Version: 6.00 Build 0)  -->
<svg version="1.1" id="Layer_1" xmlns="http://www.w3.org/2000/svg" xmlns:xlink="http://www.w3.org/1999/xlink" x="0px" y="0px"
	 viewBox="0 0 280 280" style="enable-background:new 0 0 280 280;" xml:space="preserve">
<title>Artboard 49 copy 36</title>
<path d="M129.6,13.5c4.3,0.9,8.7,1.5,12.8,2.8c24.6,7.9,41.1,32.2,39.1,57.3c-2.1,26.8-21.4,48-47.4,52.2
	c-30.8,5.1-59.9-15.8-65-46.6s15.8-59.9,46.6-65c1-0.2,2-0.3,3.1-0.4c0.5-0.1,1.1-0.2,1.6-0.4L129.6,13.5z"/>
<path d="M118.3,217.6c-3.2-31.9,15.1-62.1,44.8-74.1c-8.1-2.7-16.6-4.2-25.1-4.3c-9.1-0.1-18.2-0.1-27.2,0c-3.6,0-7.2,0.3-10.8,0.9
	c-39.4,6.5-68.6,40.2-69.3,80.2c-0.1,5.3,2.3,7.7,7.6,7.7h81.9C119.3,224.6,118.7,221.1,118.3,217.6z"/>
<path d="M210.1,156.2c-4.1-1.3-8.5-1.9-12.8-2.8h-9.2c-0.5,0.2-1.1,0.3-1.6,0.4c-31,3.4-53.5,31.3-50.1,62.3s31.3,53.5,62.3,50.1
	c1-0.1,2-0.2,3-0.4c26-4.2,45.3-25.4,47.4-52.2C251.1,188.4,234.7,164.1,210.1,156.2z M227.6,198.2c-12.3,12.3-24.6,24.7-36.9,36.9
	c-4.9,4.9-10.3,4.9-15.2-0.1c-5.9-5.8-11.8-11.7-17.6-17.6c-4.5-4.6-4.8-10.4-0.7-14.4s9.7-3.7,14.1,0.7c3.8,3.8,7.6,7.7,12.1,12.4
	c0.7-1.1,1.4-2.1,2.2-3.1c9.4-9.5,18.9-19,28.4-28.4c4.4-4.4,10.1-4.7,14.1-0.8S232.1,193.7,227.6,198.2L227.6,198.2z"/>
</svg>
