<svg id="Layer_1" data-name="Layer 1" xmlns="http://www.w3.org/2000/svg" viewBox="0 0 280 280"><defs><style>.cls-1{fill:#808285;stroke:#808285;stroke-miterlimit:10;stroke-width:2px;}</style></defs><title>Artboard 49 copy 18</title><path class="cls-1" d="M265,251.76c-1.94,4.24-5.3,5.47-9.83,5.44-23.27-.14-46.54-.06-69.81-.07-5.91,0-8.64-2.77-8.75-8.6-.13-7.43.13-14.8,3.12-21.88-.68-.51-1.23-1-1.82-1.36q-18.06-12-36.12-24.1c-1-.7-1.82-1.2-3.2-.27-12.39,8.37-24.86,16.64-37.31,25-.26.17-.49.4-1,.79,3,7.07,3.25,14.58,3.1,22.17-.11,5.38-2.94,8.3-8.31,8.3H23.35c-5.39,0-8.27-2.91-8.32-8.27-.07-6.44-.21-12.89,2-19.07C23,212.41,35.18,202.18,53.29,199c.6-.1,1.18-.27,2.22-.52-20.31-4.28-27.3-20.78-25.62-32.6A29.85,29.85,0,0,1,60.68,140c14.39.42,26.63,12,28,26.69a29.33,29.33,0,0,1-24.19,31.52c4.73,1.67,10.2,3,15,5.49s9,6.3,13.42,9.53l-.28.61c.49-.26,1-.47,1.45-.77q18.48-12.3,36.91-24.66a3.82,3.82,0,0,0,1.64-2.58c.1-14.89.07-29.78.06-44.67,0-.31-.07-.62-.13-1.18h-2.67c-8.55,0-17.09,0-25.63,0-5.21,0-8.09-3-8.18-8.18-.13-7.51,0-15,2.9-22.08,6.55-15.76,18.21-25.13,35.1-27.89.53-.08,1-.27,1.89-.5-20.58-4.48-26.62-21.43-25-32.66C113,33.71,125.11,22.91,139.67,22.8c14.91-.12,27.06,10.47,29.4,25.63,2.31,14.9-7,27.28-25.08,33,1.91.35,3.4.61,4.88.9a44,44,0,0,1,35.07,41.94c0,2.68.05,5.37,0,8-.07,4.58-3.1,7.64-7.7,7.66-9.51,0-19,0-28.72,0-.07.7-.18,1.32-.18,1.94,0,14.48,0,29,.05,43.44a3.79,3.79,0,0,0,1.28,2.77c12.53,8.47,25.14,16.83,37.72,25.22.27.17.56.3,1,.56a45.85,45.85,0,0,1,28.81-15.39c-8.1-1.72-14.73-5.58-19.49-12.3a28.66,28.66,0,0,1-5-22.22c2.42-14,15.09-24.26,29.59-24a29.87,29.87,0,0,1,28.8,25.93c1.62,11.27-4.92,28.2-25.73,32.64,2,.36,3.37.61,4.76.88a44.31,44.31,0,0,1,35.37,37,14.93,14.93,0,0,0,.45,1.62Z"/><path class="cls-1" d="M132.55,140v43.93s1.06,2.73-2.31,5-37.11,24.68-37.11,24.68,5.94,8,7.19,13.09l38.27-25.74a2.5,2.5,0,0,1,2.76,0c1.43.94,38.38,25.74,38.38,25.74a52.9,52.9,0,0,1,7.7-12.76l-38.1-25.75a4.55,4.55,0,0,1-.91-.74,4.32,4.32,0,0,1-1-1.76q0-22.83.11-45.68Z"/></svg>