<svg id="Layer_1" data-name="Layer 1" xmlns="http://www.w3.org/2000/svg" viewBox="0 0 280 280"><defs><style>.cls-1{fill:#808285;stroke:#808285;stroke-miterlimit:10;stroke-width:2px;}</style></defs><title>Artboard 49 copy 22</title><path class="cls-1" d="M194.12,140.12q0-56.48,0-112.93c0-8.74,2.74-12.18,9.7-12.19h42.31c6.55,0,9.47,3.66,9.48,11.89q0,113.1,0,226.19c0,8.16-3,11.9-9.51,11.9H203.26c-6.15,0-9.13-3.78-9.13-11.61Q194.12,196.74,194.12,140.12Z"/><path class="cls-1" d="M170.69,182.43q0,35.43,0,70.87c0,8.12-2.87,11.69-9.39,11.69H118.43c-6.14,0-9.23-3.76-9.23-11.32q0-71.37,0-142.73c0-7.4,3.06-11.15,9.07-11.16q21.69,0,43.39,0c6.07,0,9,3.64,9,11.12Q170.71,146.66,170.69,182.43Z"/><path class="cls-1" d="M24.38,219q0-18.4,0-36.81c0-5.79,3.1-8.93,8.93-8.94q21.82-.06,43.65,0c5.83,0,8.92,3.16,8.92,9q0,36.93,0,73.88c0,5.77-3.17,8.92-9,8.93H33.3c-5.78,0-8.91-3.15-8.91-9Q24.36,237.51,24.38,219Z"/></svg>