<svg id="Layer_1" data-name="Layer 1" xmlns="http://www.w3.org/2000/svg" viewBox="0 0 280 280"><title>Artboard 49 copy 34</title><path d="M265,98.51v27.83c-2.11,4.6-5.82,5.83-10.67,5.81-31.8-.12-63.61-.06-95.42-.06h-3.37V101H124.29v31.11h-3.2c-31.81,0-63.62-.06-95.42.06-4.85,0-8.56-1.21-10.67-5.81V98.51c4-10.72,7.71-13.3,19.23-13.3h45A17.72,17.72,0,0,0,75.78,82C65.39,73.93,60.33,63.44,62.39,50.25c2-13,9.45-22,22-25.7,12.77-3.8,24.47-1.22,33.66,8.86,7.8,8.56,13.09,18.78,17.42,29.45,2.71,6.67,4.5,13.58,4,20.89a4.94,4.94,0,0,0,.32,1.37,4.12,4.12,0,0,0,.59-2.36c.26-3.15.2-6.38.91-9.43,3.46-14.94,10.6-28.09,20.38-39.76C170,23.75,184.26,20.45,197,24.9a31.9,31.9,0,0,1,21.06,28.48c.48,12.18-4.58,21.7-14.22,28.94-1.09.82-2.16,1.67-3.74,2.89h3.45c14.72,0,29.45-.09,44.18.08a23.77,23.77,0,0,1,8.7,1.75C261.37,89.11,263.66,93.54,265,98.51ZM94.15,38.36A16.84,16.84,0,0,0,83,67.63,67.58,67.58,0,0,0,102.8,79.91a77.71,77.71,0,0,0,15,4.82c7.76,1.53,7-1.34,5.84-6.65a77.29,77.29,0,0,0-17.14-34.31A15.69,15.69,0,0,0,94.15,38.36Zm91.66.1A16.79,16.79,0,0,0,173,44.36a75,75,0,0,0-13.38,23.33,77,77,0,0,0-3.47,12.86c-.77,4.11.33,5.06,4.47,4.45,14.1-2.06,26.12-8.63,36.75-17.76,5.22-4.48,6.47-12.06,3.92-18.39A16.68,16.68,0,0,0,185.81,38.46Z"/><path d="M30.63,147.83h93.61V257.1H48c-10.87,0-17.33-6.46-17.33-17.29q0-44.67,0-89.34Z"/><path d="M155.76,257V147.9h93.51c0,.8.1,1.59.1,2.38q0,44.91,0,89.83c0,10.29-6.43,16.94-16.65,17-25.06.07-50.12,0-75.18,0C157,257.1,156.43,257,155.76,257Z"/></svg>