<svg id="Layer_1" data-name="Layer 1" xmlns="http://www.w3.org/2000/svg" viewBox="0 0 280 280"><defs><style>.cls-1{fill:#808285;stroke:#808285;stroke-miterlimit:10;stroke-width:2px;}</style></defs><title>Artboard 49 copy 30</title><path class="cls-1" d="M113.62,15h52.73c5.37,2,8.31,5.61,9,11.48.92,8.32,2.37,16.58,3.53,24.87a3.5,3.5,0,0,0,2,2.95c4.35,2.36,8.62,4.86,12.85,7.45a3.44,3.44,0,0,0,3.56.31c8-3.3,16.11-6.52,24.19-9.73,6.6-2.62,11.73-.84,15.32,5.34q11.44,19.72,22.82,39.49c3.64,6.32,2.52,11.8-3.25,16.32-6.73,5.26-13.44,10.55-20.22,15.75a3.47,3.47,0,0,0-1.49,3.26c.11,4.95.13,9.91,0,14.87a3.67,3.67,0,0,0,1.59,3.46c6.84,5.24,13.62,10.57,20.4,15.91,5.41,4.25,6.56,9.82,3.15,15.76q-11.48,20-23.06,39.9c-3.59,6.17-8.72,7.87-15.36,5.22-8-3.18-16-6.36-24-9.63a3.66,3.66,0,0,0-3.78.28c-4.21,2.61-8.51,5.08-12.84,7.48a3.3,3.3,0,0,0-1.93,2.74c-1.17,8.54-2.49,17.06-3.66,25.59-1,7.16-5.08,10.91-12.23,10.92q-23,0-45.9,0c-7.14,0-11.28-3.8-12.25-10.91-1.16-8.54-2.47-17.06-3.65-25.59a3.28,3.28,0,0,0-1.93-2.75c-4.41-2.43-8.69-5.09-13.11-7.5a4.38,4.38,0,0,0-3.25-.27c-8.11,3.13-16.15,6.43-24.23,9.64-6.67,2.66-11.76,1-15.35-5.21q-11.52-19.82-22.94-39.69c-3.57-6.2-2.43-11.72,3.2-16.13C30.28,161.32,37,156,43.77,150.83a3.67,3.67,0,0,0,1.58-3.46c-.14-5-.12-9.92,0-14.87a3.46,3.46,0,0,0-1.5-3.26c-6.71-5.16-13.35-10.4-20-15.61-6-4.72-7.14-10.07-3.34-16.66Q31.76,77.43,43.07,57.91c3.7-6.38,8.89-8.18,15.7-5.47,8,3.19,16,6.36,24,9.63a3.44,3.44,0,0,0,3.56-.29c4.22-2.59,8.49-5.1,12.84-7.47a3.52,3.52,0,0,0,2-2.94c1-7.41,2-14.82,3.19-22.21a41.27,41.27,0,0,1,2.14-8.68C107.73,17.44,110.81,16.27,113.62,15Zm68,125.11a41.61,41.61,0,1,0-41.66,41.5A41.57,41.57,0,0,0,181.6,140.11Z"/></svg>