<svg id="Layer_1" data-name="Layer 1" xmlns="http://www.w3.org/2000/svg" viewBox="0 0 500 500"><defs><style>.cls-1{fill:#231f20;}</style></defs><title>hypershapes icon</title><rect class="cls-1" x="232.47" y="183.74" width="35.06" height="6.62"/><rect class="cls-1" x="171.94" y="198.29" width="156.12" height="7.94"/><path class="cls-1" d="M298,208.65l-6,97.25H208.24l-6.18-97.25H298m11-10.36H191l7.5,118h103.2l7.28-118Z"/><path class="cls-1" d="M227,301.23a5.17,5.17,0,0,1-5.15-4.76l-6.32-78.06a5.18,5.18,0,1,1,10.32-.84l6.33,78.06a5.19,5.19,0,0,1-4.75,5.59Z"/><path class="cls-1" d="M273,301.23h-.42a5.19,5.19,0,0,1-4.75-5.59l6.32-78.06a5.18,5.18,0,1,1,10.32.84l-6.31,78.06A5.17,5.17,0,0,1,273,301.23Z"/><path class="cls-1" d="M250,301.67a5.17,5.17,0,0,1-5.18-5.18V217.55a5.18,5.18,0,1,1,10.36,0v78.94A5.17,5.17,0,0,1,250,301.67Z"/></svg>