<svg id="Layer_1" data-name="Layer 1" xmlns="http://www.w3.org/2000/svg" viewBox="0 0 500 500"><defs><style>.cls-1{fill:#fff;}.cls-2{fill:#43bcee;}</style></defs><title>status pop up </title><path class="cls-1" d="M250.06,12.9C119.29,12.9,12.89,119.28,12.89,250.05S119.29,487.1,250.06,487.1s237.05-106.34,237.05-237S380.77,12.9,250.06,12.9Z"/><path class="cls-2" d="M394.86,165.44V312.05a35.58,35.58,0,0,1-35.58,35.59H227.82l-67.93,50.75a9.26,9.26,0,0,1-14.8-7.41V347.64h-4.35a35.6,35.6,0,0,1-35.6-35.6V165.46a35.6,35.6,0,0,1,35.6-35.6H359.28A35.58,35.58,0,0,1,394.86,165.44Z"/><circle class="cls-1" cx="165.18" cy="240.56" r="24.21"/><circle class="cls-1" cx="250" cy="240.56" r="24.21"/><circle class="cls-1" cx="334.82" cy="240.56" r="24.21"/></svg>