<svg id="Layer_1" data-name="Layer 1" xmlns="http://www.w3.org/2000/svg" viewBox="0 0 500 500"><defs><style>.cls-1{fill:#7aea14;}.cls-2{fill:#fff;}</style></defs><title>status pop up </title><path class="cls-1" d="M360,145q-75.88,75.88-151.77,151.66c-1.24,1.24-2.38,2.48-3.62,3.72L139.89,235.6c-23.54-23.54-60,13-36.45,36.55q41.35,41.51,82.91,82.9a26.18,26.18,0,0,0,36.55,0q75.72-75.89,151.66-151.67c7.34-7.33,14.67-14.66,21.89-22C420,157.85,383.55,121.41,360,145Z"/><path class="cls-2" d="M250.05,12.9C119.24,12.9,12.9,119.24,12.9,250.05S119.24,487.1,250.05,487.1s237.05-106.34,237.05-237S380.76,12.9,250.05,12.9Zm146.4,168.49c-7.22,7.33-14.55,14.66-21.89,22Q298.69,279.12,222.9,355.05a26.18,26.18,0,0,1-36.55,0q-41.5-41.51-82.91-82.9c-23.53-23.54,12.91-60.09,36.45-36.55l64.73,64.73c1.24-1.24,2.38-2.48,3.62-3.72Q284.13,220.74,360,145C383.55,121.41,420,157.85,396.45,181.39Z"/></svg>