<svg height="30" viewBox="0 0 512 512" width="30" xmlns="http://www.w3.org/2000/svg"><g><g fill="#734bbd"><path d="m224 128v80a8 8 0 0 1 -8 8h-96v-48h16v-24h-16v-24h96a8 8 0 0 1 8 8z"/><path d="m216 48-8-32h96l-8 32z"/><path d="m392 240v144h-104l-8-80h-24v-64z"/><path d="m304 16-8 32h-80l-8-32z"/><path d="m432 240v144h-144l-8-80h-24v-64z"/><path d="m384 240h48v144h-48z"/><path d="m216 120h-128a8 8 0 0 0 -8 8v80a8 8 0 0 0 8 8h128a8 8 0 0 0 8-8v-80a8 8 0 0 0 -8-8zm-80 48h-32v-24h32z"/></g><g fill="#004fac"><path d="m280 464h-48a8 8 0 0 0 0 16h48a8 8 0 0 0 0-16z"/><path d="m432 232h-32v-196a28.031 28.031 0 0 0 -28-28h-232a28.031 28.031 0 0 0 -28 28v76h-24a16.021 16.021 0 0 0 -16 16v80a16.021 16.021 0 0 0 16 16h24v252a28.031 28.031 0 0 0 28 28h232a28.031 28.031 0 0 0 28-28v-84h32a8 8 0 0 0 8-8v-144a8 8 0 0 0 -8-8zm-138.25-208-4 16h-67.5l-4-16zm-205.75 184v-80h128l.01 80zm296 24h-24v-8a39.807 39.807 0 0 0 -7.22-22.89 24 24 0 0 1 31.22 22.89zm-111.24 80 6.4 64h-94.32l6.4-64zm-56.76-16a16 16 0 0 1 32 0zm48 0v-48h16v8a8 8 0 0 0 16 0v-8h48v8a8 8 0 0 0 16 0v-8h16v128h-80.76l-7.28-72.8a8 8 0 0 0 -7.96-7.2zm32-64v-8a24 24 0 0 1 31.22-22.89 39.807 39.807 0 0 0 -7.22 22.89v8zm40 0v-8a23.916 23.916 0 0 1 4-13.25 23.916 23.916 0 0 1 4 13.25v8zm48-39.98a39.9 39.9 0 0 0 -44-2.64 39.971 39.971 0 0 0 -60 34.62v8h-24a8 8 0 0 0 -8 8v28.3a31.983 31.983 0 0 0 -48 27.7h-16a8 8 0 0 0 -7.96 7.2l-8 80a8 8 0 0 0 7.96 8.8h208v84a12.01 12.01 0 0 1 -12 12h-232a12.01 12.01 0 0 1 -12-12v-252h88a16.021 16.021 0 0 0 16-16v-80a16.021 16.021 0 0 0 -16-16h-88v-76a12.01 12.01 0 0 1 12-12h61.75l6.49 25.94a8 8 0 0 0 7.76 6.06h80a8 8 0 0 0 7.76-6.06l6.49-25.94h61.75a12.01 12.01 0 0 1 12 12zm40 183.98h-32v-128h32z"/><path d="m408 352a8 8 0 0 0 8-8v-80a8 8 0 0 0 -16 0v80a8 8 0 0 0 8 8z"/><path d="m144 168v-24a8 8 0 0 0 -8-8h-32a8 8 0 0 0 -8 8v24a8 8 0 0 0 8 8h32a8 8 0 0 0 8-8zm-16-8h-16v-8h16z"/><path d="m160 200h40a8 8 0 0 0 0-16h-40a8 8 0 0 0 0 16z"/><path d="m192 152h8a8 8 0 0 0 0-16h-8a8 8 0 0 0 0 16z"/></g></g></svg>
