<svg id="Layer_1" data-name="Layer 1" xmlns="http://www.w3.org/2000/svg" viewBox="0 0 500 500"><defs><style>.cls-1,.cls-2{fill:#43bcee;}.cls-1{stroke:#43bcee;stroke-miterlimit:10;}</style></defs><title>hypershapes icon</title><path class="cls-1" d="M326.31,226.49a35.76,35.76,0,0,0-22.65-29,35.8,35.8,0,0,0-32,3.7A34.54,34.54,0,0,0,264,208a35.31,35.31,0,0,0-7.79,18.44,33.66,33.66,0,0,0,0,8.51,34.47,34.47,0,0,0,4.6,13.63,35.75,35.75,0,0,0,36.92,16.71,34.11,34.11,0,0,0,18.21-9.6,34.64,34.64,0,0,0,4.61-5.7,36.39,36.39,0,0,0,4-8.05,37.56,37.56,0,0,0,2.06-11.41A39,39,0,0,0,326.31,226.49Zm-41.09-23.86a27.25,27.25,0,0,1,6-.67,28.07,28.07,0,0,1,18.55,7l-9.13,9.13-6,6-3.21,3.2-18.55-18.54a29,29,0,0,1,3.74-2.68A28,28,0,0,1,285.22,202.63ZM268,247q-.32-.42-.6-.87c-.21-.33-.42-.65-.62-1a25.31,25.31,0,0,1-1.3-2.4c-.16-.33-.33-.68-.45-1a24.8,24.8,0,0,1-1-2.6,9.72,9.72,0,0,1-.29-1c-.22-.73-.4-1.47-.55-2.22,0,0,0,0,0-.06,0-.22-.08-.46-.12-.68s0-.17,0-.26a1.49,1.49,0,0,0,0-.18c0-.2,0-.39-.08-.58s-.07-.54-.09-.81c-.05-.52-.09-1-.12-1.58s0-.84,0-1.27c0-.68,0-1.37.09-2.07,0-.34,0-.68.08-1s.09-.68.14-1c.1-.64.21-1.26.35-1.88.08-.39.18-.78.27-1.17l.24-.83c.08-.3.19-.61.28-.91.25-.73.53-1.45.83-2.15.14-.33.29-.68.45-1l0,0c.12-.27.26-.54.4-.8.45-.88,1-1.74,1.49-2.57.15-.23.33-.47.49-.72.48-.7,1-1.36,1.55-2l18.53,18.54-18.22,18.22C269,248.44,268.49,247.75,268,247Zm23.28,12.15a28.32,28.32,0,0,1-18-6.5L290.93,235l.51-.49.49.49,17.52,17.52A28,28,0,0,1,291.25,259.17Zm27.52-21.3c-.17.62-.36,1.26-.58,1.86-.1.31-.21.61-.33.92-.23.62-.49,1.22-.76,1.81l-.36.72c-.16.33-.33.65-.5,1s-.37.66-.56,1-.33.54-.5.81-.45.68-.69,1c0,0,0,0,0,0a11.07,11.07,0,0,1-.71,1c-.24.32-.49.63-.75,1l-18-18,3.21-3.22,6-6,9.06-9.06a29,29,0,0,1,2.8,4.18c.16.27.3.54.44.82s.31.6.45.91.25.52.37.78.18.42.27.65a1.19,1.19,0,0,1,.08.2c.11.25.2.51.29.75.17.47.33.93.46,1.39a5.53,5.53,0,0,1,.24.79,6.55,6.55,0,0,1,.18.67c.14.48.24,1,.35,1.46s.17.84.22,1.26.11.67.15,1a8.2,8.2,0,0,1,.1.85c0,.17,0,.35,0,.53s.05.42.06.64l0,1.06c0,.78-.05,1.54-.14,2.29,0,.34-.06.66-.11,1a.22.22,0,0,0,0,.08c0,.35-.11.71-.16,1.06s-.12.66-.19,1-.08.37-.13.56C319,237,318.9,237.43,318.77,237.87Z"/><path class="cls-2" d="M330.33,261.71a4,4,0,0,1-1.16,2.8l-69.91,69.91a4,4,0,0,1-5.61,0l-81.88-81.88a4,4,0,0,1-1.16-2.75l-.94-69.91a4,4,0,0,1,4-4h70.84a4,4,0,0,1,2.82,1.17l18.55,18.54a2.28,2.28,0,0,1,0,3.2c-.73.74-1.43,1.52-2.09,2.33l0,0a2.31,2.31,0,0,1-3.41.15l-17.48-17.48H177.65l.87,64.28L256.46,326l64.3-64.3-2.53-2.53a2,2,0,0,1,.14-3c.94-.78,1.84-1.6,2.69-2.46h0a2.06,2.06,0,0,1,2.92,0l5.19,5.19A4,4,0,0,1,330.33,261.71Z"/><circle class="cls-2" cx="213.82" cy="218.82" r="11.74"/></svg>