<svg id="Layer_1" data-name="Layer 1" xmlns="http://www.w3.org/2000/svg" viewBox="0 0 500 500"><defs><style>.cls-1{fill:#f5ba12;}</style></defs><title>hypershapes icon</title><path class="cls-1" d="M306.07,183.59H287A22.14,22.14,0,0,0,265.33,166H264.2v-4.44a3.68,3.68,0,0,0-3.68-3.68H239.44a3.68,3.68,0,0,0-3.68,3.68V166h-1.18A22.07,22.07,0,0,0,213,183.59H193.93a14.1,14.1,0,0,0-14.08,14.09V328.09a14.09,14.09,0,0,0,14.08,14.08H306.07a14.1,14.1,0,0,0,14.08-14.08V197.76A14.15,14.15,0,0,0,306.07,183.59Zm-71.49-8.73h30.75a13.22,13.22,0,0,1,12.42,8.73h-55.5A13.14,13.14,0,0,1,234.58,174.86Zm76.66,153.23a5.18,5.18,0,0,1-5.17,5.17H193.93a5.18,5.18,0,0,1-5.17-5.17V197.68a5.18,5.18,0,0,1,5.17-5.18H306.07a5.29,5.29,0,0,1,5.17,5.26Z"/><path class="cls-1" d="M246,297.13v-6.31c-6.61-.09-13.34-1.76-17.55-4.11a.71.71,0,0,1-.3-.91l2.29-5.41a.71.71,0,0,1,1-.36,36.62,36.62,0,0,0,16.35,4c8.46,0,14.18-4.12,14.18-9.86,0-5.53-4.65-8.95-13.47-12-12.14-4-19.65-8.75-19.65-17.5,0-8.36,7-14.69,17.87-16.21v-6.3a3.75,3.75,0,0,1,3.75-3.75h0a3.75,3.75,0,0,1,3.76,3.75v6a37.75,37.75,0,0,1,14.44,3,1.13,1.13,0,0,1,.59,1.49l-2.06,4.58a1.11,1.11,0,0,1-1.49.56,32.25,32.25,0,0,0-14-3c-9.17,0-12.63,4.63-12.63,8.76,0,5.13,4.41,7.74,14.78,11.47,12.27,4.22,18.46,9.36,18.46,18.31,0,8-6.55,15.49-18.82,17.1v6.71a3.75,3.75,0,0,1-3.76,3.75h0A3.75,3.75,0,0,1,246,297.13Z"/></svg>