<svg id="Layer_1" data-name="Layer 1" xmlns="http://www.w3.org/2000/svg" viewBox="0 0 500 500"><defs><style>.cls-1{fill:#808285;}</style></defs><title>hypershapes icon</title><path class="cls-1" d="M322.22,304H177.78l4.09,4.09V192L177.78,196H322.22L318.13,192v116.1c0,5.27,8.18,5.28,8.18,0V192a4.15,4.15,0,0,0-4.09-4.09H177.78a4.15,4.15,0,0,0-4.09,4.09v116.1a4.15,4.15,0,0,0,4.09,4.09H322.22C327.49,312.14,327.5,304,322.22,304Z"/><path class="cls-1" d="M304.11,218.41v7.35H195.89v-7.35H304.11m2.71-4.4H193.18a1.7,1.7,0,0,0-1.7,1.7v12.76a1.7,1.7,0,0,0,1.7,1.7H306.82a1.7,1.7,0,0,0,1.7-1.7V215.71a1.7,1.7,0,0,0-1.7-1.7Z"/><path class="cls-1" d="M243.42,239.47v42.12H195.89V239.47h47.53m2.71-4.41H193.18a1.7,1.7,0,0,0-1.7,1.7v47.53a1.7,1.7,0,0,0,1.7,1.7h52.95a1.7,1.7,0,0,0,1.69-1.7V236.76a1.7,1.7,0,0,0-1.69-1.7Z"/><path class="cls-1" d="M304.11,239.47V249H256.58v-9.55h47.53m2.71-4.41H253.87a1.7,1.7,0,0,0-1.69,1.7v15a1.7,1.7,0,0,0,1.69,1.7h52.95a1.7,1.7,0,0,0,1.7-1.7v-15a1.7,1.7,0,0,0-1.7-1.7Z"/><path class="cls-1" d="M304.11,263v18.62H256.58V263h47.53m2.71-4.4H253.87a1.7,1.7,0,0,0-1.69,1.7v24a1.7,1.7,0,0,0,1.69,1.7h52.95a1.7,1.7,0,0,0,1.7-1.7v-24a1.7,1.7,0,0,0-1.7-1.7Z"/></svg>