<svg id="Layer_1" data-name="Layer 1" xmlns="http://www.w3.org/2000/svg" viewBox="0 0 500 500"><defs><style>.cls-1{fill:#808285;}</style></defs><title>hypershapes icon</title><path class="cls-1" d="M196.66,214.17a.9.9,0,0,0-.5.1,4.13,4.13,0,0,0,1.11,0A1.29,1.29,0,0,1,196.66,214.17Zm0,0a.9.9,0,0,0-.5.1,4.13,4.13,0,0,0,1.11,0A1.29,1.29,0,0,1,196.66,214.17Z"/><path class="cls-1" d="M324.08,246.84c-2-.11-3.95-.11-6-.11V216.5a.63.63,0,0,0-.1-.41v-.6a1.42,1.42,0,0,0-.2-.61,8.93,8.93,0,0,0-7.08-7.48c-.51-3.54-1.11-7.49-3.44-10.12-4-4.75-9.81-3.84-15.17-3.13-.3,0-.61.1-.91.1-3.44-7.58-7.08-15.27-17.29-12.74-4.45,1.11-8.9,2.73-13.25,4-18.5,5.57-37.11,11.13-55.62,16.79-5,1.52-9.81,2.93-14.76,4.45h-1.42c-4.14,0-9.7-.81-13.34,1.62-5.37,3.64-4.35,10.31-4.35,16v29.32c0,18-.81,36.21,0,54.2.6,14.16,18.3,10.62,28.11,10.62h65.83c14.16,0,28.82,1,43,0,7.69-.5,10-6.27,10-12.84v-26.8h6a1.33,1.33,0,0,0,.61-.1h.09a.61.61,0,0,0,.41-.1c3.14-.61,3.74-3.64,3.74-6.57V261.8C328.93,257.15,330.85,247.24,324.08,246.84Zm-35.9-44.6h.2a1.33,1.33,0,0,0,.61-.1,1.24,1.24,0,0,0,.81-.2h.2c2.32-.31,4.65-.71,7-.91,4.14-.21,5.36,2.52,6,5.76H254.3c7.28-1,14.46-1.92,21.64-2.93C280,203.35,284.13,202.85,288.18,202.24ZM273.61,189.5c2.43-.71,5.16-1.82,7.19.5a16.53,16.53,0,0,1,2.83,5.26q-26.1,3.5-52.08,7Zm36.91,118c-.9,4.45-4.34,3.44-8.08,3.44H193.63c-3.54,0-9.11,1.21-12.44,0-3.85-1.32-2.43-6.88-2.43-10v-80.8c0-3.54.3-5.36,4-5.77a47.59,47.59,0,0,1,6.58-.3h.1a22.26,22.26,0,0,1,2.53.1h2a3.42,3.42,0,0,0,1,0,3.89,3.89,0,0,0,1.12.1.9.9,0,0,1,.5-.1,1.29,1.29,0,0,0,.61.1h.3a.37.37,0,0,0,.3.1h98.2c2,0,6.47-.7,9.91-.3a3.55,3.55,0,0,0,1,.2.37.37,0,0,0,.3.1h.1c1.62.51,2.83,1.32,3.13,2.84v29.63H288.28c-4.55,0-9.2-.31-13.86,0-6.77.3-5.05,9.2-5.05,13.85v10.42c0,2.62-.2,5.56,2.43,7.17,1.41.81,3.23.61,4.85.61h33.87v10C310.52,294.57,311.74,302,310.52,307.51Zm13.36-33.67H276.65a13.87,13.87,0,0,0-2.23.1c-.4-.41,0-3.85,0-4.76V254.62c0-.71-.3-2,0-2.63v-.1c.31-.2,1.22,0,1.52,0h44.4c.6,0,2.93-.5,3.64,0a2.26,2.26,0,0,0-.1.81v19.92C323.88,273.33,324.08,273.63,323.88,273.84Z"/><path class="cls-1" d="M307.29,214.37H296.07c2,0,6.47-.7,9.91-.3a3.55,3.55,0,0,0,1,.2A.37.37,0,0,0,307.29,214.37Z"/><path class="cls-1" d="M192,214.17a22.26,22.26,0,0,0-2.53-.1,3.43,3.43,0,0,0,1.52.3,15.44,15.44,0,0,0,3-.2Z"/><path class="cls-1" d="M290.1,254.42a8.85,8.85,0,0,0-9.81,2.63,9,9,0,0,0-.81,10.11,9.17,9.17,0,0,0,9.3,4.15,8.8,8.8,0,0,0,1.32-16.89Zm-.81,14.16a6.34,6.34,0,0,1-7.08-2,6.25,6.25,0,0,1-.5-7.07,6.27,6.27,0,1,1,7.58,9.1Z"/></svg>