<svg id="Layer_1" data-name="Layer 1" xmlns="http://www.w3.org/2000/svg" viewBox="0 0 280 280"><defs><style>.cls-1{fill:#7239ea;}</style></defs><title>Artboard 49 copy 16</title><path class="cls-1" d="M15,147.34V132.7c.15-.87.32-1.73.45-2.59.78-5.39,1.23-10.84,2.38-16.14,6.53-30,22-54.61,46.4-73.13,30.42-23,64.68-30.68,102-22.89,29.9,6.23,54.21,21.9,72.81,46.07,20.08,26.09,28.43,55.8,25.29,88.51a120.78,120.78,0,0,1-30.5,69.86c-19.36,21.9-43.48,35.54-72.31,40.66-4.7.84-9.47,1.31-14.21,1.95H132.69a12.47,12.47,0,0,0-1.89-.4,119,119,0,0,1-54.54-17.2C43.88,227.56,23.94,199,17,161.52,16.07,156.84,15.64,152.07,15,147.34ZM140.05,34.45A105.64,105.64,0,0,0,34.42,139.93c-.13,58.13,47.1,105.46,105.44,105.66S245.65,198.27,245.61,140A105.64,105.64,0,0,0,140.05,34.45Z"/><path class="cls-1" d="M130.27,111.56c0-9.46-.06-18.91,0-28.37.07-7.4,6.6-12.12,13.16-9.65,4,1.5,6.29,5.11,6.3,10.08,0,16.55.05,33.1,0,49.64a4.77,4.77,0,0,0,2.24,4.4q16.13,11.93,32.09,24c3.82,2.88,5.24,6.71,4.13,10.67a9.64,9.64,0,0,1-15.26,5.17c-6.15-4.44-12.15-9.06-18.22-13.61-6.45-4.84-12.85-9.77-19.38-14.5a11.6,11.6,0,0,1-5.06-10.23C130.33,130,130.27,120.77,130.27,111.56Z"/></svg>