<svg id="Layer_1" data-name="Layer 1" xmlns="http://www.w3.org/2000/svg" viewBox="0 0 280 280"><defs><style>.cls-1{fill:#009ef7;}</style></defs><title>Artboard 49 copy 15</title><path class="cls-1" d="M223.77,265l-24.68-24.41-18,18.06c-2.84-10.54-5.49-20.34-8.16-30.25-29.1,9.95-57.61,9.28-85.35-3.8a107.35,107.35,0,0,1-52.14-51.72A109.82,109.82,0,0,1,65.07,39.81c39-32,96-33.16,135.5-2.86,22.82,17.51,37.31,40.27,42.36,68.69,5,28.27-.49,54.6-15.69,79.16l21,5.67-17.86,17.76,25.1,25c-.79.85-1.36,1.49-2,2.1Q239.7,249.17,225.9,263a22.94,22.94,0,0,0-1.64,2ZM164,194.76c-19.28,7.66-38.56,8.05-57.65.28a73.4,73.4,0,0,1-41.17-40.5A75.47,75.47,0,0,1,182.87,67.05c13.53,11.25,22.32,25.6,25.71,42.87,4.79,24.33-1.3,46-17.3,65.28,6.5,1.73,12.7,3.32,18.85,5.09,1.58.45,2.31,0,3.15-1.24,13.61-20.3,19-42.52,15.84-66.78a91.49,91.49,0,0,0-11.06-33.34A94.11,94.11,0,0,0,174,38.3a95.17,95.17,0,0,0-107.32,20,94.38,94.38,0,0,0-26.3,52.53,95.28,95.28,0,0,0,32.43,86.82,94.74,94.74,0,0,0,43.62,21.09,91.58,91.58,0,0,0,34.92.26c6-1.12,11.88-3,17.9-4.57Zm-7.7-29c5.84,1.58,11.18,3,16.49,4.48a3.26,3.26,0,0,0,3.64-.9,65.82,65.82,0,0,0,12.49-16.72c11-21,8-48.62-7.51-66.55-18.93-21.94-48.13-28-74.08-15.36C83.05,82.56,69.21,111.17,75,137.53c6.21,28.19,30.25,48,58.94,48.39a58.83,58.83,0,0,0,26.12-5.59C158.81,175.54,157.59,170.87,156.27,165.8Zm53.41,42.79,10.72-10.42L177,186.54c4,14.73,7.76,28.91,11.7,43.6l10.58-10.95,24.49,24.75,10.7-10.67Z"/><path class="cls-1" d="M173.29,125c.13,21.14-17.38,38.69-38.62,38.72a38.65,38.65,0,0,1-.16-77.29C155.59,86.23,173.16,103.71,173.29,125Zm-38.94,24c12.88.3,23.9-10.43,24.25-23.61.34-12.85-10.38-23.93-23.54-24.34-12.9-.4-24.13,10.54-24.38,23.75C110.43,137.75,121.19,148.75,134.35,149.06Z"/></svg>