<svg id="Layer_1" data-name="Layer 1" xmlns="http://www.w3.org/2000/svg" viewBox="0 0 280 280"><defs><style>.cls-1{fill:#50cd89;}</style></defs><title>Artboard 49 copy 14</title><path class="cls-1" d="M131.68,148.45H60.07c0,.7-.14,1.4-.14,2.1,0,13.34,0,26.68,0,40,0,1.64.37,2.35,2.07,2.85a36.55,36.55,0,1,1-46.45,41.17,16.37,16.37,0,0,0-.51-1.82v-8.3a10.56,10.56,0,0,0,.43-1.39c2.66-15,11.36-24.82,25.72-29.61,1.78-.6,2.18-1.34,2.17-3,0-16.36,0-32.71,0-49.06,0-6.6,3.11-9.68,9.73-9.69h78.66V129c0-13-.05-26,0-39.06,0-2-.52-2.87-2.56-3.5a36.39,36.39,0,0,1-25.76-36c.36-15.87,11.59-30,27.25-34.18,1.79-.48,3.62-.83,5.43-1.24h7.81c2.6.65,5.24,1.13,7.77,2a36.46,36.46,0,0,1-1,69.51c-1.8.54-2.38,1.25-2.36,3.15.09,13.18,0,26.36,0,39.54v2.51H227c6.63,0,9.75,3.09,9.75,9.66,0,16.27,0,32.54,0,48.81,0,1.89.38,2.8,2.38,3.39a36.47,36.47,0,1,1-21.15-.12c1.17-.36,2.23-.44,2.22-2.23-.09-13.91-.05-27.83-.06-41.74a7.74,7.74,0,0,0-.15-1H148.46M140.17,31.67A20,20,0,1,0,160,51.92,20.1,20.1,0,0,0,140.17,31.67ZM31.65,228.42a20,20,0,1,0,20-20A20.09,20.09,0,0,0,31.65,228.42Zm216.68.12a20,20,0,1,0-20,19.79A20.09,20.09,0,0,0,248.33,228.54Z"/></svg>