<svg id="Layer_1" data-name="Layer 1" xmlns="http://www.w3.org/2000/svg" viewBox="0 0 280 280"><defs><style>.cls-1{fill:#f1416c;}</style></defs><title>Artboard 49 copy 13</title><path class="cls-1" d="M156.86,15c4.23,1.32,8.74,2.1,12.64,4.07,13.77,7,21.18,18.38,21.94,33.82.34,6.81.14,13.66.06,20.5a9.74,9.74,0,1,1-19.48,0c-.09-6,0-12.05,0-18.07,0-12.5-8.31-20.79-20.83-20.8H55.7c-12.65,0-20.91,8.29-20.91,21q0,84.45,0,168.91c0,12.81,8.25,21,21.1,21h95c13,0,21.12-8.22,21.13-21.23,0-5.7,0-11.4,0-17.09,0-6.16,4.17-10.52,9.83-10.48S191.54,201,191.5,207c-.05,8.13.34,16.32-.55,24.37-2,18.33-18.13,32.82-36.59,33.49-6,.22-12,.09-18.06.09q-40.53,0-81.06,0c-17.58,0-32.2-10.07-37.73-26.36a41.84,41.84,0,0,1-2.17-13.14q-.21-85.56-.06-171.11c0-19.93,13.85-35.78,33.55-38.91A5.08,5.08,0,0,0,49.92,15Z"/><path class="cls-1" d="M264.77,145.84c-1.8,6.81-6.27,11.76-11.21,16.48C247.62,168,242,174,236.06,179.68a9.4,9.4,0,0,1-11.48,1.48,9.15,9.15,0,0,1-4.67-10.33,14,14,0,0,1,3.35-5.75c4.63-4.9,9.5-9.57,14.81-14.85h-3.38q-56.28,0-112.55,0c-3.24,0-6.19-.62-8.44-3.06A9.29,9.29,0,0,1,111.64,137a9.43,9.43,0,0,1,8.3-6.25,26,26,0,0,1,2.93-.06H237.75c-.71-.82-1.13-1.36-1.61-1.84-4.59-4.62-9.3-9.11-13.75-13.86a9.67,9.67,0,0,1,4.91-16.27,8.93,8.93,0,0,1,8.58,2.36c7.87,7.77,15.87,15.44,23.34,23.59,2.58,2.81,3.74,6.9,5.55,10.41Z"/></svg>