<svg id="Layer_1" data-name="Layer 1" xmlns="http://www.w3.org/2000/svg" viewBox="0 0 500 500"><defs><style>.cls-1,.cls-2{fill:#231f20;}.cls-2{stroke:#000;stroke-miterlimit:10;stroke-width:0.75px;}</style></defs><title>hypershapes icon</title><path class="cls-1" d="M302.76,240.89c-20,0-45.12.05-65.16,0-6.77,0-14,.1-14.19,8.92s6.89,9.36,13.79,9.32c20.26-.1,45.15,0,65.41,0-.52.61-2.3,2.29-2.92,2.83-8.41,7.92-16.84,15.81-25.22,23.76-5,4.74-9.4,10-2.66,16.26,6.17,5.68,11,1.13,15.48-3.37,13.09-13.14,26.1-26.36,39.4-39.29,6.46-6.28,6.91-11.81.27-18.29-13.83-13.46-27.38-27.21-41-40.88-4.52-4.54-9.46-7-14.69-1.56s-2.4,10.37,2.14,14.68c8.7,8.26,17.46,16.47,26.19,24.7Z"/><path class="cls-2" d="M190.53,325.18h55.13a7.5,7.5,0,0,0,7.49-7.5h0a7.49,7.49,0,0,0-7.49-7.49H199a6,6,0,0,1-6-6V195.8a6,6,0,0,1,6-6h46.7a7.49,7.49,0,0,0,7.49-7.49h0a7.5,7.5,0,0,0-7.49-7.5H190.53A12.56,12.56,0,0,0,178,187.38V312.62A12.56,12.56,0,0,0,190.53,325.18Z"/></svg>