<?xml version="1.0" encoding="utf-8"?>
<!-- Generator: Adobe Illustrator 24.1.0, SVG Export Plug-In . SVG Version: 6.00 Build 0)  -->
<svg version="1.1" id="Layer_1" xmlns="http://www.w3.org/2000/svg" xmlns:xlink="http://www.w3.org/1999/xlink" x="0px" y="0px"
	 viewBox="0 0 500 500" style="enable-background:new 0 0 500 500;" xml:space="preserve">
<style type="text/css">
	.st0{fill:none;}
	.st1{fill:none;stroke:#202930;stroke-width:12;stroke-linecap:round;stroke-linejoin:round;stroke-miterlimit:7.3333;}
	.st2{fill:#202930;}
</style>
<g>
	<path class="st0" d="M-1734.89-1149.76h501.53v501.53h-501.53V-1149.76z"/>
	<g>
		<circle class="st1" cx="-1484.12" cy="-1045.27" r="41.79"/>
		<path class="st1" d="M-1525.92-690.02v-104.49l-20.9-20.9v-83.59c0-11.54,9.36-20.9,20.9-20.9h83.59c11.54,0,20.9,9.36,20.9,20.9
			v83.59l-20.9,20.9v104.49"/>
	</g>
</g>
<g>
	<path class="st0" d="M0,0h500v500H0V0z"/>
	<g>
		<path class="st1" d="M187.5,104.17h-41.67c-23.01,0-41.67,18.65-41.67,41.67v250c0,23.01,18.65,41.67,41.67,41.67h208.33
			c23.01,0,41.67-18.65,41.67-41.67v-250c0-23.01-18.65-41.67-41.67-41.67H312.5"/>
		<path class="st1" d="M229.17,62.5h41.67c23.01,0,41.67,18.65,41.67,41.67l0,0c0,23.01-18.65,41.67-41.67,41.67h-41.67
			c-23.01,0-41.67-18.65-41.67-41.67l0,0C187.5,81.15,206.15,62.5,229.17,62.5z"/>
		<path class="st1" d="M187.5,291.67l41.67,41.67L312.5,250"/>
	</g>
</g>
<g>
	<path class="st0" d="M250-991.98h500v500H250V-991.98z"/>
	<g>
		<ellipse class="st1" cx="500" cy="-866.98" rx="166.67" ry="62.5"/>
		<path class="st1" d="M333.33-866.98v125c0,34.52,74.62,62.5,166.67,62.5s166.67-27.98,166.67-62.5v-125"/>
		<path class="st1" d="M333.33-741.98v125c0,34.52,74.62,62.5,166.67,62.5s166.67-27.98,166.67-62.5v-125"/>
	</g>
</g>
<g>
	<path class="st0" d="M1848.83-871.71h500v500h-500V-871.71z"/>
	<g>
		<polyline class="st1" points="2098.83,-809.21 2265.5,-715.46 2265.5,-527.96 2098.83,-434.21 1932.16,-527.96 1932.16,-715.46 
			2098.83,-809.21 		"/>
		<line class="st1" x1="2098.83" y1="-621.71" x2="2265.5" y2="-715.46"/>
		<line class="st1" x1="2098.83" y1="-621.71" x2="2098.83" y2="-434.21"/>
		<line class="st1" x1="2098.83" y1="-621.71" x2="1932.16" y2="-715.46"/>
		<line class="st1" x1="2182.16" y1="-762.34" x2="2015.5" y2="-668.59"/>
	</g>
</g>
<g>
	<path class="st0" d="M-1734.12-540.72h500v500h-500V-540.72z"/>
	<g>
		<path class="st1" d="M-1629.96-436.55h291.67c23.01,0,41.67,18.65,41.67,41.67v208.33c0,23.01-18.65,41.67-41.67,41.67h-291.67
			c-23.01,0-41.67-18.65-41.67-41.67v-208.33C-1671.62-417.9-1652.97-436.55-1629.96-436.55z"/>
		<polyline class="st1" points="-1671.62,-394.89 -1484.12,-269.89 -1296.62,-394.89 		"/>
	</g>
</g>
<g>
	<path class="st0" d="M1248.18-663.38h495.95v495.95h-495.95V-663.38z"/>
	<g>
		<path class="st1" d="M1461.54-574.17c8.8-36.29,60.42-36.29,69.23,0c4.63,19.12,23.89,30.87,43.01,26.23
			c3.58-0.87,7.01-2.29,10.16-4.21c31.89-19.42,68.4,17.07,48.97,48.97c-10.24,16.8-4.91,38.72,11.89,48.96
			c3.14,1.91,6.55,3.32,10.11,4.19c36.29,8.8,36.29,60.42,0,69.23c-19.12,4.63-30.87,23.89-26.23,43.01
			c0.87,3.58,2.29,7.01,4.21,10.16c19.42,31.89-17.07,68.4-48.97,48.97c-16.8-10.24-38.72-4.91-48.96,11.89
			c-1.91,3.14-3.32,6.55-4.19,10.11c-8.8,36.29-60.42,36.29-69.23,0c-4.63-19.12-23.89-30.87-43.01-26.23
			c-3.58,0.87-7.01,2.29-10.16,4.21c-31.89,19.42-68.4-17.07-48.97-48.97c10.24-16.8,4.91-38.72-11.89-48.96
			c-3.14-1.91-6.55-3.32-10.11-4.19c-36.29-8.8-36.29-60.42,0-69.23c19.12-4.63,30.87-23.89,26.23-43.01
			c-0.87-3.58-2.29-7.01-4.21-10.16c-19.42-31.89,17.07-68.4,48.97-48.97C1429.05-539.6,1455.83-550.72,1461.54-574.17z"/>
		<circle class="st1" cx="1496.15" cy="-415.4" r="61.99"/>
	</g>
</g>
<g>
	<path class="st0" d="M844.44-913.38h500v500h-500V-913.38z"/>
	<g>
		<polyline class="st1" points="906.94,-559.21 1031.94,-684.21 1115.27,-600.88 1281.94,-767.54 		"/>
		<polyline class="st1" points="1136.11,-767.54 1281.94,-767.54 1281.94,-621.71 		"/>
	</g>
</g>
<g>
	<path class="st0" d="M779.07-417.43h500v500h-500V-417.43z"/>
	<path class="st1" d="M924.9-209.1h62.5v-62.5l-72.92-72.92c62.3-29.75,136.91-3.37,166.67,58.93c16.27,34.07,16.27,73.67,0,107.74
		l125,125c17.26,17.26,17.26,45.24,0,62.5c-17.26,17.26-45.24,17.26-62.5,0l-125-125c-62.3,29.75-136.91,3.37-166.67-58.93
		c-16.27-34.07-16.27-73.67,0-107.74L924.9-209.1"/>
</g>
<g>
	<path class="st0" d="M1558.14-289.64h500v500h-500V-289.64z"/>
	<path class="st1" d="M1672.72-185.47h270.83c10.86,3.81,16.57,15.7,12.76,26.55c-0.58,1.66-1.37,3.24-2.35,4.7L1849.81-39.64V106.2
		l-83.33-62.5v-83.33l-104.17-114.58c-6.4-9.56-3.84-22.5,5.72-28.9C1669.49-184.1,1671.07-184.89,1672.72-185.47"/>
</g>
<g>
	<g>
		<path class="st0" d="M1203.82,21.74h497.99v497.99h-497.99V21.74z"/>
		<g>
			<line class="st1" x1="1598.06" y1="457.48" x2="1598.06" y2="246.87"/>
			<g>
				<line class="st1" x1="1266.07" y1="457.48" x2="1639.56" y2="457.48"/>
				<path class="st1" d="M1266.07,166.98v20.75c0,34.38,27.87,62.25,62.25,62.25c34.38,0,62.25-27.87,62.25-62.25v-20.75
					 M1390.56,187.73c0,34.38,27.87,62.25,62.25,62.25s62.25-27.87,62.25-62.25v-20.75 M1515.06,187.73
					c0,34.38,27.87,62.25,62.25,62.25s62.25-27.87,62.25-62.25v-20.75h-373.49l41.5-83h290.49l41.5,83"/>
				<line class="st1" x1="1307.56" y1="457.48" x2="1307.56" y2="246.87"/>
				<path class="st1" d="M1390.56,457.48v-83c0-22.92,18.58-41.5,41.5-41.5h41.5c22.92,0,41.5,18.58,41.5,41.5v83"/>
			</g>
		</g>
	</g>
	<polygon class="st2" points="1398.66,202.86 1395.97,193.86 1390.31,206.64 	"/>
</g>
</svg>
