<svg id="Layer_1" data-name="Layer 1" xmlns="http://www.w3.org/2000/svg" viewBox="0 0 500 500"><defs><style>.cls-1{fill:#f5ba12;}</style></defs><title>hypershapes icon</title><path class="cls-1" d="M320.79,200c-.92-9.43-9.05-10-16.36-10h-11.7v-9.38c0-7.72-12-7.74-12,0V190H242.49c-7.75,0-15.52-.1-23.29-.17v-9.21c0-7.72-12-7.74-12,0v9.16c-5.55,0-11.09.06-16.63.22-7.68.23-11.49,5.62-11.49,12.8v91.42c0,6.44-.19,12.93,0,19.37.23,7.74,5.61,11.54,12.83,11.54H309.2a4.35,4.35,0,0,0,1,0,4.51,4.51,0,0,0,1.32-.2c8.43-1.52,9.31-8.71,9.31-16.05V214C320.85,209.39,321.23,204.61,320.79,200Zm-132.71,1.11c.84-3.26,5.55-2.12,8.38-2.12H207.2v13.67c0,7.72,12,7.73,12,0V199h61.53v13.67c0,7.72,12,7.73,12,0V199h14.83c1.51,0,3.18-.38,4.05,1.06.58,1,.24,2.67.24,3.72v23H188.08v-20C188.08,205.07,187.66,202.76,188.08,201.13Zm7.66,115c-1.65,0-3.89.4-5.5,0-3.33-.82-2.16-5.6-2.16-8.47V235.78H311.85V312c0,1.42.45,3.89-1.63,4.1H195.74Z"/></svg>