<svg id="Layer_1" data-name="Layer 1" xmlns="http://www.w3.org/2000/svg" viewBox="0 0 500 500"><defs><style>.cls-1{fill:#f5ba12;}</style></defs><title>Add tag (Trigger)</title><path class="cls-1" d="M256.46,329.86a4,4,0,0,1-2.81-1.16l-81.88-81.88a4,4,0,0,1-1.16-2.75l-.94-69.91a4,4,0,0,1,4-4h70.85a4,4,0,0,1,2.8,1.16l81.88,81.89a4,4,0,0,1,0,5.6L259.26,328.7A4,4,0,0,1,256.46,329.86Zm-77.94-87.51,77.94,77.94,64.3-64.3-77.92-77.92H177.65Z"/><circle class="cls-1" cx="213.82" cy="213.11" r="11.74"/></svg>