<svg id="Layer_1" data-name="Layer 1" xmlns="http://www.w3.org/2000/svg" viewBox="0 0 500 500"><defs><style>.cls-1{fill:#f5ba12;}</style></defs><title>hypershapes icon</title><path class="cls-1" d="M321.94,226.49a35.76,35.76,0,0,0-22.65-29A35.61,35.61,0,0,0,259.65,208a35.48,35.48,0,0,0-7.79,18.44,35.36,35.36,0,0,0,4.6,22.14,35.77,35.77,0,0,0,36.92,16.71,34.1,34.1,0,0,0,18.22-9.6,35.17,35.17,0,0,0,4.61-5.7,36.36,36.36,0,0,0,4-8.05,37,37,0,0,0,2.06-11.41A39,39,0,0,0,321.94,226.49Zm-41.09-23.86a27.38,27.38,0,0,1,6-.67,28.09,28.09,0,0,1,18.56,7l-9.13,9.13-6,6-3.21,3.2-18.55-18.54a29,29,0,0,1,3.74-2.68A28,28,0,0,1,280.85,202.63ZM263.61,247a10.33,10.33,0,0,1-.6-.87c-.22-.33-.42-.65-.63-1-.47-.78-.9-1.58-1.3-2.4-.16-.33-.32-.68-.45-1a27.24,27.24,0,0,1-1-2.6c-.1-.31-.2-.63-.29-1-.21-.73-.39-1.47-.55-2.22,0,0,0,0,0-.06,0-.22-.07-.46-.11-.68s0-.17-.05-.26,0-.12,0-.18-.05-.39-.09-.58-.06-.54-.08-.81c-.06-.52-.1-1-.12-1.58s0-.84,0-1.27c0-.68,0-1.37.08-2.07,0-.34.05-.68.09-1s.09-.68.14-1c.1-.64.2-1.26.34-1.88.09-.39.19-.78.27-1.17s.16-.56.25-.83.18-.61.28-.91c.25-.73.53-1.45.83-2.15.14-.33.29-.68.45-1l0,0c.12-.27.26-.54.4-.8a28.6,28.6,0,0,1,1.49-2.57c.15-.23.32-.47.48-.72.49-.7,1-1.36,1.55-2l18.54,18.54-18.23,18.22A25.36,25.36,0,0,1,263.61,247Zm23.27,12.15a28.34,28.34,0,0,1-18-6.5L286.57,235l.51-.49.49.49,17.51,17.52A28,28,0,0,1,286.88,259.17Zm27.53-21.3c-.17.62-.36,1.26-.58,1.86-.11.31-.21.61-.33.92-.24.62-.5,1.22-.77,1.81-.11.24-.23.48-.35.72s-.33.65-.51,1-.36.66-.55,1l-.51.81c-.21.34-.44.68-.69,1,0,0,0,0,0,0a9.36,9.36,0,0,1-.71,1c-.23.32-.48.63-.75,1l-18-18,3.22-3.22,6-6,9.06-9.06a28.28,28.28,0,0,1,2.81,4.18c.16.27.3.54.44.82s.31.6.45.91.25.52.36.78.19.42.27.65a1.21,1.21,0,0,1,.09.2c.11.25.19.51.29.75.17.47.32.93.46,1.39a7.19,7.19,0,0,1,.24.79c.06.21.13.44.18.67.14.48.24,1,.34,1.46s.18.84.23,1.26.11.67.15,1,.07.57.1.85,0,.35,0,.53,0,.42.05.64l0,1.06c0,.78-.05,1.54-.13,2.29,0,.34-.07.66-.11,1a.22.22,0,0,0,0,.08c-.06.35-.11.71-.16,1.06s-.12.66-.2,1a4.09,4.09,0,0,1-.13.56A12.65,12.65,0,0,1,314.41,237.87Z"/><path class="cls-1" d="M326,261.71a4,4,0,0,1-1.16,2.8L254.9,334.42a4,4,0,0,1-5.61,0l-81.88-81.88a4,4,0,0,1-1.16-2.75l-.94-69.91a4,4,0,0,1,4-4H240.1a4,4,0,0,1,2.83,1.17l18.54,18.54a2.26,2.26,0,0,1,0,3.2c-.72.74-1.42,1.52-2.08,2.33l0,0a2.32,2.32,0,0,1-3.41.15l-17.48-17.48H173.29l.87,64.28L252.1,326l64.3-64.3-2.53-2.53a2,2,0,0,1,.14-3c.93-.78,1.83-1.6,2.69-2.46h0a2.06,2.06,0,0,1,2.92,0l5.19,5.19A4,4,0,0,1,326,261.71Z"/><circle class="cls-1" cx="209.45" cy="218.82" r="11.74"/></svg>