<svg id="Layer_1" data-name="Layer 1" xmlns="http://www.w3.org/2000/svg" viewBox="0 0 500 500"><defs><style>.cls-1{fill:#f5ba12;}.cls-2{fill:#fff;}</style></defs><title>hypershapes icon</title><path class="cls-1" d="M325.93,284.73a4,4,0,0,1-4,4H250.48a25.92,25.92,0,0,1-3.31-.22,25.57,25.57,0,0,1-21.53-19.88l-1.51-7.07-10.86-50.85-.08-.43-4.35-20.36H186.52a4,4,0,0,1,0-7.94h25.53a4,4,0,0,1,3.88,3.14l4.35,20.39,1.69,7.93,8.93,41.82,1.69,7.93.81,3.78a17.48,17.48,0,0,0,17.09,13.82H322A4,4,0,0,1,325.93,284.73Z"/><path class="cls-1" d="M324.68,228.81l-.88,3.9a34.25,34.25,0,0,0,9.93-23.42c0-1.16-.11-2.31-.25-3.45l-.41-.36H268.21a32.87,32.87,0,0,0,0,7.93h59.9l-2.86,12.82Z"/><path class="cls-1" d="M328.18,232.64a2,2,0,0,1,3.36,1.85l-4.73,21.17a9.51,9.51,0,0,1-9.35,7.5H227.33a4,4,0,0,1-3.88-3.17l-10.18-49.31-.08-.43a4,4,0,0,1,3.88-4.77h3.21l1.69,7.93h0l8.63,41.82h86.9a1.64,1.64,0,0,0,1.61-1.29l3.41-15.31a4.31,4.31,0,0,1,1.63-2.51,31,31,0,0,0,4-3.41Z"/><path class="cls-1" d="M261.9,213.41H222l-1.69-7.93H261.9a3.62,3.62,0,0,1,3.6,3.68v.57A3.62,3.62,0,0,1,261.9,213.41Z"/><path class="cls-1" d="M246.2,329.11a20.48,20.48,0,1,1,18.28-18.27A20.49,20.49,0,0,1,246.2,329.11Zm-.46-32.81a12.55,12.55,0,1,0,10.81,10.8A12.56,12.56,0,0,0,245.74,296.3Z"/><path class="cls-1" d="M313.43,329.11a20.48,20.48,0,1,1,18.28-18.27A20.49,20.49,0,0,1,313.43,329.11ZM313,296.3a12.55,12.55,0,1,0,10.81,10.8A12.56,12.56,0,0,0,313,296.3Z"/><path class="cls-2" d="M283.73,189,301,206.27l17.09-17.09a26,26,0,0,0-17.26-6.5A26.37,26.37,0,0,0,283.73,189Z"/><path class="cls-2" d="M321.35,192.58l-17,17,16.75,16.74a26,26,0,0,0,.28-33.77Z"/><path class="cls-2" d="M297.65,209.61,280.4,192.36a26.22,26.22,0,0,0,.28,34.21Z"/><path class="cls-2" d="M317.75,229.71,301,212.94l-16.92,16.93a26.39,26.39,0,0,0,16.75,6A26.12,26.12,0,0,0,317.75,229.71Z"/><path class="cls-1" d="M333.43,205.5a32.82,32.82,0,0,0-65.22,0,32.87,32.87,0,0,0,0,7.93,32.27,32.27,0,0,0,4.29,12.67,33.29,33.29,0,0,0,34.36,15.57,31.87,31.87,0,0,0,16.94-8.94,31.25,31.25,0,0,0,9.63-27.21Zm-32.62-22.83a26.09,26.09,0,0,1,17.27,6.51L301,206.27,283.73,189A26.4,26.4,0,0,1,300.81,182.67ZM279.15,224.6c-.2-.26-.38-.53-.56-.8s-.4-.61-.58-.92c-.44-.72-.84-1.47-1.21-2.22-.15-.32-.3-.64-.42-.95a21.32,21.32,0,0,1-.92-2.41q-.15-.44-.27-.9a20.84,20.84,0,0,1-.51-2.07s0,0,0-.06c0-.2-.08-.41-.11-.63s0-.15,0-.23l0-.18c0-.17-.05-.36-.08-.53s-.06-.51-.08-.76a14.32,14.32,0,0,1-.11-1.47c0-.39,0-.78,0-1.18,0-.64,0-1.28.07-1.92,0-.32.05-.63.09-1s.08-.63.13-.94c.09-.59.19-1.17.32-1.75.08-.36.16-.73.25-1.09s.15-.52.23-.77.17-.56.26-.84c.23-.69.48-1.36.77-2q.19-.47.42-.93a.06.06,0,0,1,0,0l.37-.75c.43-.82.9-1.61,1.4-2.38.14-.23.3-.45.45-.67.45-.66.94-1.28,1.44-1.89l17.25,17.25-3.8,3.8-13.17,13.16A22.54,22.54,0,0,1,279.15,224.6Zm21.66,11.32a26.41,26.41,0,0,1-16.75-6l16.46-16.46.46-.47.47.47,16.29,16.29A26,26,0,0,1,300.81,235.92Zm22.27-12.32c-.2.32-.41.63-.64,1,0,0,0,0,0,0a9.43,9.43,0,0,1-.66.9c-.22.3-.46.59-.7.89l-16.75-16.75,17-17a26.23,26.23,0,0,1,2.62,3.89c.15.26.28.51.41.76s.29.57.42.86.23.47.34.73.17.39.25.59a1.67,1.67,0,0,1,.08.2c.1.23.18.46.27.7.16.42.3.85.43,1.28.09.24.15.49.22.73s.12.42.17.63c.12.45.22.91.32,1.36s.15.78.21,1.17.1.62.14.94.07.53.09.79,0,.33,0,.5,0,.39,0,.59,0,.66,0,1c0,.72-.06,1.43-.13,2.13,0,.32-.06.62-.1.93a.17.17,0,0,0,0,.07c-.05.33-.1.66-.16,1s-.1.6-.17.9c-.12.61-.26,1.2-.43,1.78s-.34,1.17-.54,1.73c-.1.3-.2.58-.31.86-.22.57-.46,1.14-.71,1.68-.11.23-.22.45-.34.67s-.3.62-.46.91C323.76,222.5,323.43,223.07,323.08,223.6Z"/></svg>