<svg id="Layer_3" enable-background="new 0 0 64 64" height="512" viewBox="0 0 64 64" width="512" xmlns="http://www.w3.org/2000/svg"><path d="m29 62h-6c-6.075 0-11-4.925-11-11h-4l7-7 7 7h-4c0 6.075 4.925 11 11 11z" fill="#8892a0"/><path d="m32 40v-4c0-5.523-4.477-10-10-10h-10c-5.523 0-10 4.477-10 10v4" fill="#c66b60"/><path d="m8.5 37c8.777 0 16.375-3.464 20.084-8.514-1.76-1.543-4.06-2.486-6.584-2.486h-10c-5.523 0-10 4.477-10 10v.341c2.058.427 4.239.659 6.5.659z" fill="#e47c6e"/><path d="m12 36 5-5 5 5 1.961-9.805c-.634-.126-1.289-.195-1.961-.195h-10c-.671 0-1.327.069-1.961.195z" fill="#ebf7fe"/><g fill="#db9b7c"><path d="m13 26 4 5 4-5"/><path d="m13 26 4 5 4-5"/><path d="m10 20h-2c-1.657 0-3-1.343-3-3 0-1.657 1.343-3 3-3h2"/></g><path d="m24 14h2c1.657 0 3 1.343 3 3 0 1.657-1.343 3-3 3h-2" fill="#efbe9a"/><path d="m25 9v9c0 4.418-3.582 8-8 8-4.418 0-8-3.582-8-8v-9" fill="#db9b7c"/><path d="m15.5 25.855c3.701-.703 6.5-3.95 6.5-7.855v-9h-13v9c0 3.905 2.799 7.152 6.5 7.855z" fill="#efbe9a"/><path d="m19 7v1c0 3.314-2.686 6-6 6h-6v-5c0-3.866 3.134-7 7-7h6c3.866 0 7 3.134 7 7v5h-5c-1.657 0-3-1.343-3-3z" fill="#976947"/><path d="m23.937 3.213c-1.122-.765-2.477-1.213-3.937-1.213h-6c-3.866 0-7 3.134-7 7v5h6c3.314 0 6-2.686 6-6v3c0 1.037.526 1.951 1.326 2.49 2.262-2.274 3.674-5.458 3.674-8.99 0-.435-.022-.864-.063-1.287z" fill="#c18e59"/><path d="m62 62v-4c0-5.523-4.477-10-10-10h-10c-5.523 0-10 4.477-10 10v4" fill="#c66b60"/><path d="m38.5 59c8.777 0 16.375-3.464 20.084-8.514-1.76-1.543-4.06-2.486-6.584-2.486h-10c-5.523 0-10 4.477-10 10v.341c2.058.427 4.239.659 6.5.659z" fill="#e47c6e"/><path d="m42 58 5-5 5 5 1.961-9.805c-.634-.126-1.289-.195-1.961-.195h-10c-.671 0-1.327.069-1.961.195z" fill="#ebf7fe"/><path d="m43 48 4 5 4-5" fill="#db9b7c"/><path d="m40 42h-2c-1.657 0-3-1.343-3-3 0-1.657 1.343-3 3-3h2" fill="#db9b7c"/><path d="m54 36h2c1.657 0 3 1.343 3 3 0 1.657-1.343 3-3 3h-2" fill="#efbe9a"/><path d="m55 31v9c0 4.418-3.582 8-8 8-4.418 0-8-3.582-8-8v-9" fill="#db9b7c"/><path d="m45.5 47.855c3.701-.703 6.5-3.95 6.5-7.855v-9h-13v9c0 3.905 2.799 7.152 6.5 7.855z" fill="#efbe9a"/><path d="m49 29v1c0 3.314-2.686 6-6 6h-6v-5c0-3.866 3.134-7 7-7h6c3.866 0 7 3.134 7 7v5h-5c-1.657 0-3-1.343-3-3z" fill="#976947"/><path d="m53.937 25.213c-1.122-.765-2.477-1.213-3.937-1.213h-6c-3.866 0-7 3.134-7 7v5h6c3.314 0 6-2.686 6-6v3c0 1.037.526 1.951 1.326 2.49 2.262-2.274 3.674-5.458 3.674-8.99 0-.435-.022-.864-.063-1.287z" fill="#c18e59"/></svg>