<svg id="Layer_1" data-name="Layer 1" xmlns="http://www.w3.org/2000/svg" viewBox="0 0 500 500"><defs><style>.cls-1{fill:#231f20;}</style></defs><title>Pricing conversion icon</title><path class="cls-1" d="M244.35,300.3v-8.46c-8.87-.12-17.89-2.36-23.54-5.51a1,1,0,0,1-.41-1.23l3.08-7.26a1,1,0,0,1,1.33-.48,49.11,49.11,0,0,0,21.95,5.31c11.34,0,19-5.54,19-13.23,0-7.42-6.24-12-18.07-16.06-16.3-5.41-26.37-11.75-26.37-23.48,0-11.21,9.42-19.71,24-21.74V199.7a5,5,0,0,1,5-5h0a5,5,0,0,1,5,5v8.06a50.65,50.65,0,0,1,19.38,4.08,1.51,1.51,0,0,1,.78,2L272.8,220a1.51,1.51,0,0,1-2,.75A43.23,43.23,0,0,0,252,216.66c-12.31,0-16.95,6.21-16.95,11.75,0,6.88,5.91,10.39,19.83,15.39,16.46,5.66,24.77,12.55,24.77,24.56,0,10.79-8.79,20.78-25.25,22.94v9a5,5,0,0,1-5,5h0A5,5,0,0,1,244.35,300.3Z"/><path class="cls-1" d="M319,198.51c-2.12-2.88-7-.08-4.85,2.84C332.4,226,335.4,259.61,321,286.82c-12.42,23.48-36.33,39.88-62.84,42.47a81.23,81.23,0,0,1-47.9-10.16l3-.56,4.39-.84a10.14,10.14,0,0,0,2.45-.56,2.8,2.8,0,0,0,1.58-2.85,1.69,1.69,0,0,0,0-.3,1.55,1.55,0,0,0-.08-.23,2.83,2.83,0,0,0-3.13-1.91l-.56.1-3.08.58-9.21,1.75-2.94.56a2.89,2.89,0,0,0-2.45,3.54c.44,1.95,1,3.87,1.54,5.8l2.31,8.63a6.7,6.7,0,0,0,.73,2.14,2.81,2.81,0,0,0,5-2.3c-.5-2.22-1.18-4.42-1.76-6.61l-.55-2c26.46,15,59.83,14.95,86.17-.66A85.82,85.82,0,0,0,319,198.51Z"/><path class="cls-1" d="M244.1,169.48A81,81,0,0,1,291.75,181l-3,.48-4.46.72a10.93,10.93,0,0,0-2.28.43,2.82,2.82,0,0,0-1.76,2.88,1.51,1.51,0,0,0,0,.3,1.55,1.55,0,0,0,.07.23,2.82,2.82,0,0,0,2.94,2c.24,0,.49-.07.73-.11l3-.49,9.31-1.49,2.93-.47a2.89,2.89,0,0,0,2.53-3.5c-.4-2-.92-3.9-1.38-5.84-.68-2.87-1.36-5.75-2-8.62a7,7,0,0,0-.72-2.26,2.81,2.81,0,0,0-5.06,2.25c.46,2.25,1.06,4.48,1.59,6.72l.46,1.95A85.81,85.81,0,0,0,181,300.49c2.12,2.87,7,.08,4.85-2.84-18.44-24.94-21.27-59-6.41-86.32A80.81,80.81,0,0,1,244.1,169.48Z"/></svg>