<svg id="Layer_1" data-name="Layer 1" xmlns="http://www.w3.org/2000/svg" viewBox="0 0 500 500"><defs><style>.cls-1{fill:#231f20;}</style></defs><title>Pop up </title><path class="cls-1" d="M329.34,205.07a18.7,18.7,0,0,0-1.41-7,11.76,11.76,0,0,0-6.83-6.39c-5.64-2.22-13.35-1.63-20-1.63h-68c-16,0-32.27-.67-48.3,0a14.54,14.54,0,0,0-6,1.41,12.31,12.31,0,0,0-6.31,6.75c-3.41,8.09-1.63,20.48-1.63,28.49v64c0,7.27.08,15.14,8.24,18.4,4.38,1.78,10,1,14.61,1h122.5a10,10,0,0,0,1.63-.3c.15,0,.22,0,.3-.07,8.53-1.78,11.2-8.53,11.2-16.92V265.39C329.34,245.29,329.93,225.18,329.34,205.07ZM190,199.29H303c2.82,0,6.6-.52,9.79-.37-16.69,14.46-33.46,29.08-50.15,43.62-2.3,2-4.53,4.45-7.12,6.16-6.38,4.38-10.76.07-15.29-3.86q-16.69-14.58-33.53-29.16l-18.92-16.47A20.59,20.59,0,0,0,190,199.29ZM316.21,300.86H192.53c-4.16,0-10.61,1.55-12.39-3.94-1.19-3.71,0-9.86,0-13.8v-61.5c0-5.12-1.12-11.8-.15-17q26.92,23.48,54,47c3.56,3.11,7,6.53,11.8,7.71,7,1.78,13-1.33,18.17-5.78,11.21-9.58,22.19-19.29,33.32-28.94,7.64-6.68,15.28-13.28,22.92-19.88.45,3-.15,6.67-.15,9.12v67C320.06,284.39,322.59,300.11,316.21,300.86Z"/></svg>