<svg id="Layer_1" data-name="Layer 1" xmlns="http://www.w3.org/2000/svg" viewBox="0 0 500 500"><defs><style>.cls-1{fill:#231f20;}</style></defs><title>Pop up </title><path class="cls-1" d="M329.57,286V204a5.16,5.16,0,0,0-.61-2.45,5.46,5.46,0,0,0-.36-.48,4.87,4.87,0,0,0-1.24-1.24c-.18-.13-.24-.33-.44-.44l-73-40.87a5.4,5.4,0,0,0-5.39,0l-75.45,45.06c-.18.1-.24.29-.4.41a4.55,4.55,0,0,0-1.5,1.55s0,.05-.06.08a5.12,5.12,0,0,0-.69,2.56v75.38c0,3.92-.59,7.23,2.65,10.06,2,1.75,4.71,3,6.94,4.48l37.56,24.26L247.3,341.6c.15.1.36.07.52.15s.35.09.53.14a5,5,0,0,0,3.47-.05l.09,0a4.58,4.58,0,0,0,.77-.22l66.6-40.48c2.44-1.49,5.44-2.81,7.64-4.65C330.28,293.66,329.57,290,329.57,286ZM251.29,169.32l28.12,15.74-62,42.23-31.35-19Zm-6.7,157.3v.54l-63.5-41V217.7l63.5,38.57ZM249.81,247l-24.35-14.79,62.27-42.44L314,204.42Zm69.08,41.91-63.63,38.69V256.12L318.89,214Z"/></svg>