<svg id="Layer_1" data-name="Layer 1" xmlns="http://www.w3.org/2000/svg" viewBox="0 0 500 500"><defs><style>.cls-1{fill:#bc86ff;}.cls-2{fill:#7766F7;}</style></defs><circle class="cls-1" cx="250" cy="250" r="133.75"/><path class="cls-2" d="M307.35,205.65C292,219.76,277.76,235.25,263,250l-43.39,43.39-21.85-21.84c-2.56-2.56-5.26-6.16-8.59-7.78a9.7,9.7,0,0,0-13.7,10.52c.71,3.79,3.87,6.28,6.46,8.87q7,7,14,14l13.62,13.6c3.1,3.11,5.43,5.49,10.09,6.08a1.94,1.94,0,0,0,1.74-.54c5.15-1.45,8.58-5.76,12.37-9.55l23.5-23.5,54.69-54.69c3.37-3.38,7.35-6.62,10.29-10.4C330.32,207.66,316.45,197.28,307.35,205.65Z"/></svg>